<svg width="48" height="35" viewBox="0 0 48 35" fill="none" xmlns="http://www.w3.org/2000/svg">
<path d="M41.6351 5.02681C35.8146 0.671813 30.2386 0.793812 30.2386 0.793812L29.6686 1.44481C36.5881 3.52081 39.8036 6.57331 39.8036 6.57331C29.9041 1.12281 17.2941 1.16181 6.99708 6.57331C6.99708 6.57331 10.3346 3.35781 17.6611 1.28181L17.2541 0.793312C17.2541 0.793312 11.7186 0.671312 5.85758 5.02631C5.85758 5.02631 -0.00341797 15.5683 -0.00341797 28.5523C-0.00341797 28.5523 3.41558 34.4133 12.4111 34.6983C12.4111 34.6983 13.9171 32.9073 15.1381 31.3608C9.96858 29.8143 8.01508 26.5988 8.01508 26.5988C11.2626 28.6308 14.5466 29.9028 18.6386 30.7098C25.2966 32.0803 33.5781 30.6713 39.7631 26.5988C39.7631 26.5988 37.7281 29.8958 32.3961 31.4018C33.6171 32.9078 35.0826 34.6578 35.0826 34.6578C44.0771 34.3733 47.4961 28.5123 47.4961 28.5528C47.4961 15.5688 41.6351 5.02681 41.6351 5.02681ZM16.1551 24.7678C13.8756 24.7678 12.0036 22.7733 12.0036 20.2903C12.1701 14.3443 20.1821 14.3628 20.3071 20.2903C20.3066 22.7733 18.4751 24.7678 16.1551 24.7678ZM31.0116 24.7678C28.7321 24.7678 26.8601 22.7733 26.8601 20.2903C27.0431 14.3558 34.9551 14.3533 35.1636 20.2903C35.1631 22.7733 33.3316 24.7678 31.0116 24.7678Z" fill="#333333"/>
</svg>
