<svg width="420" height="420" viewBox="0 0 420 420" fill="none" xmlns="http://www.w3.org/2000/svg">
<rect width="420" height="420" rx="210" fill="#0080BD"/>
<g clip-path="url(#clip0_3078_6572)">
<path d="M207.611 86.0705L138.112 200.549C137.567 201.447 136.301 201.547 135.625 200.744C129.506 193.47 106.712 162.531 134.918 134.331C160.655 108.599 193.438 90.252 205.587 83.9111C206.966 83.1916 208.418 84.7416 207.611 86.0705Z" fill="white"/>
<path d="M203.767 335.326C205.154 336.299 206.863 334.641 205.933 333.226C190.41 309.589 138.807 230.946 131.679 219.14C124.648 207.496 110.82 188.144 109.666 171.587C109.551 169.934 107.268 169.599 106.694 171.153C105.767 173.66 104.781 176.652 103.862 180.07C92.26 223.216 109.11 269 145.704 294.641L203.767 335.327V335.326Z" fill="white"/>
<path d="M213.314 333.29L282.813 218.812C283.357 217.914 284.624 217.815 285.3 218.617C291.418 225.89 314.213 256.83 286.007 285.03C260.269 310.762 227.487 329.109 215.338 335.45C213.959 336.169 212.507 334.62 213.314 333.29Z" fill="white"/>
<path d="M217.232 84.0195C215.845 83.0477 214.136 84.7051 215.066 86.1205C230.589 109.757 282.192 188.401 289.32 200.206C296.351 211.851 310.179 231.202 311.333 247.759C311.448 249.412 313.731 249.747 314.306 248.193C315.231 245.686 316.218 242.695 317.137 239.276C328.739 196.131 311.889 150.347 275.295 124.705L217.232 84.0195Z" fill="white"/>
</g>
<defs>
<clipPath id="clip0_3078_6572">
<rect width="221" height="253" fill="white" transform="translate(100 83)"/>
</clipPath>
</defs>
</svg>
