<svg width="225" height="225" viewBox="0 0 225 225" fill="none" xmlns="http://www.w3.org/2000/svg">
<rect width="225" height="225" fill="#855DCD"/>
<path d="M66.0237 48H156.32V176.402H143.065V117.586H142.935C141.47 101.33 127.809 88.5917 111.172 88.5917C94.5347 88.5917 80.873 101.33 79.4081 117.586H79.2781V176.402H66.0237V48Z" fill="white"/>
<path d="M42 66.2249L47.3846 84.4497H51.9408V158.178C49.6533 158.178 47.7988 160.032 47.7988 162.32V167.29H46.9704C44.6828 167.29 42.8284 169.144 42.8284 171.432V176.402H89.2189V171.432C89.2189 169.144 87.3645 167.29 85.0769 167.29H84.2485V162.32C84.2485 160.032 82.3941 158.178 80.1065 158.178H75.1361V66.2249H42Z" fill="white"/>
<path d="M143.893 158.178C141.606 158.178 139.751 160.032 139.751 162.32V167.29H138.923C136.636 167.29 134.781 169.144 134.781 171.432V176.402H181.172V171.432C181.172 169.144 179.317 167.29 177.03 167.29H176.201V162.32C176.201 160.032 174.347 158.178 172.059 158.178V84.4497H176.615L182 66.2249H148.864V158.178H143.893Z" fill="white"/>
</svg>
