<svg width="96" height="96" viewBox="0 0 96 96" fill="none" xmlns="http://www.w3.org/2000/svg">
<rect x="3" y="12" width="90" height="72" rx="12" fill="#5C5C5C"/>
<path d="M31.9749 45.5455H27.3683C27.3357 45.1643 27.2486 44.8185 27.107 44.5082C26.9709 44.1978 26.7803 43.931 26.5352 43.7077C26.2957 43.479 26.0044 43.3048 25.6613 43.185C25.3183 43.0598 24.9289 42.9972 24.4933 42.9972C23.731 42.9972 23.0858 43.1823 22.5576 43.5526C22.0349 43.9228 21.6374 44.4537 21.3651 45.1452C21.0983 45.8368 20.9649 46.6671 20.9649 47.6364C20.9649 48.66 21.1011 49.5176 21.3733 50.2092C21.651 50.8952 22.0512 51.4125 22.574 51.761C23.0967 52.104 23.7256 52.2756 24.4607 52.2756C24.8799 52.2756 25.2557 52.2238 25.5878 52.1204C25.92 52.0115 26.2085 51.8563 26.4536 51.6548C26.6986 51.4534 26.8973 51.2111 27.0498 50.9279C27.2077 50.6393 27.3139 50.3153 27.3683 49.956L31.9749 49.9886C31.9204 50.6965 31.7217 51.418 31.3786 52.1531C31.0356 52.8827 30.5483 53.5579 29.9166 54.1786C29.2905 54.7939 28.5145 55.2894 27.5889 55.6651C26.6632 56.0408 25.5878 56.2287 24.3627 56.2287C22.8271 56.2287 21.4495 55.8993 20.2298 55.2404C19.0156 54.5816 18.0545 53.6123 17.3467 52.3327C16.6443 51.0531 16.2931 49.4877 16.2931 47.6364C16.2931 45.7741 16.6524 44.206 17.3712 42.9318C18.0899 41.6522 19.0592 40.6857 20.2789 40.0323C21.4985 39.3735 22.8598 39.044 24.3627 39.044C25.419 39.044 26.391 39.1883 27.2785 39.4769C28.166 39.7655 28.9447 40.1875 29.6144 40.7429C30.2842 41.2928 30.8232 41.9708 31.2316 42.7766C31.64 43.5825 31.8878 44.5054 31.9749 45.5455ZM50.2397 47.6364C50.2397 49.4986 49.8776 51.0695 49.1534 52.3491C48.4292 53.6232 47.4518 54.5897 46.2212 55.2486C44.9906 55.902 43.6185 56.2287 42.1048 56.2287C40.5801 56.2287 39.2025 55.8993 37.9719 55.2404C36.7468 54.5761 35.7721 53.6069 35.0479 52.3327C34.3292 51.0531 33.9698 49.4877 33.9698 47.6364C33.9698 45.7741 34.3292 44.206 35.0479 42.9318C35.7721 41.6522 36.7468 40.6857 37.9719 40.0323C39.2025 39.3735 40.5801 39.044 42.1048 39.044C43.6185 39.044 44.9906 39.3735 46.2212 40.0323C47.4518 40.6857 48.4292 41.6522 49.1534 42.9318C49.8776 44.206 50.2397 45.7741 50.2397 47.6364ZM45.5678 47.6364C45.5678 46.6345 45.4344 45.7905 45.1676 45.1044C44.9062 44.4129 44.5169 43.8902 43.9996 43.5362C43.4878 43.1768 42.8562 42.9972 42.1048 42.9972C41.3533 42.9972 40.719 43.1768 40.2017 43.5362C39.6899 43.8902 39.3005 44.4129 39.0337 45.1044C38.7724 45.7905 38.6417 46.6345 38.6417 47.6364C38.6417 48.6383 38.7724 49.485 39.0337 50.1765C39.3005 50.8626 39.6899 51.3853 40.2017 51.7447C40.719 52.0986 41.3533 52.2756 42.1048 52.2756C42.8562 52.2756 43.4878 52.0986 43.9996 51.7447C44.5169 51.3853 44.9062 50.8626 45.1676 50.1765C45.4344 49.485 45.5678 48.6383 45.5678 47.6364ZM52.3408 56V39.2727H59.561C60.8025 39.2727 61.8888 39.4987 62.8199 39.9506C63.751 40.4026 64.4752 41.0533 64.9925 41.9027C65.5097 42.7521 65.7684 43.7704 65.7684 44.9574C65.7684 46.1553 65.5016 47.1654 64.968 47.9876C64.4398 48.8098 63.6965 49.4305 62.7382 49.8498C61.7853 50.2691 60.6718 50.4787 59.3976 50.4787H55.0851V46.9503H58.4829C59.0165 46.9503 59.4711 46.8849 59.8469 46.7543C60.228 46.6181 60.5193 46.4031 60.7208 46.109C60.9277 45.815 61.0312 45.4311 61.0312 44.9574C61.0312 44.4782 60.9277 44.0889 60.7208 43.7894C60.5193 43.4845 60.228 43.2612 59.8469 43.1197C59.4711 42.9727 59.0165 42.8991 58.4829 42.8991H56.882V56H52.3408ZM62.142 48.3224L66.3238 56H61.3905L57.3067 48.3224H62.142ZM67.7041 56V39.2727H74.9243C76.1657 39.2727 77.252 39.5178 78.1832 40.0078C79.1143 40.4979 79.8385 41.1867 80.3557 42.0742C80.873 42.9618 81.1317 43.9991 81.1317 45.1861C81.1317 46.384 80.8648 47.4213 80.3312 48.2979C79.8031 49.1746 79.0598 49.8498 78.1015 50.3235C77.1486 50.7972 76.0351 51.0341 74.7609 51.0341H70.4484V47.5057H73.8461C74.3798 47.5057 74.8344 47.4131 75.2101 47.228C75.5913 47.0374 75.8826 46.7679 76.0841 46.4194C76.291 46.0709 76.3944 45.6598 76.3944 45.1861C76.3944 44.7069 76.291 44.2985 76.0841 43.9609C75.8826 43.6179 75.5913 43.3565 75.2101 43.1768C74.8344 42.9917 74.3798 42.8991 73.8461 42.8991H72.2453V56H67.7041Z" fill="white"/>
</svg>
