<svg width="96" height="96" viewBox="0 0 96 96" fill="none" xmlns="http://www.w3.org/2000/svg">
<rect x="3" y="12" width="90" height="72" rx="12" fill="#0080BC"/>
<path d="M18.5874 45.4663C19.5907 45.3765 20.3094 45.3315 20.7437 45.3315C22.1437 45.3315 22.8438 45.8107 22.8438 46.769C22.8438 47.7573 22.0988 48.229 20.6089 48.1841C20.1372 48.1691 19.4222 48.2028 18.4639 48.2852C18.4339 49.0788 18.4264 50.0895 18.4414 51.3174C18.4714 53.0843 18.4863 54.0913 18.4863 54.3384C18.4863 55.7085 18.4002 56.7941 18.228 57.5952C18.0558 58.3963 17.5617 58.7969 16.7456 58.7969C16.3263 58.7969 15.9595 58.6621 15.645 58.3926C15.3381 58.123 15.1846 57.7824 15.1846 57.3706C15.1846 57.2733 15.1921 57.1797 15.207 57.0898C15.3867 56.0192 15.4766 55.0122 15.4766 54.0688V48.4536C15.3418 48.4611 15.0947 48.491 14.7354 48.5435C14.4508 48.5809 14.2337 48.5996 14.084 48.5996C13.6273 48.5996 13.2492 48.4686 12.9497 48.2065C12.6502 47.937 12.5005 47.5776 12.5005 47.1284C12.5005 46.4321 12.8674 45.9754 13.6011 45.7583C13.9305 45.661 14.5856 45.5973 15.5664 45.5674C15.5739 45.4326 15.6226 45.0096 15.7124 44.2983C15.922 42.6287 16.375 41.3859 17.0713 40.5698C17.9398 39.5516 19.2725 39.0425 21.0693 39.0425C22.4395 39.0425 23.1245 39.5329 23.1245 40.5137C23.1245 41.487 22.4881 41.9736 21.2153 41.9736C20.3094 41.9736 19.6506 42.2918 19.2388 42.9282C18.9318 43.3999 18.7259 44.1374 18.6211 45.1406L18.5874 45.4663ZM34.3662 48.9028C34.2988 50.0483 33.7785 50.6211 32.8052 50.6211C31.8618 50.6211 31.3901 50.1344 31.3901 49.1611L31.334 48.0269C29.6494 48.2964 28.444 49.1611 27.7178 50.6211L27.729 56.27C27.729 56.6968 27.583 57.0487 27.291 57.3257C26.999 57.6102 26.6284 57.7524 26.1792 57.7524C25.715 57.7524 25.3556 57.6027 25.1011 57.3032C24.8615 57.0337 24.7417 56.6893 24.7417 56.27V48.9141C24.7417 48.682 24.7492 48.3376 24.7642 47.8809C24.7791 47.4167 24.7866 47.0685 24.7866 46.8364C24.7866 46.4172 24.9102 46.069 25.1572 45.792C25.4118 45.5075 25.7712 45.3652 26.2354 45.3652C27.0664 45.3652 27.5605 45.792 27.7178 46.6455C29.043 45.6572 30.5142 45.1631 32.1313 45.1631C33.6287 45.1631 34.3774 46.1589 34.3774 48.1504C34.3774 48.5322 34.3737 48.783 34.3662 48.9028ZM47.3149 42.6025C47.1652 42.6025 47.008 42.5801 46.8433 42.5352C45.6304 42.2057 44.4512 42.041 43.3057 42.041C42.7441 42.041 42.1414 42.0859 41.4976 42.1758C40.8537 42.2656 40.1686 42.4004 39.4424 42.5801C39.4424 43.5758 39.4087 45.0545 39.3413 47.0161C39.7606 46.9862 41.2243 46.8477 43.7324 46.6006C45.1624 46.4583 46.0684 46.3872 46.4502 46.3872C46.8919 46.3872 47.27 46.5295 47.5845 46.814C47.8989 47.091 48.0562 47.4616 48.0562 47.9258C48.0562 48.8167 47.5807 49.3221 46.6299 49.4419C46.0309 49.4868 45.1362 49.5617 43.9458 49.6665C42.8826 49.7863 41.2804 49.9323 39.1392 50.1045C39.0868 51.0553 39.0605 51.8228 39.0605 52.4067C39.0605 53.8742 39.1466 54.709 39.3188 54.9111C39.4012 55.0085 39.8729 55.0571 40.7339 55.0571C41.1981 55.0571 41.8981 55.0459 42.834 55.0234C43.7699 55.001 44.4699 54.9897 44.9341 54.9897C45.0838 54.9897 45.3047 54.9673 45.5967 54.9224C45.8887 54.8774 46.1058 54.855 46.248 54.855C46.6823 54.855 47.0529 54.9785 47.3599 55.2256C47.7118 55.5026 47.8877 55.8919 47.8877 56.3936C47.8877 57.2321 47.4497 57.7337 46.5737 57.8984C45.825 58.0407 44.2715 58.1118 41.9131 58.1118C39.4723 58.1118 37.8813 57.7824 37.1401 57.1235C36.3241 56.3973 35.916 54.825 35.916 52.4067C35.916 51.4035 35.9871 49.8986 36.1294 47.8921C36.2791 45.8781 36.354 44.3732 36.354 43.3774C36.354 43.1154 36.3166 42.7298 36.2417 42.2207C36.1668 41.7041 36.1294 41.3148 36.1294 41.0527C36.1294 39.9147 36.6535 39.3457 37.7017 39.3457C38.0311 39.3457 38.3343 39.4393 38.6113 39.6265C39.4798 39.4093 40.3034 39.2484 41.082 39.1436C41.8682 39.0312 42.6094 38.9751 43.3057 38.9751C45.1924 38.9751 46.701 39.1922 47.8315 39.6265C48.5203 39.8885 48.8647 40.3639 48.8647 41.0527C48.8647 41.4421 48.73 41.7865 48.4604 42.0859C48.161 42.4303 47.7791 42.6025 47.3149 42.6025ZM66.9907 54.2373C66.9907 54.6117 66.9271 55.2031 66.7998 56.0117C66.6501 56.9775 66.1035 57.4604 65.1602 57.4604C64.6361 57.4604 64.0446 57.1647 63.3857 56.5732C60.5033 53.9753 57.2502 50.3328 53.6265 45.646C53.5815 47.5926 53.5591 48.7868 53.5591 49.2285C53.5591 49.82 53.5703 50.7109 53.5928 51.9014C53.6227 53.0918 53.6377 53.9827 53.6377 54.5742C53.6377 56.7829 53.0986 57.8872 52.0205 57.8872C51.474 57.8872 51.036 57.7188 50.7065 57.3818C50.4146 57.0824 50.2686 56.7192 50.2686 56.2925C50.2686 55.993 50.291 55.54 50.3359 54.9336C50.3883 54.3271 50.4146 53.8742 50.4146 53.5747C50.4146 53.133 50.4295 52.4704 50.4595 51.5869C50.4894 50.7035 50.5044 50.0409 50.5044 49.5991C50.5044 49.1274 50.4932 48.4162 50.4707 47.4653C50.4482 46.5145 50.437 45.8032 50.437 45.3315C50.437 44.8823 50.3921 44.2122 50.3022 43.3213C50.2124 42.4303 50.1675 41.7603 50.1675 41.311C50.1675 40.8618 50.3584 40.4613 50.7402 40.1094C51.1296 39.7575 51.5713 39.5815 52.0654 39.5815C52.6195 39.5815 53.2334 40.0607 53.9072 41.019C57.3063 45.8706 60.6605 49.8275 63.9697 52.8896C63.9772 52.6501 63.981 52.0811 63.981 51.1826C63.981 47.4915 63.9435 45.0021 63.8687 43.7144C63.8537 43.4972 63.805 43.0929 63.7227 42.5015C63.6478 41.9774 63.6104 41.5656 63.6104 41.2661C63.6104 40.2329 64.1569 39.7163 65.25 39.7163C66.4704 39.7163 67.0806 41.5993 67.0806 45.3652C67.0806 45.4476 67.0731 46.0391 67.0581 47.1396C67.0132 50.943 66.9907 53.3089 66.9907 54.2373ZM74.3579 57.6851C72.4562 57.6851 70.9588 57.262 69.8657 56.416C68.9448 55.7122 68.4844 54.8999 68.4844 53.979C68.4844 53.5073 68.6266 53.118 68.9111 52.811C69.1956 52.4966 69.5887 52.3394 70.0903 52.3394C70.7642 52.3394 71.2583 52.6838 71.5728 53.3726C71.9995 54.2935 72.9653 54.7539 74.4702 54.7539C75.758 54.7539 77.0046 54.4731 78.21 53.9116C79.4603 53.3351 80.0854 52.7025 80.0854 52.0137C80.0854 51.0703 79.6961 50.4489 78.9175 50.1494C78.3634 49.9323 77.2516 49.805 75.582 49.7676C74.2868 49.7376 73.1263 49.4943 72.1006 49.0376C70.7155 48.4162 70.0342 47.5252 70.0566 46.3647C70.0791 44.9048 70.8577 43.5684 72.3926 42.3555C73.9274 41.1351 75.6195 40.5249 77.4688 40.5249C78.2025 40.5249 79.1084 40.6934 80.1865 41.0303C81.5267 41.4495 82.1968 41.9325 82.1968 42.479C82.1968 42.8683 82.062 43.2127 81.7925 43.5122C81.493 43.8491 81.1074 44.0176 80.6357 44.0176C80.2839 44.0176 79.756 43.9427 79.0522 43.793C78.356 43.6432 77.8281 43.5684 77.4688 43.5684C76.5029 43.5758 75.5858 43.8079 74.7173 44.2646C73.8188 44.7288 73.3696 45.2342 73.3696 45.7808C73.3696 46.0653 73.5044 46.3011 73.7739 46.4883C74.0509 46.668 74.4627 46.7952 75.0093 46.8701C75.9676 46.9225 76.9222 46.9749 77.873 47.0273C79.5352 47.1546 80.8491 47.6226 81.8149 48.4312C82.8781 49.3296 83.4097 50.5724 83.4097 52.1597C83.4097 54.0913 82.3091 55.555 80.1079 56.5508C78.4308 57.307 76.5142 57.6851 74.3579 57.6851Z" fill="white"/>
</svg>
