<svg width="96" height="96" viewBox="0 0 96 96" fill="none" xmlns="http://www.w3.org/2000/svg">
<rect x="3" y="12" width="90" height="72" rx="12" fill="#FF79C9"/>
<path d="M18.2808 42.7563L13.4785 42.0386C13.8659 39.7144 14.766 37.937 16.1787 36.7065C17.6029 35.4647 19.3802 34.8438 21.5107 34.8438C23.8464 34.8438 25.6807 35.4761 27.0137 36.7407C28.3467 38.0054 29.0132 39.6118 29.0132 41.5601C29.0132 42.5513 28.8081 43.5482 28.3979 44.5508C27.9878 45.542 27.3156 46.5845 26.3813 47.6782C25.7091 48.453 24.6097 49.5524 23.083 50.9766C21.5563 52.3893 20.5423 53.3577 20.041 53.8818C19.5511 54.3945 19.0783 54.9414 18.6226 55.5225H27.3042L26.3813 60H11.1543C11.3138 58.7695 11.6727 57.6017 12.231 56.4966C12.8006 55.38 13.507 54.3433 14.3501 53.3862C15.1932 52.4292 16.737 50.8854 18.9814 48.7549C20.6676 47.137 21.7329 46.0832 22.1772 45.5933C22.9748 44.7046 23.5216 43.9355 23.8179 43.2861C24.1141 42.6367 24.2622 42.05 24.2622 41.5259C24.2622 40.6828 24.0116 39.9992 23.5103 39.4751C23.0203 38.951 22.3937 38.689 21.6304 38.689C20.8556 38.689 20.1777 38.9852 19.5967 39.5776C19.0156 40.1587 18.577 41.2183 18.2808 42.7563ZM30.7734 51.8481C30.7734 49.3302 31.2007 46.7782 32.0552 44.1919C33.1034 41.036 34.4478 38.689 36.0884 37.1509C37.729 35.6128 39.5519 34.8438 41.5571 34.8438C43.5851 34.8438 45.2485 35.5786 46.5474 37.0483C47.8576 38.5181 48.5127 40.6543 48.5127 43.457C48.5127 46.0205 48.0342 48.7321 47.0771 51.5918C46.1315 54.4401 44.8498 56.6276 43.2319 58.1543C41.6141 59.6696 39.7912 60.4272 37.7632 60.4272C35.7352 60.4272 34.0604 59.6924 32.7388 58.2227C31.4285 56.7529 30.7734 54.6281 30.7734 51.8481ZM35.5928 52.8394C35.5928 54.1838 35.8092 55.1294 36.2422 55.6763C36.6751 56.2231 37.2334 56.4966 37.917 56.4966C38.8285 56.4966 39.6374 56.075 40.3438 55.2319C41.2894 54.104 42.1268 51.8823 42.856 48.5669C43.437 45.9351 43.7275 43.8501 43.7275 42.312C43.7275 41.0588 43.5054 40.1587 43.061 39.6118C42.6281 39.0535 42.0698 38.7744 41.3862 38.7744C40.5203 38.7744 39.7513 39.1903 39.0791 40.022C38.0879 41.2297 37.2334 43.3545 36.5156 46.3965C35.9004 49.0283 35.5928 51.1759 35.5928 52.8394ZM50.2559 51.8481C50.2559 49.3302 50.6831 46.7782 51.5376 44.1919C52.5858 41.036 53.9302 38.689 55.5708 37.1509C57.2114 35.6128 59.0343 34.8438 61.0396 34.8438C63.0675 34.8438 64.731 35.5786 66.0298 37.0483C67.34 38.5181 67.9951 40.6543 67.9951 43.457C67.9951 46.0205 67.5166 48.7321 66.5596 51.5918C65.6139 54.4401 64.3322 56.6276 62.7144 58.1543C61.0965 59.6696 59.2736 60.4272 57.2456 60.4272C55.2176 60.4272 53.5428 59.6924 52.2212 58.2227C50.911 56.7529 50.2559 54.6281 50.2559 51.8481ZM55.0752 52.8394C55.0752 54.1838 55.2917 55.1294 55.7246 55.6763C56.1576 56.2231 56.7158 56.4966 57.3994 56.4966C58.3109 56.4966 59.1198 56.075 59.8262 55.2319C60.7718 54.104 61.6092 51.8823 62.3384 48.5669C62.9194 45.9351 63.21 43.8501 63.21 42.312C63.21 41.0588 62.9878 40.1587 62.5435 39.6118C62.1105 39.0535 61.5522 38.7744 60.8687 38.7744C60.0028 38.7744 59.2337 39.1903 58.5615 40.022C57.5703 41.2297 56.7158 43.3545 55.998 46.3965C55.3828 49.0283 55.0752 51.1759 55.0752 52.8394ZM69.7383 51.8481C69.7383 49.3302 70.1655 46.7782 71.02 44.1919C72.0682 41.036 73.4126 38.689 75.0532 37.1509C76.6938 35.6128 78.5168 34.8438 80.522 34.8438C82.55 34.8438 84.2134 35.5786 85.5122 37.0483C86.8224 38.5181 87.4775 40.6543 87.4775 43.457C87.4775 46.0205 86.999 48.7321 86.042 51.5918C85.0964 54.4401 83.8146 56.6276 82.1968 58.1543C80.5789 59.6696 78.756 60.4272 76.728 60.4272C74.7 60.4272 73.0252 59.6924 71.7036 58.2227C70.3934 56.7529 69.7383 54.6281 69.7383 51.8481ZM74.5576 52.8394C74.5576 54.1838 74.7741 55.1294 75.207 55.6763C75.64 56.2231 76.1982 56.4966 76.8818 56.4966C77.7933 56.4966 78.6022 56.075 79.3086 55.2319C80.2542 54.104 81.0916 51.8823 81.8208 48.5669C82.4019 45.9351 82.6924 43.8501 82.6924 42.312C82.6924 41.0588 82.4702 40.1587 82.0259 39.6118C81.5929 39.0535 81.0347 38.7744 80.3511 38.7744C79.4852 38.7744 78.7161 39.1903 78.0439 40.022C77.0527 41.2297 76.1982 43.3545 75.4805 46.3965C74.8652 49.0283 74.5576 51.1759 74.5576 52.8394Z" fill="white"/>
</svg>
