<?xml version="1.0" encoding="UTF-8" standalone="no"?>
<!-- Created with Inkscape (http://www.inkscape.org/) -->
<svg xmlns:rdf="http://www.w3.org/1999/02/22-rdf-syntax-ns#" xmlns="http://www.w3.org/2000/svg" xmlns:cc="http://web.resource.org/cc/" xmlns:xlink="http://www.w3.org/1999/xlink" xmlns:dc="http://purl.org/dc/elements/1.1/" xmlns:svg="http://www.w3.org/2000/svg" xmlns:inkscape="http://www.inkscape.org/namespaces/inkscape" xmlns:sodipodi="http://sodipodi.sourceforge.net/DTD/sodipodi-0.dtd" xmlns:ns1="http://sozi.baierouge.fr" id="svg557" viewBox="0 0 744.09 496.06" version="1.0" y="0" x="0" inkscape:version="0.91 r13725">
  <rect id="rect657" style="fill-rule:evenodd;stroke-width:1pt;fill:#000000" height="496.06" width="744.09" y="-.000015" x="0"/>
  <g id="g790" transform="translate(11.735 27.521)">
    <path id="selection_to_path" style="stroke:#000000;fill:#ffffff" d="m297 155c3-9 0-25 1-35 1-6 5-12 8-18 2-6 5-14 12-16-2 6-3 6-5 11l-3 11c-2 5-5 7-6 12-2 7-1 24-1 32 0 2 0 5-2 7-3 4-12 1-11 11 0 1 0 3 1 4 4 9 20 12 28 16 8 5 6 10 14 15 8 6 29 6 39 5 3-1 8-1 11-3 8-3 9-11 17-16 6-3 19-5 25-14 1-1 2-3 2-4 3-11-10-7-13-14-2-5 1-21 2-26l3 3v9l1 10c11-2 10-15 11-24 2-24 2-39-15-58-10-10-23-18-37-20h-9l-7-1-8 1c-13 1-22 1-33 7-8 4-13 9-19 16-15 16-18 36-15 57 1 8 3 17 9 22zm33-30c14-1 24 9 19 23-4 9-13 16-23 18-9 1-13-5-13-13 0-13 2-24 17-28zm56 0c12 0 18 10 19 21 0 3 1 6 1 8-1 7-8 12-15 13-11 0-24-17-23-27 2-9 10-13 18-15zm-18 61l-11-2-9 3c-1-7 2-17 5-24 1-2 3-6 5-7 4-1 5 4 5 6 2 8 5 16 5 24z"/>
    <path id="selection_to_path#1" style="stroke:#000000;fill:#ffffff" d="m407 202c-3 1-7 1-10 3-10 7-5 24-14 35-4 5-13 7-20 7-13 0-29-1-35-14-5-9 2-18-9-29-2-1-5-4-7-4-3 0-2 4-2 6l1 20c0 15 4 15 11 24 4 6 7 12 14 15 9 3 19 3 28 2 7 0 11 1 18-3s19-20 21-28l1-14c2-10 3-8 3-20z"/>
    <path id="path719" style="stroke:#000000;fill:#ffffff" d="m590 98c-15 21-31.26 38.79-49 60l-24 27c-20 19-70 56-93 71-13 9-27 16-41 22l-18.26 8.84c3 3 8.58 4.64 13.63 7 3 0 13.63-5.84 16.63-7.84l32-18c6-4 12-9 19-10-3 7-10 11-17 15l-19 11s-19.95 11.37-22.68 13.26c5.47 2.16 13.68 4.64 18.89 6.74 5 0 11.79-5 15.79-7 11-6 25-15 36-23l18-12c14-11 28-23 41-36 10-9 20-18 28-29 11-13 18-28 26-43 9-14 12-23 17-38 1-5 4-13 2-18z"/>
    <path id="path725" style="stroke:#000000;fill:#ffffff" d="m131 93c-3 11 1 24 5 34 9 24 24 45 39 65 9 13 24 29 35 40l12 10 26 23c21 16 60 40 84 51l32 14s13 5 13 5c15 6 30 10 46 13 9 2 19 5 28 5-3-11-9-10-18-13l-33-13c-46-19-97-38-133-74 7 0 12 6 17 10 7 5 16 11 24 16 22 13 72 36 97 45 10 4 27 11 37 11 8 1 19-4 25-8-4-4-8-3-14-4 0 0-31-9-31-9-27-7-53-17-78-30l-14-6-19-12-23-15-24-19-41-32s-38-39-38-39l-19-22-20-22-15-24z"/>
    <path id="path731" style="stroke:#000000;fill:#ffffff" d="m452 340c2 4 6 10 6 15 0 11-13 21-23 20-4-1-13-6-16 0-1 2-1 4 0 5 0 4 5 6 9 8 11 3 23-1 32-7 7-4 12-11 14-19l2-13c1-4 5-5 10-12 6-8 12-22 20-28 3-2 6-3 10-4-2-3-4-5-6-8-2-1-4-3-6-3-3-1-7-1-10 1-14 7-11 20-19 30-6 8-13 12-23 15z"/>
    <path id="path737" style="stroke:#000000;fill:#ffffff" d="m484 353c7 3 13 2 20 2l15 1c7 0 9-4 12-10 1-2 2-6 0-8s-6-2-9-2l-17 1c-3 0-8 0-11 1-5 3-9 10-10 15z"/>
    <path id="path743" style="stroke:#000000;fill:#ffffff" d="m538 367c-5-2-8-4-11-8-1 1-2 1-3 2-1 5 12 17 14 6z"/>
    <path id="path744" style="stroke:#000000;fill:#ffffff" d="m531 333l8 5c-2 4-7 12-6 17 1 10 15 10 21 4 7-8 7-20-3-26-6-3-13-2-20 0z"/>
    <path id="selection_to_path#5" style="stroke:#000000;fill:#ffffff" d="m172 361l1 1c8-2 13-5 14-13-6 1-12 7-15 12z"/>
    <path id="selection_to_path#4" style="stroke:#000000;fill:#ffffff" d="m179 324c-3-2-6-3-10-3-3 0-6 0-9 1-10 4-11 20-3 27 4 4 14 6 18 1 4-4 3-9 1-14-1-3-3-7-1-9 1-2 3-2 4-3z"/>
    <path id="selection_to_path#3" style="stroke:#000000;fill:#ffffff" d="m178 328c1 3 6 15 8 17 3 2 6 2 9 2l18-1h13c0-3 0-6-1-8-3-8-14-12-22-12 0 0-9 1-9 1-6 0-11-1-16 1z"/>
    <path id="selection_to_path#2" style="stroke:#000000;fill:#ffffff" d="m197 296c19 5 19 21 27 32 3 4 11 10 12 14 1 3 0 4 1 11 2 9 8 18 16 23 9 6 17 10 28 7 6-2 12-6 9-13s-14 0-21-2c-7-3-15-13-15-21l4-14c-11-4-24-13-29-24-3-7-3-17-8-22-9-7-21-1-24 9z"/>
    <path id="path758" style="stroke:#000000;fill:#ffffff" d="m245 319c3 4 5 5 9 7 14 8 23 2 37-1 0 0 29-9 29-9-3.84-2.58-12.42-7.95-16-10l-19 5-40 8z"/>
    <path id="path759" style="stroke:#000000;fill:#ffffff" d="m259 348c26 0 50-8 75-14 0 0 11-5.21 14.68-5.21-3.47-2.53-17.63-7.63-19.84-9.63-3 0.89-14.84 4.84-18.84 5.84l-25 7-12 3c-7 3-12 4-14 13z"/>
    <path id="selection_to_path#8" style="stroke:#000000;fill:#ffffff" d="m336 233c0 2.5 0.25 5.54 1.25 7.04s4.75 1.63 5.75 0.96c0.81-0.82-0.75-4.75-1.62-5.88-0.88-1.12-2.38-1.62-5.38-2.12z"/>
    <path id="selection_to_path#7" style="stroke:#000000;fill:#ffffff" d="m344 234l1 5c0 1 1 3 2 4 4 2 6-8 3-9-2-1-4 0-6 0z"/>
    <path id="selection_to_path#6" style="stroke:#000000;fill:#ffffff" d="m356 235c-3 2-3.09 5.72-1.96 7.6 1.12 1.87 3.46 1.9 4.96 1.4 1-0.5 2.5-3 2.62-5.25 0.13-2.25-1.12-4.25-5.62-3.75z"/>
    <path id="path784" style="stroke:#000000;fill:#ffffff" d="m345 222c2.7 1.4 7.17-0.09 7.17-0.09l-0.17-5.91c-1-4-4-5-6-3-1 2-1 7-1 9z"/>
    <path id="path785" style="stroke:#000000;fill:#ffffff" d="m360 212c-1 0-4.13-0.52-5.13 0.48-1.96 1.96-2.87 8.52 0.13 10.52 1.87 0.48 5 0.91 6-3.09v-2.91s-0.04-3.26-1-5z"/>
    <path id="path786" style="stroke:#000000;fill:#ffffff" d="m370 244c0.91 0.4 2-1 3-2 7-7-7.56-12.61-5-2 0 0 0.95 3.83 2 4z"/>
    <path id="path787" style="stroke:#000000;fill:#ffffff" d="m341.74 211c-1-0.35-2.74 0-3.74 0-7.78 3.52 2 17 5 8v-3s-0.56-4.65-1.26-5z"/>
    <path id="path788" style="stroke:#000000;fill:#ffffff" d="m364 212s-1.7 10.13-1 11c1.31 0.7 5.34 0.52 6.83-0.52 0-3 0.18-6.51-0.42-8.34-0.61-1.83-1.91-1.64-5.41-2.14z"/>
    <path id="path789" style="stroke:#000000;fill:#ffffff" d="m373.56 210.83l-0.56 5.17c0 3 0.65 8.83 4.65 5.83 0.5-0.5 1.85-6.45 1.3-9.17-1.03-1.45-2.91-1.6-5.39-1.83z"/>
  </g>
  <metadata>
    <rdf:RDF>
      <cc:Work>
        <dc:format>image/svg+xml</dc:format>
        <dc:type rdf:resource="http://purl.org/dc/dcmitype/StillImage"/>
        <cc:license rdf:resource="http://creativecommons.org/licenses/publicdomain/"/>
        <dc:publisher>
          <cc:Agent rdf:about="http://openclipart.org/">
            <dc:title>Openclipart</dc:title>
          </cc:Agent>
        </dc:publisher>
        <dc:title>pirate flag - Jack Rackham</dc:title>
        <dc:date>2007-12-09T17:54:55</dc:date>
        <dc:description/>
        <dc:source>https://openclipart.org/detail/9660/pirate-flag---jack-rackham-by-anonymous</dc:source>
        <dc:creator>
          <cc:Agent>
            <dc:title>Anonymous</dc:title>
          </cc:Agent>
        </dc:creator>
        <dc:subject>
          <rdf:Bag>
            <rdf:li>externalsource</rdf:li>
            <rdf:li>flag</rdf:li>
            <rdf:li>historical</rdf:li>
            <rdf:li>pirate</rdf:li>
            <rdf:li>sign</rdf:li>
          </rdf:Bag>
        </dc:subject>
      </cc:Work>
      <cc:License rdf:about="http://creativecommons.org/licenses/publicdomain/">
        <cc:permits rdf:resource="http://creativecommons.org/ns#Reproduction"/>
        <cc:permits rdf:resource="http://creativecommons.org/ns#Distribution"/>
        <cc:permits rdf:resource="http://creativecommons.org/ns#DerivativeWorks"/>
      </cc:License>
    </rdf:RDF>
  </metadata>
</svg>
