<svg width="388" height="301" viewBox="0 0 388 301" fill="none" xmlns="http://www.w3.org/2000/svg">
<path d="M386 0C386 0 386 59.3818 386 91.9738C386 124.566 386 150.249 339 150.249C262.095 150.249 115.777 150.249 35.3808 150.249C2.00002 150.249 2 194.234 2 194.234V301" stroke="url(#paint0_linear_2107_6829)" stroke-width="3" stroke-linejoin="round"/>
<path d="M386 0C386 0 386 59.3818 386 91.9738C386 124.566 386 150.249 339 150.249C262.095 150.249 115.777 150.249 35.3808 150.249C2.00002 150.249 2 194.234 2 194.234V301" stroke="white" stroke-opacity="0.2" stroke-width="3" stroke-linejoin="round"/>
<defs>
<linearGradient id="paint0_linear_2107_6829" x1="161" y1="-1785" x2="-173.064" y2="1050.92" gradientUnits="userSpaceOnUse">
<stop stop-color="#aaaaaa"/>
<stop offset="1" stop-color="#aaaaaa"/>
</linearGradient>
</defs>
</svg>
