<svg width="48" height="50" viewBox="0 0 48 50" fill="none" xmlns="http://www.w3.org/2000/svg">
<g clip-path="url(#clip0_669_8041)">
<path d="M13.2484 5.22412L12.1025 3.0535L12.9801 2.61236C13.1488 2.52756 13.3091 2.48673 13.4611 2.48992C13.6127 2.49241 13.7489 2.53348 13.8697 2.6131C13.9909 2.69166 14.0895 2.80303 14.1656 2.94716C14.2417 3.09131 14.277 3.2345 14.2715 3.37676C14.2659 3.51902 14.2189 3.65126 14.1305 3.77353C14.0427 3.89542 13.9134 3.99932 13.7425 4.08522L13.1832 4.36641L12.989 3.99863L13.4723 3.75567C13.5629 3.71017 13.6294 3.65748 13.672 3.59763C13.715 3.53669 13.7366 3.47173 13.7368 3.40275C13.7374 3.33273 13.7189 3.26203 13.6812 3.19067C13.6432 3.1186 13.5951 3.06318 13.5371 3.0244C13.4794 2.98455 13.413 2.96469 13.338 2.96487C13.2626 2.96435 13.1793 2.98701 13.088 3.03285L12.7709 3.19228L13.7187 4.9877L13.2484 5.22412Z" fill="white"/>
<path d="M16.9406 2.2928C17.0379 2.54156 17.0724 2.77119 17.044 2.98169C17.0164 3.19191 16.9376 3.37395 16.8077 3.52781C16.6783 3.68064 16.5105 3.79547 16.3043 3.87226C16.0965 3.94965 15.8921 3.97303 15.691 3.94246C15.4898 3.91189 15.3072 3.82719 15.1431 3.68838C14.9789 3.5496 14.8484 3.35619 14.7513 3.10816C14.6541 2.8594 14.6192 2.6299 14.6469 2.41969C14.6745 2.20947 14.753 2.02795 14.8824 1.87511C15.0115 1.72153 15.18 1.60606 15.3877 1.52869C15.5939 1.45188 15.7976 1.42877 15.9988 1.45935C16.2004 1.4889 16.3833 1.57308 16.5474 1.71188C16.7123 1.85039 16.8434 2.04403 16.9406 2.2928ZM16.4395 2.47942C16.3765 2.31828 16.2987 2.1916 16.2059 2.09937C16.114 2.00687 16.0123 1.9486 15.9009 1.92459C15.7895 1.90057 15.674 1.91081 15.5546 1.9553C15.4351 1.99979 15.342 2.06721 15.2753 2.15755C15.2087 2.24788 15.1722 2.35759 15.166 2.48665C15.1606 2.61544 15.1894 2.76039 15.2524 2.92154C15.3155 3.08268 15.393 3.2095 15.4849 3.30201C15.5777 3.39423 15.6797 3.45233 15.7911 3.47636C15.9025 3.50039 16.018 3.49015 16.1374 3.44564C16.2569 3.40117 16.35 3.33375 16.4166 3.2434C16.4833 3.15306 16.5194 3.0435 16.5248 2.91472C16.531 2.78567 16.5026 2.64057 16.4395 2.47942Z" fill="white"/>
<path d="M18.2218 3.19798L16.9668 0.973077L17.5302 0.847545L18.321 2.41156L18.3412 2.40705L18.3997 0.653806L18.8821 0.546321L19.7142 2.1048L19.7357 2.10002L19.7516 0.352585L20.315 0.227051L20.174 2.76301L19.6713 2.87499L18.8427 1.42216L18.8236 1.42641L18.7244 3.08599L18.2218 3.19798Z" fill="white"/>
<path d="M21.1673 2.61824L20.9355 0.187055L22.6143 0.034668L22.6547 0.458467L21.5027 0.56304L21.5579 1.14235L22.6236 1.04562L22.664 1.46942L21.5983 1.56615L21.6537 2.14664L22.8105 2.04163L22.851 2.46543L21.1673 2.61824Z" fill="white"/>
<path d="M23.2705 2.44154L23.2989 0L24.286 0.0109451C24.475 0.0130402 24.6359 0.0478112 24.7686 0.115258C24.9022 0.18192 25.0035 0.275644 25.0721 0.39643C25.1415 0.516433 25.1754 0.657102 25.1734 0.818443C25.1717 0.980575 25.1341 1.11966 25.061 1.2357C24.9881 1.35094 24.8832 1.4388 24.7463 1.49929C24.6105 1.55978 24.4465 1.58896 24.2543 1.58683L23.5933 1.5795L23.5981 1.16463L24.1736 1.17101C24.2746 1.17213 24.3586 1.15955 24.4257 1.13327C24.4928 1.10698 24.543 1.067 24.5762 1.01332C24.6102 0.959644 24.6277 0.892672 24.6286 0.812401C24.6296 0.731333 24.6137 0.662796 24.5809 0.606794C24.549 0.550799 24.4994 0.508119 24.4321 0.478759C24.3657 0.448609 24.2815 0.432973 24.1797 0.431843L23.823 0.427888L23.7995 2.4474L23.2705 2.44154ZM24.6346 1.34543L25.2435 2.46342L24.6595 2.45694L24.0641 1.3391L24.6346 1.34543Z" fill="white"/>
<path d="M25.5322 2.48713L25.8056 0.0600586L27.4815 0.239834L27.4338 0.662913L26.2838 0.539547L26.2186 1.11787L27.2824 1.23199L27.2347 1.65507L26.171 1.54095L26.1057 2.12046L27.2607 2.24435L27.213 2.66742L25.5322 2.48713Z" fill="white"/>
<path d="M28.4971 2.90959L27.6309 2.72342L28.1691 0.338867L29.0424 0.526569C29.2882 0.579392 29.489 0.672603 29.6448 0.806198C29.8009 0.939021 29.9067 1.10456 29.962 1.30283C30.018 1.50127 30.0183 1.7243 29.9622 1.97192C29.9062 2.22031 29.8098 2.42342 29.6735 2.58126C29.5376 2.73929 29.3694 2.84681 29.1689 2.90382C28.9693 2.96098 28.7453 2.96292 28.4971 2.90959ZM28.2451 2.40249L28.5731 2.47301C28.7258 2.50583 28.8604 2.50705 28.9765 2.47665C29.0936 2.44566 29.1909 2.37991 29.2687 2.27942C29.3472 2.17832 29.4067 2.03889 29.4468 1.86114C29.4865 1.68494 29.4924 1.53522 29.4643 1.41199C29.4371 1.28894 29.3773 1.18981 29.285 1.11464C29.1928 1.03946 29.0703 0.985462 28.9174 0.952638L28.5882 0.881865L28.2451 2.40249Z" fill="white"/>
<path d="M30.8359 3.50791L31.7291 1.22705L32.6647 1.57595C32.8366 1.64007 32.9705 1.71844 33.0658 1.81103C33.1614 1.90362 33.2204 2.00484 33.2439 2.11476C33.2673 2.22395 33.2567 2.33571 33.212 2.45005C33.1769 2.53915 33.128 2.61064 33.065 2.6646C33.0026 2.71783 32.9307 2.75403 32.8499 2.77328C32.7704 2.79206 32.6862 2.79517 32.5977 2.78261L32.5891 2.8049C32.6765 2.84179 32.7504 2.89738 32.8104 2.97161C32.8709 3.04609 32.9097 3.1333 32.9262 3.23313C32.9433 3.33221 32.9297 3.43778 32.886 3.5499C32.8386 3.67092 32.7652 3.76743 32.6667 3.83952C32.5688 3.91112 32.4493 3.95211 32.3085 3.96253C32.1675 3.97291 32.0094 3.94549 31.8345 3.88024L30.8359 3.50791ZM31.4843 3.29791L31.8874 3.44813C32.025 3.49947 32.1354 3.51129 32.2186 3.4836C32.3021 3.4552 32.3606 3.39791 32.3945 3.31176C32.4192 3.24865 32.4253 3.18716 32.413 3.12728C32.4009 3.06738 32.371 3.01293 32.3241 2.96388C32.2776 2.91515 32.2149 2.87599 32.1359 2.84651L31.7217 2.69206L31.4843 3.29791ZM31.8493 2.36574L32.2159 2.50236C32.2836 2.52758 32.348 2.53848 32.4095 2.53505C32.472 2.53114 32.5271 2.51335 32.5743 2.48162C32.6224 2.45018 32.6583 2.40439 32.6817 2.34425C32.7141 2.26184 32.7099 2.18418 32.6696 2.11128C32.6301 2.03869 32.5555 1.98193 32.4458 1.94106L32.0704 1.80109L31.8493 2.36574Z" fill="white"/>
<path d="M33.9679 2.07617L34.4955 2.33939L34.513 3.52908L34.5347 3.53992L35.5333 2.85704L36.0609 3.12024L34.512 4.12037L34.1094 4.88895L33.6416 4.65562L34.0442 3.88704L33.9679 2.07617Z" fill="white"/>
<path d="M0 32.4271L2.85376 31.3433L3.59775 33.3448L3.0413 33.4699L2.58177 32.2336L1.97441 32.4642L2.40423 33.6206L1.88839 33.8164L1.45857 32.6602L0.805452 32.9082L1.26966 34.1569L0.747115 34.437L0 32.4271Z" fill="white"/>
<path d="M1.74736 36.6004C1.60708 36.3265 1.55401 36.0827 1.58815 35.8693C1.62365 35.6586 1.77821 35.4817 2.05184 35.3384L2.90428 34.8924L2.63258 34.3618L3.08641 34.1245L3.3704 34.679L4.12603 34.5616L4.32216 34.9447L3.67887 35.2812L4.11402 36.131L3.66017 36.3683L3.22502 35.5188L2.43178 35.9337C2.36074 35.971 2.3064 36.018 2.26876 36.0748C2.23376 36.1302 2.21813 36.1974 2.22187 36.2763C2.22961 36.3566 2.2614 36.4511 2.31724 36.5603C2.35674 36.6374 2.40408 36.7071 2.45927 36.769C2.51447 36.8312 2.56748 36.8795 2.61828 36.9136L2.17234 37.1469C2.09873 37.0944 2.02412 37.017 1.9485 36.9151C1.87025 36.8143 1.8032 36.7096 1.74736 36.6004Z" fill="white"/>
<path d="M2.58496 38L5.22477 36.1724L5.61902 36.7542L4.62176 37.4445C4.75329 37.448 4.87118 37.4788 4.97546 37.5373C5.08384 37.5965 5.17819 37.6855 5.25856 37.804C5.34059 37.9251 5.38814 38.0482 5.4012 38.1736C5.41424 38.2987 5.39107 38.4184 5.33167 38.5321C5.2764 38.6465 5.18276 38.7495 5.05077 38.8408L3.76018 39.7343L3.36593 39.1525L4.54653 38.3351C4.64674 38.2656 4.70698 38.1878 4.72728 38.1012C4.74758 38.0144 4.72842 37.9278 4.66983 37.8415C4.63132 37.7846 4.58355 37.7433 4.52655 37.7174C4.46952 37.6915 4.40942 37.6823 4.34624 37.6898C4.28306 37.6972 4.22092 37.7221 4.15979 37.7644L2.97921 38.5818L2.58496 38Z" fill="white"/>
<path d="M5.01786 41.337C4.84377 41.1367 4.73342 40.9417 4.68674 40.7519C4.64423 40.5623 4.65902 40.3797 4.7311 40.2041C4.80512 40.0307 4.9278 39.8681 5.09917 39.7158L5.18927 39.6357C5.3673 39.4775 5.5499 39.379 5.73712 39.3402C5.92849 39.3019 6.11416 39.3203 6.29407 39.3957C6.47818 39.4713 6.64944 39.6001 6.80786 39.7825C6.95455 39.9511 7.04957 40.124 7.09287 40.3006C7.14037 40.4778 7.13683 40.6484 7.0823 40.8126C7.03194 40.9768 6.92998 41.1273 6.77645 41.2636L6.5361 41.477L5.5357 40.3265L5.44557 40.4066C5.32319 40.5153 5.25835 40.6268 5.25107 40.7409C5.2438 40.8551 5.2832 40.9616 5.36925 41.0606C5.46509 41.1708 5.56206 41.2302 5.66019 41.2387C5.76054 41.2452 5.86521 41.2001 5.97426 41.1031L6.4026 41.5957C6.26463 41.7183 6.11638 41.7882 5.95784 41.8056C5.80124 41.825 5.6426 41.7944 5.48188 41.7141C5.32314 41.6357 5.16845 41.5101 5.01786 41.337ZM5.82609 40.0686L6.37471 40.6996L6.41808 40.6611C6.4804 40.6056 6.52318 40.5437 6.54645 40.4753C6.57194 40.4046 6.57749 40.334 6.56312 40.2631C6.55069 40.1944 6.51809 40.1295 6.46528 40.0688C6.40858 40.0036 6.34409 39.9613 6.27186 39.9417C6.20187 39.92 6.12955 39.9186 6.05488 39.9372C5.98024 39.9556 5.91286 39.9914 5.85279 40.0449L5.82609 40.0686Z" fill="white"/>
<path d="M6.71628 43.0585L7.88478 41.7284L7.53254 41.4122L7.87188 41.0259L8.64944 41.7239L8.4809 41.9629C8.5793 41.9231 8.68793 41.9144 8.80675 41.9371C8.92758 41.9575 9.04557 42.0194 9.16077 42.1226C9.31363 42.26 9.39279 42.411 9.3983 42.5761C9.40601 42.7433 9.34495 42.9008 9.21511 43.0485C9.18364 43.0843 9.15106 43.1192 9.11737 43.153C9.08786 43.1866 9.05306 43.2194 9.01297 43.2515L8.581 42.8639L8.66066 42.7731C8.69608 42.7328 8.71966 42.6878 8.73145 42.6386C8.74743 42.5888 8.74765 42.5388 8.73211 42.4888C8.7188 42.4408 8.68889 42.396 8.64238 42.3542C8.59585 42.3124 8.54516 42.2891 8.49028 42.2838C8.43542 42.2786 8.38143 42.2883 8.32828 42.3127C8.27713 42.3348 8.23089 42.3694 8.18957 42.4164L7.22469 43.5147L6.71628 43.0585ZM6.35742 42.7363L6.69084 42.3567L8.19945 43.7107L7.86601 44.0903L6.35742 42.7363Z" fill="white"/>
<path d="M9.58133 45.4449C9.36479 45.2929 9.21133 45.1304 9.12093 44.9576C9.03466 44.7839 9.00564 44.6031 9.03389 44.415C9.06454 44.2287 9.14497 44.0409 9.27516 43.8516L9.34362 43.7518C9.47885 43.5551 9.63275 43.4153 9.80528 43.3322C9.98193 43.2484 10.1665 43.2212 10.3591 43.2508C10.5558 43.2795 10.7527 43.363 10.9497 43.5016C11.1322 43.6297 11.2655 43.7745 11.3495 43.9354C11.4376 44.0959 11.4747 44.2623 11.4607 44.4349C11.4509 44.6066 11.3877 44.7772 11.271 44.9471L11.0884 45.2125L9.84403 44.3387L9.77556 44.4382C9.68257 44.5735 9.64611 44.6974 9.66615 44.8098C9.6862 44.9225 9.74975 45.0163 9.8568 45.0914C9.976 45.1752 10.0843 45.2093 10.1815 45.1936C10.2805 45.1757 10.3714 45.1063 10.4542 44.9859L10.987 45.3601C10.8822 45.5125 10.7549 45.6165 10.6051 45.6717C10.4577 45.7287 10.2964 45.7377 10.1213 45.6984C9.94866 45.661 9.76865 45.5765 9.58133 45.4449ZM10.0646 44.0178L10.7471 44.4969L10.78 44.4491C10.8274 44.3802 10.8542 44.3096 10.8605 44.2374C10.8685 44.1628 10.8571 44.0929 10.8263 44.0275C10.7979 43.9638 10.7509 43.9088 10.6852 43.8628C10.6146 43.8133 10.542 43.7877 10.4672 43.7862C10.3942 43.7824 10.3236 43.7984 10.2555 43.8344C10.1874 43.8705 10.1306 43.9217 10.0849 43.9882L10.0646 44.0178Z" fill="white"/>
<path d="M11.9393 46.9154C11.7266 46.8032 11.5874 46.6552 11.5217 46.4719C11.4587 46.29 11.4875 46.0823 11.6082 45.8487L12.3181 44.4751L12.9405 44.8037L12.2799 46.0818C12.2196 46.1985 12.2026 46.2992 12.2289 46.3843C12.2592 46.4679 12.319 46.5331 12.4083 46.5803C12.4713 46.6137 12.5333 46.6293 12.5943 46.6278C12.6593 46.6251 12.7186 46.604 12.7723 46.5646C12.8286 46.5268 12.8753 46.4721 12.9124 46.4005L13.5667 45.1343L14.1851 45.4609L13.3785 47.0216C13.3579 47.0614 13.3507 47.0947 13.3569 47.1219C13.367 47.1475 13.3852 47.1671 13.4115 47.1811C13.4298 47.1908 13.4489 47.199 13.4687 47.2062C13.4898 47.2104 13.5143 47.2117 13.5422 47.2094L13.359 47.5639C13.3125 47.5696 13.2517 47.5612 13.1766 47.5385C13.1027 47.5196 13.0356 47.4943 12.9752 47.4624C12.8675 47.4057 12.791 47.35 12.7456 47.2955C12.7002 47.2413 12.6759 47.1878 12.6729 47.1355C12.6738 47.0821 12.682 47.0273 12.6976 46.9714C12.6374 47.0037 12.5708 47.0258 12.4977 47.038C12.4272 47.0515 12.3464 47.0492 12.2553 47.0316C12.1628 47.0166 12.0574 46.9778 11.9393 46.9154Z" fill="white"/>
<path d="M13.9131 47.8643L14.7219 45.7192L15.0707 45.8538L15.0408 46.0971C15.1223 46.0322 15.2103 45.9924 15.3047 45.9774C15.4001 45.9598 15.4921 45.968 15.5807 46.0021C15.6831 46.0416 15.7595 46.0998 15.8097 46.1769C15.8637 46.2523 15.8907 46.3364 15.8905 46.4292C15.9862 46.3603 16.0794 46.3192 16.17 46.3061C16.2616 46.2901 16.3558 46.3008 16.4527 46.3381C16.6078 46.3978 16.7037 46.4926 16.7404 46.622C16.7782 46.7488 16.766 46.8946 16.7037 47.0598L16.0848 48.7008L15.5616 48.4993L16.1267 47.0008C16.1742 46.875 16.1495 46.7934 16.0526 46.7561C16.0083 46.7389 15.9646 46.7414 15.9215 46.7633C15.8784 46.7852 15.8457 46.8255 15.8236 46.8842L15.2585 48.3827L14.7436 48.1842L15.3087 46.6857C15.3561 46.5598 15.3301 46.4777 15.2304 46.4391C15.1833 46.421 15.1383 46.423 15.0951 46.4449C15.0548 46.4677 15.0235 46.5085 15.0014 46.5672L14.4363 48.0658L13.9131 47.8643Z" fill="white"/>
<path d="M19.9238 49.6429L19.9894 49.1034L20.6113 49.1807L20.8523 47.1967L20.2304 47.1195L20.2954 46.5845L22.2758 46.8302L22.2108 47.3653L21.5889 47.2882L21.3479 49.272L21.9698 49.3494L21.9043 49.8887L19.9238 49.6429Z" fill="white"/>
<path d="M23.6798 50C23.5139 49.9993 23.363 49.9597 23.2271 49.8811C23.0911 49.7998 22.9835 49.6749 22.9043 49.507C22.825 49.3358 22.786 49.1187 22.7871 48.855L22.7873 48.8057C22.7885 48.542 22.8309 48.3221 22.9146 48.146C22.9984 47.9667 23.1101 47.8338 23.2497 47.7475C23.3893 47.6585 23.5436 47.6142 23.7124 47.6149C23.8457 47.6154 23.9597 47.6356 24.0543 47.6749C24.1519 47.7142 24.2302 47.7669 24.2892 47.8331L24.294 46.7236L24.9916 46.7266L24.9776 49.9607L24.4088 49.9582L24.3522 49.6975C24.2866 49.7901 24.2004 49.8644 24.0935 49.9209C23.9866 49.9744 23.8487 50.0007 23.6798 50ZM23.8863 49.5428C23.9988 49.5433 24.0923 49.5017 24.1668 49.4182C24.2441 49.3346 24.2832 49.2122 24.2839 49.0503L24.286 48.5652C24.2867 48.4035 24.2487 48.2806 24.172 48.1963C24.0984 48.1122 24.0052 48.0699 23.8927 48.0694C23.7801 48.0689 23.6851 48.1119 23.6077 48.1985C23.5332 48.2818 23.4957 48.403 23.495 48.5617L23.4929 49.0468C23.4922 49.2085 23.5287 49.3316 23.6024 49.4157C23.6791 49.5 23.7737 49.5423 23.8863 49.5428Z" fill="white"/>
<path d="M27.0309 49.8159C26.7691 49.8475 26.5476 49.8293 26.3663 49.7607C26.1877 49.689 26.0472 49.5734 25.9447 49.4139C25.8451 49.254 25.7816 49.0597 25.7545 48.8308L25.7401 48.7104C25.712 48.4724 25.735 48.2647 25.8093 48.0866C25.8861 47.9055 26.0062 47.7612 26.1697 47.6537C26.3354 47.543 26.5374 47.4734 26.7758 47.4445C26.9963 47.4176 27.191 47.4363 27.3597 47.5002C27.5311 47.5607 27.6682 47.6602 27.7712 47.7985C27.8769 47.9336 27.9418 48.1035 27.966 48.3087L28.0043 48.6298L26.4999 48.8127L26.5142 48.9331C26.5335 49.0965 26.5878 49.2137 26.6767 49.2843C26.7657 49.355 26.8748 49.3823 27.0043 49.3667C27.1485 49.349 27.2517 49.302 27.3142 49.2249C27.3762 49.145 27.3987 49.0321 27.3814 48.8866L28.0256 48.8082C28.0476 48.9925 28.0206 49.1557 27.945 49.2975C27.8722 49.439 27.7576 49.554 27.601 49.6425C27.4474 49.7306 27.2574 49.7883 27.0309 49.8159ZM26.4537 48.4246L27.2787 48.3244L27.2717 48.2664C27.2619 48.1831 27.2357 48.1124 27.193 48.0542C27.1497 47.9933 27.0954 47.9485 27.0292 47.9204C26.9662 47.8918 26.8951 47.8823 26.8155 47.892C26.7303 47.9025 26.6592 47.9321 26.6024 47.9813C26.5451 48.0273 26.5031 48.0868 26.4759 48.1594C26.4488 48.2321 26.4399 48.3087 26.4495 48.3888L26.4537 48.4246Z" fill="white"/>
<path d="M29.0197 49.4674L28.4766 47.2385L29.0288 47.101L29.1422 47.341C29.1864 47.2221 29.2576 47.1258 29.3556 47.052C29.4529 46.9753 29.5749 46.9189 29.7217 46.8823C29.9575 46.8236 30.1588 46.8428 30.326 46.94C30.496 47.0365 30.6096 47.2025 30.6671 47.438L31.0391 48.9644L30.3616 49.1333L30.0247 47.7505C29.9929 47.6196 29.9402 47.5296 29.8671 47.4798C29.7933 47.4273 29.7061 47.4134 29.6053 47.4385C29.5364 47.4557 29.4801 47.4883 29.4369 47.536C29.3936 47.5838 29.365 47.6418 29.3512 47.7102C29.3396 47.7746 29.3433 47.8462 29.3623 47.9248L29.6972 49.2987L29.0197 49.4674Z" fill="white"/>
<path d="M33.3398 48.1946C33.0543 48.3036 32.8087 48.3284 32.603 48.2692C32.4 48.209 32.2441 48.0334 32.1352 47.7421L31.7961 46.8344L31.2431 47.0454L31.0625 46.5623L31.6405 46.3416L31.6133 45.5692L32.0122 45.417L32.2683 46.1018L33.1538 45.764L33.3343 46.2471L32.4489 46.5852L32.7643 47.4299C32.7927 47.5056 32.8325 47.5655 32.8838 47.6098C32.9342 47.6516 32.9984 47.675 33.0765 47.6804C33.1563 47.6819 33.2528 47.661 33.3667 47.6177C33.447 47.5869 33.5208 47.5476 33.5885 47.4993C33.6559 47.4513 33.7093 47.4036 33.7488 47.3565L33.9261 47.8314C33.8661 47.8991 33.7814 47.965 33.6722 48.0292C33.5643 48.0961 33.4534 48.1511 33.3398 48.1946Z" fill="white"/>
<path d="M35.5566 47.1228L34.7312 45.5517L34.064 45.9099L33.8242 45.4537L35.1036 44.7669L36.1689 46.794L35.5566 47.1228ZM34.8895 47.481L34.6539 47.0325L36.5377 46.0213L36.7733 46.4696L34.8895 47.481ZM34.3167 44.696L34.0623 44.2119L34.5491 43.9507L34.8033 44.4348L34.3167 44.696Z" fill="white"/>
<path d="M38.7048 45.2338C38.4536 45.4086 38.221 45.4925 38.0073 45.485C37.7959 45.476 37.6027 45.3432 37.4281 45.0867L36.8832 44.2877L36.3967 44.6268L36.1064 44.2017L36.6153 43.8472L36.4053 43.1041L36.7565 42.8594L37.1678 43.4624L37.947 42.9193L38.237 43.3447L37.4577 43.8877L37.9646 44.631C38.01 44.6977 38.0629 44.7462 38.1234 44.7768C38.1822 44.8049 38.2501 44.8121 38.3272 44.7984C38.405 44.7808 38.4939 44.737 38.5939 44.6673C38.6646 44.6181 38.727 44.5619 38.7811 44.4987C38.8352 44.4355 38.8757 44.3763 38.9029 44.3211L39.1879 44.739C39.1454 44.8193 39.079 44.9039 38.9884 44.9925C38.8994 45.0835 38.8048 45.1641 38.7048 45.2338Z" fill="white"/>
<path d="M40.8185 44.5768C40.7588 44.6305 40.6995 44.6758 40.6407 44.7123C40.5859 44.7494 40.533 44.777 40.4814 44.7952L40.1687 44.439C40.203 44.4283 40.2463 44.4076 40.2984 44.3768C40.3525 44.3482 40.4006 44.3151 40.4429 44.2773C40.5071 44.2195 40.5441 44.1603 40.554 44.0994C40.5639 44.0385 40.5582 43.9755 40.537 43.9106C40.5155 43.8457 40.4903 43.7763 40.4609 43.7024L38.3506 42.6046L38.909 42.1036L40.1783 42.839L40.2016 42.8181L39.6038 41.4807L40.1191 41.0186L40.9393 43.1713C41.0085 43.3536 41.0566 43.5305 41.0843 43.7019C41.112 43.8733 41.1058 44.033 41.0655 44.1812C41.0295 44.3297 40.9472 44.4616 40.8185 44.5768Z" fill="white"/>
<path d="M44.1763 39.8078L41.6562 38.074L42.0561 37.4799L43.2906 38.3292L42.5563 36.7372L42.9764 36.1133L43.7384 37.6481L45.5266 37.8026L45.0766 38.471L43.7821 38.3737L43.9592 38.7892L44.5765 39.2138L44.1763 39.8078Z" fill="white"/>
<path d="M46.2721 36.4302L44.7082 35.6145L44.3619 36.2931L43.9077 36.0563L44.5718 34.7551L46.59 35.8073L46.2721 36.4302ZM45.9259 37.1088L45.4795 36.8759L46.4574 34.9598L46.9037 35.1926L45.9259 37.1088ZM43.8852 35.1501L43.4033 34.8988L43.656 34.4038L44.1379 34.6551L43.8852 35.1501Z" fill="white"/>
<path d="M47.7942 33.0628C47.6865 33.3514 47.5428 33.5541 47.363 33.6713C47.1842 33.7855 46.9507 33.7877 46.6623 33.6778L45.7642 33.3352L45.5557 33.8942L45.0776 33.7118L45.2956 33.1275L44.7041 32.638L44.8548 32.2345L45.5325 32.4929L45.8664 31.5977L46.3446 31.7802L46.0104 32.6753L46.8463 32.9939C46.9211 33.0225 46.992 33.032 47.0589 33.0223C47.1232 33.0116 47.1829 32.9785 47.2385 32.9228C47.2926 32.8633 47.3408 32.7763 47.3837 32.6613C47.4141 32.58 47.4336 32.4979 47.4425 32.4148C47.4514 32.3317 47.4512 32.2598 47.4423 32.1987L47.9123 32.378C47.9227 32.4683 47.9158 32.5763 47.8913 32.7011C47.8696 32.8273 47.8372 32.9479 47.7942 33.0628Z" fill="white"/>
<path d="M44.7058 24.3779C44.7058 12.8377 35.4168 3.48242 23.9584 3.48242C12.4999 3.48242 3.21094 12.8377 3.21094 24.3779C3.21094 35.9182 12.4999 45.2735 23.9584 45.2735C35.4168 45.2735 44.7058 35.9182 44.7058 24.3779Z" fill="white"/>
<mask id="mask0_669_8041" style="mask-type:luminance" maskUnits="userSpaceOnUse" x="9" y="15" width="30" height="18">
<path d="M38.2376 15.7739H9.71973V32.982H38.2376V15.7739Z" fill="white"/>
</mask>
<g mask="url(#mask0_669_8041)">
<path d="M9.71973 24.5714L14.5929 16.4341L19.4306 24.5714L14.5929 27.5336L9.71973 24.5714Z" fill="#666666"/>
<path d="M14.5929 28.4261L9.71973 25.4639L14.5929 32.3519L19.4306 25.4639L14.5929 28.4261Z" fill="#666666"/>
<path d="M22.124 29.3505V27.6028H24.1461V21.1756H22.124V19.4424H28.5631V21.1756H26.541V27.6028H28.5631V29.3505H22.124ZM30.4074 29.3505V19.4424H34.1646C34.7288 19.4424 35.2499 19.5194 35.7279 19.6735C36.2154 19.8275 36.6361 20.0586 36.99 20.3667C37.3437 20.6749 37.6208 21.06 37.8216 21.5222C38.0224 21.9748 38.1227 22.4995 38.1227 23.0965V25.6963C38.1227 26.2836 38.0224 26.8085 37.8216 27.2707C37.6208 27.7232 37.3437 28.1035 36.99 28.4117C36.6361 28.7197 36.2154 28.9555 35.7279 29.1194C35.2499 29.2734 34.7288 29.3505 34.1646 29.3505H30.4074ZM32.8168 27.5018H33.9641C34.3178 27.5018 34.6236 27.4488 34.8817 27.3428C35.14 27.2369 35.3359 27.0635 35.4698 26.8229C35.6133 26.5821 35.6849 26.25 35.6849 25.8262V22.9521C35.6849 22.5284 35.6133 22.1962 35.4698 21.9555C35.3359 21.7051 35.14 21.527 34.8817 21.4211C34.6236 21.3152 34.3178 21.2622 33.9641 21.2622H32.8168V27.5018Z" fill="#666666"/>
</g>
</g>
<defs>
<clipPath id="clip0_669_8041">
<rect width="47.9167" height="50" fill="white"/>
</clipPath>
</defs>
</svg>
