<svg width="82" height="82" viewBox="0 0 82 82" fill="none" xmlns="http://www.w3.org/2000/svg">
<rect width="82" height="82" rx="20" fill="url(#paint0_linear_3577_6930)"/>
<rect width="82" height="82" rx="20" fill="white" fill-opacity="0.5"/>
<path d="M26.8574 41.4091L40.8999 18.0391L54.8399 41.4091L40.8999 49.9166L26.8574 41.4091Z" fill="url(#paint1_linear_3577_6930)"/>
<path d="M26.8574 41.4091L40.8999 18.0391L54.8399 41.4091L40.8999 49.9166L26.8574 41.4091Z" fill="#333333"/>
<path d="M40.8999 52.4791L26.8574 43.9716L40.8999 63.7541L54.8399 43.9716L40.8999 52.4791Z" fill="url(#paint2_linear_3577_6930)"/>
<path d="M40.8999 52.4791L26.8574 43.9716L40.8999 63.7541L54.8399 43.9716L40.8999 52.4791Z" fill="#333333"/>
<path d="M58.8374 54.7341H54.8399V60.6791H49.3049V64.3691H54.8399V70.5191H58.8374V64.3691H64.2699V60.6791H58.8374V54.7341Z" fill="url(#paint3_linear_3577_6930)"/>
<path d="M58.8374 54.7341H54.8399V60.6791H49.3049V64.3691H54.8399V70.5191H58.8374V64.3691H64.2699V60.6791H58.8374V54.7341Z" fill="#333333"/>
<defs>
<linearGradient id="paint0_linear_3577_6930" x1="41" y1="0" x2="41" y2="82" gradientUnits="userSpaceOnUse">
<stop stop-color="#FFF500"/>
<stop offset="1" stop-color="#FF79C9"/>
</linearGradient>
<linearGradient id="paint1_linear_3577_6930" x1="45.5637" y1="18.0391" x2="45.5637" y2="70.5191" gradientUnits="userSpaceOnUse">
<stop stop-color="#FFF500"/>
<stop offset="1" stop-color="#FF79C9"/>
</linearGradient>
<linearGradient id="paint2_linear_3577_6930" x1="45.5637" y1="18.0391" x2="45.5637" y2="70.5191" gradientUnits="userSpaceOnUse">
<stop stop-color="#FFF500"/>
<stop offset="1" stop-color="#FF79C9"/>
</linearGradient>
<linearGradient id="paint3_linear_3577_6930" x1="45.5637" y1="18.0391" x2="45.5637" y2="70.5191" gradientUnits="userSpaceOnUse">
<stop stop-color="#FFF500"/>
<stop offset="1" stop-color="#FF79C9"/>
</linearGradient>
</defs>
</svg>
