<svg width="873" height="400" viewBox="0 0 873 400" fill="none" xmlns="http://www.w3.org/2000/svg">
<path d="M494.053 106.574V118H456.211V106.574H494.053ZM460.996 46.9062V118H446.348V46.9062H460.996ZM489.121 75.8613V86.9941H456.211V75.8613H489.121ZM494.004 46.9062V58.3809H456.211V46.9062H494.004ZM527.598 65.168V75.1289H496.836V65.168H527.598ZM504.453 52.1309H518.516V102.082C518.516 103.612 518.711 104.784 519.102 105.598C519.525 106.411 520.143 106.981 520.957 107.307C521.771 107.6 522.796 107.746 524.033 107.746C524.912 107.746 525.693 107.714 526.377 107.648C527.093 107.551 527.695 107.453 528.184 107.355L528.232 117.707C527.028 118.098 525.726 118.407 524.326 118.635C522.926 118.863 521.38 118.977 519.688 118.977C516.595 118.977 513.893 118.472 511.582 117.463C509.303 116.421 507.546 114.761 506.309 112.482C505.072 110.204 504.453 107.209 504.453 103.498V52.1309ZM549.326 43V118H535.264V43H549.326ZM547.324 89.7285H543.467C543.499 86.0501 543.988 82.6647 544.932 79.5723C545.876 76.4473 547.227 73.7454 548.984 71.4668C550.742 69.1556 552.842 67.3652 555.283 66.0957C557.757 64.8262 560.492 64.1914 563.486 64.1914C566.09 64.1914 568.451 64.5658 570.566 65.3145C572.715 66.0306 574.554 67.2025 576.084 68.8301C577.646 70.4251 578.851 72.5247 579.697 75.1289C580.544 77.7331 580.967 80.8906 580.967 84.6016V118H566.807V84.5039C566.807 82.1602 566.465 80.321 565.781 78.9863C565.13 77.6191 564.17 76.6589 562.9 76.1055C561.663 75.5195 560.133 75.2266 558.311 75.2266C556.292 75.2266 554.567 75.6009 553.135 76.3496C551.735 77.0983 550.612 78.14 549.766 79.4746C548.919 80.7767 548.301 82.3066 547.91 84.0645C547.52 85.8223 547.324 87.7103 547.324 89.7285ZM615.977 118.977C611.875 118.977 608.197 118.326 604.941 117.023C601.686 115.689 598.919 113.85 596.641 111.506C594.395 109.162 592.669 106.444 591.465 103.352C590.26 100.227 589.658 96.9062 589.658 93.3906V91.4375C589.658 87.4336 590.228 83.7715 591.367 80.4512C592.507 77.1309 594.134 74.25 596.25 71.8086C598.398 69.3672 601.003 67.4954 604.062 66.1934C607.122 64.8587 610.573 64.1914 614.414 64.1914C618.158 64.1914 621.478 64.8099 624.375 66.0469C627.272 67.2839 629.697 69.0417 631.65 71.3203C633.636 73.599 635.133 76.3333 636.143 79.5234C637.152 82.681 637.656 86.1966 637.656 90.0703V95.9297H595.664V86.5547H623.838V85.4805C623.838 83.5273 623.48 81.7858 622.764 80.2559C622.08 78.6934 621.038 77.4564 619.639 76.5449C618.239 75.6335 616.449 75.1777 614.268 75.1777C612.412 75.1777 610.817 75.5846 609.482 76.3984C608.148 77.2122 607.057 78.3516 606.211 79.8164C605.397 81.2812 604.779 83.0065 604.355 84.9922C603.965 86.9453 603.77 89.0938 603.77 91.4375V93.3906C603.77 95.5065 604.062 97.4596 604.648 99.25C605.267 101.04 606.13 102.587 607.236 103.889C608.376 105.191 609.743 106.2 611.338 106.916C612.965 107.632 614.805 107.99 616.855 107.99C619.395 107.99 621.755 107.502 623.936 106.525C626.149 105.516 628.053 104.003 629.648 101.984L636.484 109.406C635.378 111.001 633.864 112.531 631.943 113.996C630.055 115.461 627.777 116.665 625.107 117.609C622.438 118.521 619.395 118.977 615.977 118.977ZM659.727 76.6914V118H645.664V65.168H658.896L659.727 76.6914ZM675.645 64.8262L675.4 77.8633C674.717 77.7656 673.887 77.6842 672.91 77.6191C671.966 77.5215 671.104 77.4727 670.322 77.4727C668.337 77.4727 666.611 77.7331 665.146 78.2539C663.714 78.7422 662.51 79.4746 661.533 80.4512C660.589 81.4277 659.873 82.6159 659.385 84.0156C658.929 85.4154 658.669 87.0104 658.604 88.8008L655.771 87.9219C655.771 84.5039 656.113 81.3626 656.797 78.498C657.48 75.6009 658.473 73.0781 659.775 70.9297C661.11 68.7812 662.738 67.1211 664.658 65.9492C666.579 64.7773 668.776 64.1914 671.25 64.1914C672.031 64.1914 672.829 64.2565 673.643 64.3867C674.456 64.4844 675.124 64.6309 675.645 64.8262ZM705.625 118.977C701.523 118.977 697.845 118.326 694.59 117.023C691.335 115.689 688.568 113.85 686.289 111.506C684.043 109.162 682.318 106.444 681.113 103.352C679.909 100.227 679.307 96.9062 679.307 93.3906V91.4375C679.307 87.4336 679.876 83.7715 681.016 80.4512C682.155 77.1309 683.783 74.25 685.898 71.8086C688.047 69.3672 690.651 67.4954 693.711 66.1934C696.771 64.8587 700.221 64.1914 704.062 64.1914C707.806 64.1914 711.126 64.8099 714.023 66.0469C716.921 67.2839 719.346 69.0417 721.299 71.3203C723.285 73.599 724.782 76.3333 725.791 79.5234C726.8 82.681 727.305 86.1966 727.305 90.0703V95.9297H685.312V86.5547H713.486V85.4805C713.486 83.5273 713.128 81.7858 712.412 80.2559C711.729 78.6934 710.687 77.4564 709.287 76.5449C707.887 75.6335 706.097 75.1777 703.916 75.1777C702.061 75.1777 700.465 75.5846 699.131 76.3984C697.796 77.2122 696.706 78.3516 695.859 79.8164C695.046 81.2812 694.427 83.0065 694.004 84.9922C693.613 86.9453 693.418 89.0938 693.418 91.4375V93.3906C693.418 95.5065 693.711 97.4596 694.297 99.25C694.915 101.04 695.778 102.587 696.885 103.889C698.024 105.191 699.391 106.2 700.986 106.916C702.614 107.632 704.453 107.99 706.504 107.99C709.043 107.99 711.403 107.502 713.584 106.525C715.798 105.516 717.702 104.003 719.297 101.984L726.133 109.406C725.026 111.001 723.512 112.531 721.592 113.996C719.704 115.461 717.425 116.665 714.756 117.609C712.087 118.521 709.043 118.977 705.625 118.977ZM766.562 105.354V65.168H780.625V118H767.393L766.562 105.354ZM768.125 94.5137L772.275 94.416C772.275 97.9316 771.868 101.203 771.055 104.23C770.241 107.225 769.02 109.829 767.393 112.043C765.765 114.224 763.714 115.933 761.24 117.17C758.766 118.374 755.853 118.977 752.5 118.977C749.928 118.977 747.552 118.618 745.371 117.902C743.223 117.154 741.367 115.998 739.805 114.436C738.275 112.84 737.07 110.806 736.191 108.332C735.345 105.826 734.922 102.814 734.922 99.2988V65.168H748.984V99.3965C748.984 100.959 749.163 102.277 749.521 103.352C749.912 104.426 750.449 105.305 751.133 105.988C751.816 106.672 752.614 107.16 753.525 107.453C754.469 107.746 755.511 107.893 756.65 107.893C759.548 107.893 761.826 107.307 763.486 106.135C765.179 104.963 766.367 103.368 767.051 101.35C767.767 99.2988 768.125 97.0202 768.125 94.5137ZM805.43 76.1055V118H791.318V65.168H804.551L805.43 76.1055ZM803.477 89.7285H799.57C799.57 86.0501 800.01 82.6647 800.889 79.5723C801.8 76.4473 803.118 73.7454 804.844 71.4668C806.602 69.1556 808.766 67.3652 811.338 66.0957C813.91 64.8262 816.888 64.1914 820.273 64.1914C822.617 64.1914 824.766 64.5495 826.719 65.2656C828.672 65.9492 830.348 67.0397 831.748 68.5371C833.18 70.002 834.287 71.9225 835.068 74.2988C835.85 76.6426 836.24 79.4583 836.24 82.7461V118H822.178V84.3086C822.178 81.8997 821.852 80.0443 821.201 78.7422C820.55 77.4401 819.622 76.5286 818.418 76.0078C817.246 75.487 815.83 75.2266 814.17 75.2266C812.347 75.2266 810.752 75.6009 809.385 76.3496C808.05 77.0983 806.943 78.14 806.064 79.4746C805.186 80.7767 804.535 82.3066 804.111 84.0645C803.688 85.8223 803.477 87.7103 803.477 89.7285ZM834.922 88.1172L829.893 88.752C829.893 85.3014 830.316 82.0951 831.162 79.1328C832.041 76.1706 833.327 73.5664 835.02 71.3203C836.745 69.0742 838.877 67.3327 841.416 66.0957C843.955 64.8262 846.885 64.1914 850.205 64.1914C852.744 64.1914 855.055 64.5658 857.139 65.3145C859.222 66.0306 860.996 67.1862 862.461 68.7812C863.958 70.3438 865.098 72.3945 865.879 74.9336C866.693 77.4727 867.1 80.5814 867.1 84.2598V118H852.988V84.2598C852.988 81.8184 852.663 79.9629 852.012 78.6934C851.393 77.3913 850.482 76.4961 849.277 76.0078C848.105 75.487 846.706 75.2266 845.078 75.2266C843.385 75.2266 841.904 75.5684 840.635 76.252C839.365 76.903 838.307 77.8145 837.461 78.9863C836.615 80.1582 835.98 81.5254 835.557 83.0879C835.133 84.6178 834.922 86.2943 834.922 88.1172ZM460.996 163.906V235H446.348V163.906H460.996ZM489.316 194.277V205.703H456.992V194.277H489.316ZM492.734 163.906V175.381H456.992V163.906H492.734ZM497.031 209.121V208.096C497.031 204.222 497.585 200.658 498.691 197.402C499.798 194.115 501.41 191.266 503.525 188.857C505.641 186.449 508.245 184.577 511.338 183.242C514.43 181.875 517.979 181.191 521.982 181.191C525.986 181.191 529.551 181.875 532.676 183.242C535.801 184.577 538.421 186.449 540.537 188.857C542.686 191.266 544.313 194.115 545.42 197.402C546.527 200.658 547.08 204.222 547.08 208.096V209.121C547.08 212.962 546.527 216.527 545.42 219.814C544.313 223.07 542.686 225.918 540.537 228.359C538.421 230.768 535.817 232.64 532.725 233.975C529.632 235.309 526.084 235.977 522.08 235.977C518.076 235.977 514.512 235.309 511.387 233.975C508.294 232.64 505.674 230.768 503.525 228.359C501.41 225.918 499.798 223.07 498.691 219.814C497.585 216.527 497.031 212.962 497.031 209.121ZM511.094 208.096V209.121C511.094 211.335 511.289 213.402 511.68 215.322C512.07 217.243 512.689 218.936 513.535 220.4C514.414 221.833 515.553 222.956 516.953 223.77C518.353 224.583 520.062 224.99 522.08 224.99C524.033 224.99 525.71 224.583 527.109 223.77C528.509 222.956 529.632 221.833 530.479 220.4C531.325 218.936 531.943 217.243 532.334 215.322C532.757 213.402 532.969 211.335 532.969 209.121V208.096C532.969 205.947 532.757 203.929 532.334 202.041C531.943 200.12 531.309 198.428 530.43 196.963C529.583 195.465 528.46 194.294 527.061 193.447C525.661 192.601 523.968 192.178 521.982 192.178C519.997 192.178 518.304 192.601 516.904 193.447C515.537 194.294 514.414 195.465 513.535 196.963C512.689 198.428 512.07 200.12 511.68 202.041C511.289 203.929 511.094 205.947 511.094 208.096ZM570.566 160V235H556.455V160H570.566ZM597.031 160V235H582.92V160H597.031ZM606.406 209.121V208.096C606.406 204.222 606.96 200.658 608.066 197.402C609.173 194.115 610.785 191.266 612.9 188.857C615.016 186.449 617.62 184.577 620.713 183.242C623.805 181.875 627.354 181.191 631.357 181.191C635.361 181.191 638.926 181.875 642.051 183.242C645.176 184.577 647.796 186.449 649.912 188.857C652.061 191.266 653.688 194.115 654.795 197.402C655.902 200.658 656.455 204.222 656.455 208.096V209.121C656.455 212.962 655.902 216.527 654.795 219.814C653.688 223.07 652.061 225.918 649.912 228.359C647.796 230.768 645.192 232.64 642.1 233.975C639.007 235.309 635.459 235.977 631.455 235.977C627.451 235.977 623.887 235.309 620.762 233.975C617.669 232.64 615.049 230.768 612.9 228.359C610.785 225.918 609.173 223.07 608.066 219.814C606.96 216.527 606.406 212.962 606.406 209.121ZM620.469 208.096V209.121C620.469 211.335 620.664 213.402 621.055 215.322C621.445 217.243 622.064 218.936 622.91 220.4C623.789 221.833 624.928 222.956 626.328 223.77C627.728 224.583 629.437 224.99 631.455 224.99C633.408 224.99 635.085 224.583 636.484 223.77C637.884 222.956 639.007 221.833 639.854 220.4C640.7 218.936 641.318 217.243 641.709 215.322C642.132 213.402 642.344 211.335 642.344 209.121V208.096C642.344 205.947 642.132 203.929 641.709 202.041C641.318 200.12 640.684 198.428 639.805 196.963C638.958 195.465 637.835 194.294 636.436 193.447C635.036 192.601 633.343 192.178 631.357 192.178C629.372 192.178 627.679 192.601 626.279 193.447C624.912 194.294 623.789 195.465 622.91 196.963C622.064 198.428 621.445 200.12 621.055 202.041C620.664 203.929 620.469 205.947 620.469 208.096ZM680.186 221.328L691.172 182.168H700.107L697.227 197.549L686.24 235H678.77L680.186 221.328ZM674.619 182.168L682.48 221.279L683.213 235H674.424L661.045 182.168H674.619ZM710.166 220.645L717.832 182.168H731.455L718.076 235H709.336L710.166 220.645ZM701.328 182.168L712.266 221.035L713.779 235H706.26L695.273 197.598L692.49 182.168H701.328ZM474.033 326.658H455.918V315.232H474.033C476.833 315.232 479.111 314.777 480.869 313.865C482.627 312.921 483.913 311.619 484.727 309.959C485.54 308.299 485.947 306.427 485.947 304.344C485.947 302.228 485.54 300.258 484.727 298.436C483.913 296.613 482.627 295.148 480.869 294.041C479.111 292.934 476.833 292.381 474.033 292.381H460.996V352H446.348V280.906H474.033C479.6 280.906 484.368 281.915 488.34 283.934C492.344 285.919 495.404 288.67 497.52 292.186C499.635 295.701 500.693 299.721 500.693 304.246C500.693 308.836 499.635 312.807 497.52 316.16C495.404 319.513 492.344 322.101 488.34 323.924C484.368 325.747 479.6 326.658 474.033 326.658ZM523.984 310.691V352H509.922V299.168H523.154L523.984 310.691ZM539.902 298.826L539.658 311.863C538.975 311.766 538.145 311.684 537.168 311.619C536.224 311.521 535.361 311.473 534.58 311.473C532.594 311.473 530.869 311.733 529.404 312.254C527.972 312.742 526.768 313.475 525.791 314.451C524.847 315.428 524.131 316.616 523.643 318.016C523.187 319.415 522.926 321.01 522.861 322.801L520.029 321.922C520.029 318.504 520.371 315.363 521.055 312.498C521.738 309.601 522.731 307.078 524.033 304.93C525.368 302.781 526.995 301.121 528.916 299.949C530.837 298.777 533.034 298.191 535.508 298.191C536.289 298.191 537.087 298.257 537.9 298.387C538.714 298.484 539.382 298.631 539.902 298.826ZM542.832 326.121V325.096C542.832 321.222 543.385 317.658 544.492 314.402C545.599 311.115 547.21 308.266 549.326 305.857C551.442 303.449 554.046 301.577 557.139 300.242C560.231 298.875 563.779 298.191 567.783 298.191C571.787 298.191 575.352 298.875 578.477 300.242C581.602 301.577 584.222 303.449 586.338 305.857C588.486 308.266 590.114 311.115 591.221 314.402C592.327 317.658 592.881 321.222 592.881 325.096V326.121C592.881 329.962 592.327 333.527 591.221 336.814C590.114 340.07 588.486 342.918 586.338 345.359C584.222 347.768 581.618 349.64 578.525 350.975C575.433 352.309 571.885 352.977 567.881 352.977C563.877 352.977 560.312 352.309 557.188 350.975C554.095 349.64 551.475 347.768 549.326 345.359C547.21 342.918 545.599 340.07 544.492 336.814C543.385 333.527 542.832 329.962 542.832 326.121ZM556.895 325.096V326.121C556.895 328.335 557.09 330.402 557.48 332.322C557.871 334.243 558.49 335.936 559.336 337.4C560.215 338.833 561.354 339.956 562.754 340.77C564.154 341.583 565.863 341.99 567.881 341.99C569.834 341.99 571.51 341.583 572.91 340.77C574.31 339.956 575.433 338.833 576.279 337.4C577.126 335.936 577.744 334.243 578.135 332.322C578.558 330.402 578.77 328.335 578.77 326.121V325.096C578.77 322.947 578.558 320.929 578.135 319.041C577.744 317.12 577.109 315.428 576.23 313.963C575.384 312.465 574.261 311.294 572.861 310.447C571.462 309.601 569.769 309.178 567.783 309.178C565.798 309.178 564.105 309.601 562.705 310.447C561.338 311.294 560.215 312.465 559.336 313.963C558.49 315.428 557.871 317.12 557.48 319.041C557.09 320.929 556.895 322.947 556.895 325.096ZM627.402 299.168V309.129H596.641V299.168H627.402ZM604.258 286.131H618.32V336.082C618.32 337.612 618.516 338.784 618.906 339.598C619.329 340.411 619.948 340.981 620.762 341.307C621.576 341.6 622.601 341.746 623.838 341.746C624.717 341.746 625.498 341.714 626.182 341.648C626.898 341.551 627.5 341.453 627.988 341.355L628.037 351.707C626.833 352.098 625.531 352.407 624.131 352.635C622.731 352.863 621.185 352.977 619.492 352.977C616.4 352.977 613.698 352.472 611.387 351.463C609.108 350.421 607.35 348.761 606.113 346.482C604.876 344.204 604.258 341.209 604.258 337.498V286.131ZM631.895 326.121V325.096C631.895 321.222 632.448 317.658 633.555 314.402C634.661 311.115 636.273 308.266 638.389 305.857C640.505 303.449 643.109 301.577 646.201 300.242C649.294 298.875 652.842 298.191 656.846 298.191C660.85 298.191 664.414 298.875 667.539 300.242C670.664 301.577 673.285 303.449 675.4 305.857C677.549 308.266 679.176 311.115 680.283 314.402C681.39 317.658 681.943 321.222 681.943 325.096V326.121C681.943 329.962 681.39 333.527 680.283 336.814C679.176 340.07 677.549 342.918 675.4 345.359C673.285 347.768 670.68 349.64 667.588 350.975C664.495 352.309 660.947 352.977 656.943 352.977C652.939 352.977 649.375 352.309 646.25 350.975C643.158 349.64 640.537 347.768 638.389 345.359C636.273 342.918 634.661 340.07 633.555 336.814C632.448 333.527 631.895 329.962 631.895 326.121ZM645.957 325.096V326.121C645.957 328.335 646.152 330.402 646.543 332.322C646.934 334.243 647.552 335.936 648.398 337.4C649.277 338.833 650.417 339.956 651.816 340.77C653.216 341.583 654.925 341.99 656.943 341.99C658.896 341.99 660.573 341.583 661.973 340.77C663.372 339.956 664.495 338.833 665.342 337.4C666.188 335.936 666.807 334.243 667.197 332.322C667.62 330.402 667.832 328.335 667.832 326.121V325.096C667.832 322.947 667.62 320.929 667.197 319.041C666.807 317.12 666.172 315.428 665.293 313.963C664.447 312.465 663.324 311.294 661.924 310.447C660.524 309.601 658.831 309.178 656.846 309.178C654.86 309.178 653.167 309.601 651.768 310.447C650.4 311.294 649.277 312.465 648.398 313.963C647.552 315.428 646.934 317.12 646.543 319.041C646.152 320.929 645.957 322.947 645.957 325.096ZM712.412 341.99C714.137 341.99 715.667 341.665 717.002 341.014C718.337 340.33 719.378 339.386 720.127 338.182C720.908 336.945 721.315 335.496 721.348 333.836H734.58C734.548 337.547 733.555 340.851 731.602 343.748C729.648 346.613 727.028 348.875 723.74 350.535C720.452 352.163 716.774 352.977 712.705 352.977C708.604 352.977 705.023 352.293 701.963 350.926C698.936 349.559 696.413 347.671 694.395 345.262C692.376 342.82 690.863 339.988 689.854 336.766C688.844 333.51 688.34 330.027 688.34 326.316V324.9C688.34 321.157 688.844 317.674 689.854 314.451C690.863 311.196 692.376 308.364 694.395 305.955C696.413 303.514 698.936 301.609 701.963 300.242C704.99 298.875 708.538 298.191 712.607 298.191C716.937 298.191 720.729 299.021 723.984 300.682C727.272 302.342 729.844 304.718 731.699 307.811C733.587 310.87 734.548 314.5 734.58 318.699H721.348C721.315 316.941 720.941 315.346 720.225 313.914C719.541 312.482 718.532 311.342 717.197 310.496C715.895 309.617 714.284 309.178 712.363 309.178C710.312 309.178 708.636 309.617 707.334 310.496C706.032 311.342 705.023 312.514 704.307 314.012C703.59 315.477 703.086 317.153 702.793 319.041C702.533 320.896 702.402 322.85 702.402 324.9V326.316C702.402 328.367 702.533 330.337 702.793 332.225C703.053 334.113 703.542 335.789 704.258 337.254C705.007 338.719 706.032 339.874 707.334 340.721C708.636 341.567 710.329 341.99 712.412 341.99ZM740.488 326.121V325.096C740.488 321.222 741.042 317.658 742.148 314.402C743.255 311.115 744.867 308.266 746.982 305.857C749.098 303.449 751.702 301.577 754.795 300.242C757.887 298.875 761.436 298.191 765.439 298.191C769.443 298.191 773.008 298.875 776.133 300.242C779.258 301.577 781.878 303.449 783.994 305.857C786.143 308.266 787.77 311.115 788.877 314.402C789.984 317.658 790.537 321.222 790.537 325.096V326.121C790.537 329.962 789.984 333.527 788.877 336.814C787.77 340.07 786.143 342.918 783.994 345.359C781.878 347.768 779.274 349.64 776.182 350.975C773.089 352.309 769.541 352.977 765.537 352.977C761.533 352.977 757.969 352.309 754.844 350.975C751.751 349.64 749.131 347.768 746.982 345.359C744.867 342.918 743.255 340.07 742.148 336.814C741.042 333.527 740.488 329.962 740.488 326.121ZM754.551 325.096V326.121C754.551 328.335 754.746 330.402 755.137 332.322C755.527 334.243 756.146 335.936 756.992 337.4C757.871 338.833 759.01 339.956 760.41 340.77C761.81 341.583 763.519 341.99 765.537 341.99C767.49 341.99 769.167 341.583 770.566 340.77C771.966 339.956 773.089 338.833 773.936 337.4C774.782 335.936 775.4 334.243 775.791 332.322C776.214 330.402 776.426 328.335 776.426 326.121V325.096C776.426 322.947 776.214 320.929 775.791 319.041C775.4 317.12 774.766 315.428 773.887 313.963C773.04 312.465 771.917 311.294 770.518 310.447C769.118 309.601 767.425 309.178 765.439 309.178C763.454 309.178 761.761 309.601 760.361 310.447C758.994 311.294 757.871 312.465 756.992 313.963C756.146 315.428 755.527 317.12 755.137 319.041C754.746 320.929 754.551 322.947 754.551 325.096ZM814.023 277V352H799.912V277H814.023Z" fill="#333333"/>
<rect width="400" height="400" rx="75" fill="url(#paint0_linear_656_2)"/>
<rect width="400" height="400" rx="75" fill="white" fill-opacity="0.5"/>
<path d="M131 202L199.5 88L267.5 202L199.5 243.5L131 202Z" fill="url(#paint1_linear_656_2)"/>
<path d="M131 202L199.5 88L267.5 202L199.5 243.5L131 202Z" fill="#333333"/>
<path d="M199.5 256L131 214.5L199.5 311L267.5 214.5L199.5 256Z" fill="url(#paint2_linear_656_2)"/>
<path d="M199.5 256L131 214.5L199.5 311L267.5 214.5L199.5 256Z" fill="#333333"/>
<path d="M287 267H267.5V296H240.5V314H267.5V344H287V314H313.5V296H287V267Z" fill="url(#paint3_linear_656_2)"/>
<path d="M287 267H267.5V296H240.5V314H267.5V344H287V314H313.5V296H287V267Z" fill="#333333"/>
<defs>
<linearGradient id="paint0_linear_656_2" x1="200" y1="0" x2="200" y2="400" gradientUnits="userSpaceOnUse">
<stop stop-color="#FFF500"/>
<stop offset="1" stop-color="#FF79C9"/>
</linearGradient>
<linearGradient id="paint1_linear_656_2" x1="222.25" y1="88" x2="222.25" y2="344" gradientUnits="userSpaceOnUse">
<stop stop-color="#FFF500"/>
<stop offset="1" stop-color="#FF79C9"/>
</linearGradient>
<linearGradient id="paint2_linear_656_2" x1="222.25" y1="88" x2="222.25" y2="344" gradientUnits="userSpaceOnUse">
<stop stop-color="#FFF500"/>
<stop offset="1" stop-color="#FF79C9"/>
</linearGradient>
<linearGradient id="paint3_linear_656_2" x1="222.25" y1="88" x2="222.25" y2="344" gradientUnits="userSpaceOnUse">
<stop stop-color="#FFF500"/>
<stop offset="1" stop-color="#FF79C9"/>
</linearGradient>
</defs>
</svg>
