<svg width="106" height="107" viewBox="0 0 106 107" fill="none" xmlns="http://www.w3.org/2000/svg">
<path d="M98.4431 55.1018L96.5165 73.2119C94.9494 85.6607 84.3627 95 71.8132 95H69.6681L55.82 93.1286C52.5989 92.6933 49.3308 92.7437 46.1247 93.2781L35.7503 95.0071L29.2612 95.2309C17.692 95.6298 7.57779 87.5009 5.47297 76.1253L3.08079 56.1905C2.71751 53.1631 2.86022 50.0964 3.50308 47.1159L7.93993 26.5451C10.982 13.4041 23.9331 5.07106 37.1548 7.75115L42.1597 8.76564C46.3392 9.61285 50.6447 9.6292 54.8305 8.81377L61.316 7.55036C74.9945 4.88573 88.5039 12.874 92.7603 26.1437L93.0964 27.1916L97.7427 45.3896C98.552 48.5596 98.7892 51.8485 98.4431 55.1018Z" fill="#FF7518" stroke="#FF9146" stroke-width="5" stroke-linejoin="round"/>
<g filter="url(#filter0_i_880_3)">
<path d="M48.5366 11.4468C49.3753 10.9042 50.4857 11.0635 51.1379 11.8201L62.2732 24.737C62.4232 24.911 62.6021 25.0579 62.802 25.1712L75.6291 32.4398C76.6397 33.0125 76.9515 34.3228 76.3071 35.2893L72.6224 40.8164C72.0046 41.743 72.2627 42.9957 73.1965 43.6027L80.7384 48.505C81.2223 48.8195 81.5467 49.3277 81.6284 49.8991L82.9228 58.96C82.9733 59.3135 82.9282 59.6741 82.7922 60.0043L79.9276 66.9614C79.662 67.6064 79.7517 68.3432 80.1642 68.9056L84.2456 74.4712C84.7057 75.0986 84.7602 75.936 84.3852 76.6178L79.5928 85.3313C79.5311 85.4435 79.4587 85.5495 79.3768 85.6478L75.0997 90.7803C74.7197 91.2363 74.1568 91.4999 73.5633 91.4999L63.3797 91.4999C62.8191 91.4999 62.2842 91.2646 61.9054 90.8514L58.1385 86.742C57.4807 86.0243 56.4016 85.8846 55.5827 86.4111L51.0601 89.3184C50.4123 89.7349 49.5828 89.7423 48.9276 89.3376L33.5755 79.8554C33.2022 79.6249 32.9151 79.278 32.7584 78.8681L26.7021 63.0286C26.5699 62.683 26.3445 62.3808 26.0508 62.1557L13.5638 52.5822C12.5216 51.7832 12.5193 50.2136 13.5591 49.4115L28.4498 37.9242C28.8062 37.6494 29.0594 37.2623 29.1685 36.8258L32.8087 22.2654C32.9316 21.7735 33.2368 21.3467 33.6624 21.0713L48.5366 11.4468Z" fill="url(#paint0_linear_880_3)"/>
</g>
<g filter="url(#filter1_i_880_3)">
<path d="M32.75 50.5L49.875 22L66.875 50.5L49.875 60.875L32.75 50.5Z" fill="url(#paint1_linear_880_3)"/>
<path d="M49.875 64L32.75 53.625L49.875 77.75L66.875 53.625L49.875 64Z" fill="url(#paint2_linear_880_3)"/>
<path d="M71.75 66.75H66.875V74H60.125V78.5H66.875V86H71.75V78.5H78.375V74H71.75V66.75Z" fill="url(#paint3_linear_880_3)"/>
</g>
<path d="M44.6657 11.4739L45.4552 7.13175C45.6804 5.89279 46.5539 4.87035 47.7425 4.45435L54.4112 2.12031C54.6387 2.04068 54.878 2 55.1191 2H58.0788C58.1773 2 58.2447 2.09949 58.2081 2.19095C58.2024 2.20512 58.1944 2.21827 58.1845 2.22985L56.5648 4.11948C55.555 5.29756 55 6.798 55 8.34962V10.9511C55 11.2065 54.9721 11.4611 54.9167 11.7104L54.5768 13.2396C54.3383 14.3129 53.6094 15.2117 52.6085 15.6666L51.4758 16.1815C50.5445 16.6048 49.4745 16.5995 48.5474 16.1668L46.6291 15.2716C45.1877 14.599 44.3812 13.0389 44.6657 11.4739Z" fill="#E1E384" stroke="#D0D34E" stroke-width="3"/>
<defs>
<filter id="filter0_i_880_3" x="12.7808" y="11.126" width="71.8521" height="84.374" filterUnits="userSpaceOnUse" color-interpolation-filters="sRGB">
<feFlood flood-opacity="0" result="BackgroundImageFix"/>
<feBlend mode="normal" in="SourceGraphic" in2="BackgroundImageFix" result="shape"/>
<feColorMatrix in="SourceAlpha" type="matrix" values="0 0 0 0 0 0 0 0 0 0 0 0 0 0 0 0 0 0 127 0" result="hardAlpha"/>
<feOffset dy="4"/>
<feGaussianBlur stdDeviation="2"/>
<feComposite in2="hardAlpha" operator="arithmetic" k2="-1" k3="1"/>
<feColorMatrix type="matrix" values="0 0 0 0 0 0 0 0 0 0 0 0 0 0 0 0 0 0 0.25 0"/>
<feBlend mode="normal" in2="shape" result="effect1_innerShadow_880_3"/>
</filter>
<filter id="filter1_i_880_3" x="32.75" y="22" width="45.625" height="67" filterUnits="userSpaceOnUse" color-interpolation-filters="sRGB">
<feFlood flood-opacity="0" result="BackgroundImageFix"/>
<feBlend mode="normal" in="SourceGraphic" in2="BackgroundImageFix" result="shape"/>
<feColorMatrix in="SourceAlpha" type="matrix" values="0 0 0 0 0 0 0 0 0 0 0 0 0 0 0 0 0 0 127 0" result="hardAlpha"/>
<feOffset dy="3"/>
<feGaussianBlur stdDeviation="2"/>
<feComposite in2="hardAlpha" operator="arithmetic" k2="-1" k3="1"/>
<feColorMatrix type="matrix" values="0 0 0 0 0 0 0 0 0 0 0 0 0 0 0 0 0 0 0.33 0"/>
<feBlend mode="normal" in2="shape" result="effect1_innerShadow_880_3"/>
</filter>
<linearGradient id="paint0_linear_880_3" x1="43.5" y1="36" x2="63.5" y2="66" gradientUnits="userSpaceOnUse">
<stop stop-color="#BF5711"/>
<stop offset="1" stop-color="#80431A"/>
</linearGradient>
<linearGradient id="paint1_linear_880_3" x1="49.5" y1="39.5" x2="32" y2="89" gradientUnits="userSpaceOnUse">
<stop stop-color="#FAFF00"/>
<stop offset="1" stop-color="#FF7C24"/>
</linearGradient>
<linearGradient id="paint2_linear_880_3" x1="49.5" y1="39.5" x2="32" y2="89" gradientUnits="userSpaceOnUse">
<stop stop-color="#FAFF00"/>
<stop offset="1" stop-color="#FF7C24"/>
</linearGradient>
<linearGradient id="paint3_linear_880_3" x1="49.5" y1="39.5" x2="32" y2="89" gradientUnits="userSpaceOnUse">
<stop stop-color="#FAFF00"/>
<stop offset="1" stop-color="#FF7C24"/>
</linearGradient>
</defs>
</svg>
