<svg width="223" height="100" viewBox="0 0 223 100" fill="none" xmlns="http://www.w3.org/2000/svg">
<path d="M127.68 28.1436V31H118.219V28.1436H127.68ZM119.416 13.2266V31H115.753V13.2266H119.416ZM126.447 20.4653V23.2485H118.219V20.4653H126.447ZM127.667 13.2266V16.0952H118.219V13.2266H127.667ZM136.066 17.792V20.2822H128.375V17.792H136.066ZM130.28 14.5327H133.795V27.0205C133.795 27.403 133.844 27.696 133.942 27.8994C134.048 28.1029 134.202 28.2453 134.406 28.3267C134.609 28.3999 134.866 28.4365 135.175 28.4365C135.395 28.4365 135.59 28.4284 135.761 28.4121C135.94 28.3877 136.09 28.3633 136.212 28.3389L136.225 30.9268C135.924 31.0244 135.598 31.1017 135.248 31.1587C134.898 31.2157 134.512 31.2441 134.088 31.2441C133.315 31.2441 132.64 31.118 132.062 30.8657C131.492 30.6053 131.053 30.1903 130.744 29.6206C130.434 29.0509 130.28 28.3022 130.28 27.3745V14.5327ZM141.498 12.25V31H137.982V12.25H141.498ZM140.998 23.9321H140.033C140.041 23.0125 140.163 22.1662 140.399 21.3931C140.635 20.6118 140.973 19.9364 141.413 19.3667C141.852 18.7889 142.377 18.3413 142.987 18.0239C143.606 17.7065 144.289 17.5479 145.038 17.5479C145.689 17.5479 146.279 17.6414 146.808 17.8286C147.345 18.0076 147.805 18.3006 148.188 18.7075C148.578 19.1063 148.879 19.6312 149.091 20.2822C149.302 20.9333 149.408 21.7227 149.408 22.6504V31H145.868V22.626C145.868 22.04 145.783 21.5802 145.612 21.2466C145.449 20.9048 145.209 20.6647 144.892 20.5264C144.582 20.3799 144.2 20.3066 143.744 20.3066C143.24 20.3066 142.808 20.4002 142.45 20.5874C142.1 20.7746 141.819 21.035 141.608 21.3687C141.396 21.6942 141.242 22.0767 141.144 22.5161C141.046 22.9556 140.998 23.4276 140.998 23.9321ZM158.161 31.2441C157.135 31.2441 156.216 31.0814 155.402 30.7559C154.588 30.4222 153.896 29.9624 153.327 29.3765C152.765 28.7905 152.334 28.111 152.033 27.3379C151.732 26.5566 151.581 25.7266 151.581 24.8477V24.3594C151.581 23.3584 151.723 22.4429 152.008 21.6128C152.293 20.7827 152.7 20.0625 153.229 19.4521C153.766 18.8418 154.417 18.3739 155.182 18.0483C155.947 17.7147 156.81 17.5479 157.77 17.5479C158.706 17.5479 159.536 17.7025 160.26 18.0117C160.985 18.321 161.591 18.7604 162.079 19.3301C162.576 19.8997 162.95 20.5833 163.202 21.3809C163.454 22.1702 163.581 23.0492 163.581 24.0176V25.4824H153.083V23.1387H160.126V22.8701C160.126 22.3818 160.036 21.9465 159.857 21.564C159.687 21.1733 159.426 20.8641 159.076 20.6362C158.726 20.4084 158.279 20.2944 157.733 20.2944C157.27 20.2944 156.871 20.3962 156.537 20.5996C156.203 20.8031 155.931 21.0879 155.719 21.4541C155.516 21.8203 155.361 22.2516 155.255 22.748C155.158 23.2363 155.109 23.7734 155.109 24.3594V24.8477C155.109 25.3766 155.182 25.8649 155.329 26.3125C155.483 26.7601 155.699 27.1466 155.976 27.4722C156.26 27.7977 156.602 28.05 157.001 28.229C157.408 28.408 157.868 28.4976 158.38 28.4976C159.015 28.4976 159.605 28.3755 160.15 28.1313C160.704 27.8791 161.18 27.5007 161.579 26.9961L163.288 28.8516C163.011 29.2503 162.632 29.6328 162.152 29.999C161.68 30.3652 161.111 30.6663 160.443 30.9023C159.776 31.1302 159.015 31.2441 158.161 31.2441ZM169.098 20.6729V31H165.583V17.792H168.891L169.098 20.6729ZM173.078 17.7065L173.017 20.9658C172.846 20.9414 172.638 20.9211 172.394 20.9048C172.158 20.8804 171.942 20.8682 171.747 20.8682C171.251 20.8682 170.819 20.9333 170.453 21.0635C170.095 21.1855 169.794 21.3687 169.55 21.6128C169.314 21.8569 169.135 22.154 169.013 22.5039C168.899 22.8538 168.834 23.2526 168.817 23.7002L168.109 23.4805C168.109 22.626 168.195 21.8407 168.366 21.1245C168.537 20.4002 168.785 19.7695 169.11 19.2324C169.444 18.6953 169.851 18.2803 170.331 17.9873C170.811 17.6943 171.361 17.5479 171.979 17.5479C172.174 17.5479 172.374 17.5641 172.577 17.5967C172.781 17.6211 172.947 17.6577 173.078 17.7065ZM180.573 31.2441C179.547 31.2441 178.628 31.0814 177.814 30.7559C177 30.4222 176.308 29.9624 175.739 29.3765C175.177 28.7905 174.746 28.111 174.445 27.3379C174.144 26.5566 173.993 25.7266 173.993 24.8477V24.3594C173.993 23.3584 174.136 22.4429 174.42 21.6128C174.705 20.7827 175.112 20.0625 175.641 19.4521C176.178 18.8418 176.829 18.3739 177.594 18.0483C178.359 17.7147 179.222 17.5479 180.182 17.5479C181.118 17.5479 181.948 17.7025 182.672 18.0117C183.397 18.321 184.003 18.7604 184.491 19.3301C184.988 19.8997 185.362 20.5833 185.614 21.3809C185.867 22.1702 185.993 23.0492 185.993 24.0176V25.4824H175.495V23.1387H182.538V22.8701C182.538 22.3818 182.449 21.9465 182.27 21.564C182.099 21.1733 181.838 20.8641 181.488 20.6362C181.138 20.4084 180.691 20.2944 180.146 20.2944C179.682 20.2944 179.283 20.3962 178.949 20.5996C178.616 20.8031 178.343 21.0879 178.131 21.4541C177.928 21.8203 177.773 22.2516 177.667 22.748C177.57 23.2363 177.521 23.7734 177.521 24.3594V24.8477C177.521 25.3766 177.594 25.8649 177.741 26.3125C177.895 26.7601 178.111 27.1466 178.388 27.4722C178.673 27.7977 179.014 28.05 179.413 28.229C179.82 28.408 180.28 28.4976 180.792 28.4976C181.427 28.4976 182.017 28.3755 182.562 28.1313C183.116 27.8791 183.592 27.5007 183.991 26.9961L185.7 28.8516C185.423 29.2503 185.045 29.6328 184.564 29.999C184.092 30.3652 183.523 30.6663 182.855 30.9023C182.188 31.1302 181.427 31.2441 180.573 31.2441ZM195.807 27.8384V17.792H199.323V31H196.015L195.807 27.8384ZM196.198 25.1284L197.235 25.104C197.235 25.9829 197.134 26.8008 196.93 27.5576C196.727 28.3063 196.422 28.9574 196.015 29.5107C195.608 30.056 195.095 30.4832 194.477 30.7925C193.858 31.0936 193.13 31.2441 192.292 31.2441C191.649 31.2441 191.055 31.1546 190.509 30.9756C189.972 30.7884 189.508 30.4995 189.118 30.1089C188.735 29.7101 188.434 29.2015 188.214 28.583C188.003 27.9564 187.897 27.2036 187.897 26.3247V17.792H191.413V26.3491C191.413 26.7397 191.457 27.0693 191.547 27.3379C191.645 27.6064 191.779 27.8262 191.95 27.9971C192.121 28.168 192.32 28.29 192.548 28.3633C192.784 28.4365 193.044 28.4731 193.329 28.4731C194.053 28.4731 194.623 28.3267 195.038 28.0337C195.461 27.7407 195.758 27.342 195.929 26.8374C196.108 26.3247 196.198 25.755 196.198 25.1284ZM205.524 20.5264V31H201.996V17.792H205.304L205.524 20.5264ZM205.036 23.9321H204.059C204.059 23.0125 204.169 22.1662 204.389 21.3931C204.617 20.6118 204.946 19.9364 205.377 19.3667C205.817 18.7889 206.358 18.3413 207.001 18.0239C207.644 17.7065 208.389 17.5479 209.235 17.5479C209.821 17.5479 210.358 17.6374 210.846 17.8164C211.334 17.9873 211.754 18.2599 212.104 18.6343C212.462 19.0005 212.738 19.4806 212.934 20.0747C213.129 20.6606 213.227 21.3646 213.227 22.1865V31H209.711V22.5771C209.711 21.9749 209.63 21.5111 209.467 21.1855C209.304 20.86 209.072 20.6322 208.771 20.502C208.478 20.3717 208.124 20.3066 207.709 20.3066C207.253 20.3066 206.854 20.4002 206.513 20.5874C206.179 20.7746 205.902 21.035 205.683 21.3687C205.463 21.6942 205.3 22.0767 205.194 22.5161C205.089 22.9556 205.036 23.4276 205.036 23.9321ZM212.897 23.5293L211.64 23.688C211.64 22.8254 211.745 22.0238 211.957 21.2832C212.177 20.5426 212.498 19.8916 212.921 19.3301C213.353 18.7686 213.886 18.3332 214.521 18.0239C215.155 17.7065 215.888 17.5479 216.718 17.5479C217.353 17.5479 217.93 17.6414 218.451 17.8286C218.972 18.0076 219.416 18.2965 219.782 18.6953C220.156 19.0859 220.441 19.5986 220.636 20.2334C220.84 20.8682 220.941 21.6453 220.941 22.5649V31H217.414V22.5649C217.414 21.9546 217.332 21.4907 217.169 21.1733C217.015 20.8478 216.787 20.624 216.486 20.502C216.193 20.3717 215.843 20.3066 215.436 20.3066C215.013 20.3066 214.643 20.3921 214.325 20.563C214.008 20.7257 213.743 20.9536 213.532 21.2466C213.32 21.5396 213.161 21.8813 213.056 22.272C212.95 22.6545 212.897 23.0736 212.897 23.5293ZM119.416 42.2266V60H115.753V42.2266H119.416ZM126.496 49.8193V52.6758H118.415V49.8193H126.496ZM127.35 42.2266V45.0952H118.415V42.2266H127.35ZM128.424 53.5303V53.2739C128.424 52.3055 128.563 51.4144 128.839 50.6006C129.116 49.7786 129.519 49.0666 130.048 48.4644C130.577 47.8621 131.228 47.3942 132.001 47.0605C132.774 46.7188 133.661 46.5479 134.662 46.5479C135.663 46.5479 136.554 46.7188 137.335 47.0605C138.117 47.3942 138.772 47.8621 139.301 48.4644C139.838 49.0666 140.245 49.7786 140.521 50.6006C140.798 51.4144 140.937 52.3055 140.937 53.2739V53.5303C140.937 54.4906 140.798 55.3817 140.521 56.2036C140.245 57.0174 139.838 57.7295 139.301 58.3398C138.772 58.9421 138.121 59.41 137.348 59.7437C136.575 60.0773 135.688 60.2441 134.687 60.2441C133.686 60.2441 132.794 60.0773 132.013 59.7437C131.24 59.41 130.585 58.9421 130.048 58.3398C129.519 57.7295 129.116 57.0174 128.839 56.2036C128.563 55.3817 128.424 54.4906 128.424 53.5303ZM131.94 53.2739V53.5303C131.94 54.0837 131.989 54.6004 132.086 55.0806C132.184 55.5607 132.339 55.9839 132.55 56.3501C132.77 56.7082 133.055 56.9889 133.405 57.1924C133.755 57.3958 134.182 57.4976 134.687 57.4976C135.175 57.4976 135.594 57.3958 135.944 57.1924C136.294 56.9889 136.575 56.7082 136.786 56.3501C136.998 55.9839 137.152 55.5607 137.25 55.0806C137.356 54.6004 137.409 54.0837 137.409 53.5303V53.2739C137.409 52.7368 137.356 52.2323 137.25 51.7603C137.152 51.2801 136.994 50.8569 136.774 50.4907C136.562 50.1164 136.282 49.8234 135.932 49.6118C135.582 49.4002 135.159 49.2944 134.662 49.2944C134.166 49.2944 133.743 49.4002 133.393 49.6118C133.051 49.8234 132.77 50.1164 132.55 50.4907C132.339 50.8569 132.184 51.2801 132.086 51.7603C131.989 52.2323 131.94 52.7368 131.94 53.2739ZM146.808 41.25V60H143.28V41.25H146.808ZM153.424 41.25V60H149.896V41.25H153.424ZM155.768 53.5303V53.2739C155.768 52.3055 155.906 51.4144 156.183 50.6006C156.46 49.7786 156.863 49.0666 157.392 48.4644C157.921 47.8621 158.572 47.3942 159.345 47.0605C160.118 46.7188 161.005 46.5479 162.006 46.5479C163.007 46.5479 163.898 46.7188 164.679 47.0605C165.46 47.3942 166.116 47.8621 166.645 48.4644C167.182 49.0666 167.589 49.7786 167.865 50.6006C168.142 51.4144 168.28 52.3055 168.28 53.2739V53.5303C168.28 54.4906 168.142 55.3817 167.865 56.2036C167.589 57.0174 167.182 57.7295 166.645 58.3398C166.116 58.9421 165.465 59.41 164.691 59.7437C163.918 60.0773 163.031 60.2441 162.03 60.2441C161.029 60.2441 160.138 60.0773 159.357 59.7437C158.584 59.41 157.929 58.9421 157.392 58.3398C156.863 57.7295 156.46 57.0174 156.183 56.2036C155.906 55.3817 155.768 54.4906 155.768 53.5303ZM159.284 53.2739V53.5303C159.284 54.0837 159.333 54.6004 159.43 55.0806C159.528 55.5607 159.682 55.9839 159.894 56.3501C160.114 56.7082 160.399 56.9889 160.749 57.1924C161.098 57.3958 161.526 57.4976 162.03 57.4976C162.519 57.4976 162.938 57.3958 163.288 57.1924C163.638 56.9889 163.918 56.7082 164.13 56.3501C164.341 55.9839 164.496 55.5607 164.594 55.0806C164.7 54.6004 164.752 54.0837 164.752 53.5303V53.2739C164.752 52.7368 164.7 52.2323 164.594 51.7603C164.496 51.2801 164.337 50.8569 164.118 50.4907C163.906 50.1164 163.625 49.8234 163.275 49.6118C162.925 49.4002 162.502 49.2944 162.006 49.2944C161.509 49.2944 161.086 49.4002 160.736 49.6118C160.395 49.8234 160.114 50.1164 159.894 50.4907C159.682 50.8569 159.528 51.2801 159.43 51.7603C159.333 52.2323 159.284 52.7368 159.284 53.2739ZM174.213 56.582L176.959 46.792H179.193L178.473 50.6372L175.727 60H173.859L174.213 56.582ZM172.821 46.792L174.787 56.5698L174.97 60H172.772L169.428 46.792H172.821ZM181.708 56.4111L183.625 46.792H187.03L183.686 60H181.5L181.708 56.4111ZM179.499 46.792L182.233 56.5088L182.611 60H180.731L177.985 50.6494L177.289 46.792H179.499ZM122.675 82.6646H118.146V79.8081H122.675C123.375 79.8081 123.944 79.6942 124.384 79.4663C124.823 79.2303 125.145 78.9048 125.348 78.4897C125.552 78.0747 125.653 77.6068 125.653 77.0859C125.653 76.557 125.552 76.0646 125.348 75.6089C125.145 75.1532 124.823 74.7869 124.384 74.5103C123.944 74.2336 123.375 74.0952 122.675 74.0952H119.416V89H115.753V71.2266H122.675C124.066 71.2266 125.259 71.4788 126.251 71.9834C127.252 72.4798 128.017 73.1675 128.546 74.0464C129.075 74.9253 129.34 75.9303 129.34 77.0615C129.34 78.209 129.075 79.2018 128.546 80.04C128.017 80.8783 127.252 81.5252 126.251 81.981C125.259 82.4367 124.066 82.6646 122.675 82.6646ZM135.163 78.6729V89H131.647V75.792H134.955L135.163 78.6729ZM139.142 75.7065L139.081 78.9658C138.91 78.9414 138.703 78.9211 138.458 78.9048C138.222 78.8804 138.007 78.8682 137.812 78.8682C137.315 78.8682 136.884 78.9333 136.518 79.0635C136.16 79.1855 135.858 79.3687 135.614 79.6128C135.378 79.8569 135.199 80.154 135.077 80.5039C134.963 80.8538 134.898 81.2526 134.882 81.7002L134.174 81.4805C134.174 80.626 134.259 79.8407 134.43 79.1245C134.601 78.4002 134.849 77.7695 135.175 77.2324C135.508 76.6953 135.915 76.2803 136.396 75.9873C136.876 75.6943 137.425 75.5479 138.043 75.5479C138.239 75.5479 138.438 75.5641 138.642 75.5967C138.845 75.6211 139.012 75.6577 139.142 75.7065ZM139.875 82.5303V82.2739C139.875 81.3055 140.013 80.4144 140.29 79.6006C140.566 78.7786 140.969 78.0666 141.498 77.4644C142.027 76.8621 142.678 76.3942 143.451 76.0605C144.224 75.7188 145.111 75.5479 146.112 75.5479C147.113 75.5479 148.004 75.7188 148.786 76.0605C149.567 76.3942 150.222 76.8621 150.751 77.4644C151.288 78.0666 151.695 78.7786 151.972 79.6006C152.248 80.4144 152.387 81.3055 152.387 82.2739V82.5303C152.387 83.4906 152.248 84.3817 151.972 85.2036C151.695 86.0174 151.288 86.7295 150.751 87.3398C150.222 87.9421 149.571 88.41 148.798 88.7437C148.025 89.0773 147.138 89.2441 146.137 89.2441C145.136 89.2441 144.245 89.0773 143.463 88.7437C142.69 88.41 142.035 87.9421 141.498 87.3398C140.969 86.7295 140.566 86.0174 140.29 85.2036C140.013 84.3817 139.875 83.4906 139.875 82.5303ZM143.39 82.2739V82.5303C143.39 83.0837 143.439 83.6004 143.537 84.0806C143.634 84.5607 143.789 84.9839 144 85.3501C144.22 85.7082 144.505 85.9889 144.855 86.1924C145.205 86.3958 145.632 86.4976 146.137 86.4976C146.625 86.4976 147.044 86.3958 147.394 86.1924C147.744 85.9889 148.025 85.7082 148.236 85.3501C148.448 84.9839 148.603 84.5607 148.7 84.0806C148.806 83.6004 148.859 83.0837 148.859 82.5303V82.2739C148.859 81.7368 148.806 81.2323 148.7 80.7603C148.603 80.2801 148.444 79.8569 148.224 79.4907C148.013 79.1164 147.732 78.8234 147.382 78.6118C147.032 78.4002 146.609 78.2944 146.112 78.2944C145.616 78.2944 145.193 78.4002 144.843 78.6118C144.501 78.8234 144.22 79.1164 144 79.4907C143.789 79.8569 143.634 80.2801 143.537 80.7603C143.439 81.2323 143.39 81.7368 143.39 82.2739ZM161.017 75.792V78.2822H153.327V75.792H161.017ZM155.231 72.5327H158.747V85.0205C158.747 85.403 158.795 85.696 158.893 85.8994C158.999 86.1029 159.153 86.2453 159.357 86.3267C159.56 86.3999 159.817 86.4365 160.126 86.4365C160.346 86.4365 160.541 86.4284 160.712 86.4121C160.891 86.3877 161.042 86.3633 161.164 86.3389L161.176 88.9268C160.875 89.0244 160.549 89.1017 160.199 89.1587C159.849 89.2157 159.463 89.2441 159.04 89.2441C158.266 89.2441 157.591 89.118 157.013 88.8657C156.444 88.6053 156.004 88.1903 155.695 87.6206C155.386 87.0509 155.231 86.3022 155.231 85.3745V72.5327ZM162.14 82.5303V82.2739C162.14 81.3055 162.278 80.4144 162.555 79.6006C162.832 78.7786 163.235 78.0666 163.764 77.4644C164.293 76.8621 164.944 76.3942 165.717 76.0605C166.49 75.7188 167.377 75.5479 168.378 75.5479C169.379 75.5479 170.27 75.7188 171.051 76.0605C171.833 76.3942 172.488 76.8621 173.017 77.4644C173.554 78.0666 173.961 78.7786 174.237 79.6006C174.514 80.4144 174.652 81.3055 174.652 82.2739V82.5303C174.652 83.4906 174.514 84.3817 174.237 85.2036C173.961 86.0174 173.554 86.7295 173.017 87.3398C172.488 87.9421 171.837 88.41 171.063 88.7437C170.29 89.0773 169.403 89.2441 168.402 89.2441C167.401 89.2441 166.51 89.0773 165.729 88.7437C164.956 88.41 164.301 87.9421 163.764 87.3398C163.235 86.7295 162.832 86.0174 162.555 85.2036C162.278 84.3817 162.14 83.4906 162.14 82.5303ZM165.656 82.2739V82.5303C165.656 83.0837 165.705 83.6004 165.802 84.0806C165.9 84.5607 166.055 84.9839 166.266 85.3501C166.486 85.7082 166.771 85.9889 167.121 86.1924C167.471 86.3958 167.898 86.4976 168.402 86.4976C168.891 86.4976 169.31 86.3958 169.66 86.1924C170.01 85.9889 170.29 85.7082 170.502 85.3501C170.714 84.9839 170.868 84.5607 170.966 84.0806C171.072 83.6004 171.125 83.0837 171.125 82.5303V82.2739C171.125 81.7368 171.072 81.2323 170.966 80.7603C170.868 80.2801 170.709 79.8569 170.49 79.4907C170.278 79.1164 169.997 78.8234 169.647 78.6118C169.298 78.4002 168.874 78.2944 168.378 78.2944C167.882 78.2944 167.458 78.4002 167.108 78.6118C166.767 78.8234 166.486 79.1164 166.266 79.4907C166.055 79.8569 165.9 80.2801 165.802 80.7603C165.705 81.2323 165.656 81.7368 165.656 82.2739ZM182.27 86.4976C182.701 86.4976 183.083 86.4162 183.417 86.2534C183.751 86.0825 184.011 85.8465 184.198 85.5454C184.394 85.2362 184.495 84.874 184.503 84.459H187.812C187.803 85.3867 187.555 86.2127 187.067 86.937C186.579 87.6532 185.924 88.2188 185.102 88.6338C184.28 89.0407 183.36 89.2441 182.343 89.2441C181.317 89.2441 180.422 89.0732 179.657 88.7314C178.9 88.3896 178.27 87.9176 177.765 87.3154C177.261 86.7051 176.882 85.9971 176.63 85.1914C176.378 84.3776 176.251 83.5068 176.251 82.5791V82.2251C176.251 81.2892 176.378 80.4185 176.63 79.6128C176.882 78.799 177.261 78.091 177.765 77.4888C178.27 76.8784 178.9 76.4023 179.657 76.0605C180.414 75.7188 181.301 75.5479 182.318 75.5479C183.401 75.5479 184.349 75.7554 185.163 76.1704C185.985 76.5854 186.627 77.1795 187.091 77.9526C187.563 78.7176 187.803 79.625 187.812 80.6748H184.503C184.495 80.2354 184.402 79.8366 184.223 79.4785C184.052 79.1204 183.799 78.8356 183.466 78.624C183.14 78.4043 182.737 78.2944 182.257 78.2944C181.745 78.2944 181.326 78.4043 181 78.624C180.674 78.8356 180.422 79.1286 180.243 79.5029C180.064 79.8691 179.938 80.2882 179.865 80.7603C179.8 81.2241 179.767 81.7124 179.767 82.2251V82.5791C179.767 83.0918 179.8 83.5841 179.865 84.0562C179.93 84.5282 180.052 84.9473 180.231 85.3135C180.418 85.6797 180.674 85.9686 181 86.1802C181.326 86.3918 181.749 86.4976 182.27 86.4976ZM189.289 82.5303V82.2739C189.289 81.3055 189.427 80.4144 189.704 79.6006C189.98 78.7786 190.383 78.0666 190.912 77.4644C191.441 76.8621 192.092 76.3942 192.865 76.0605C193.638 75.7188 194.525 75.5479 195.526 75.5479C196.527 75.5479 197.418 75.7188 198.2 76.0605C198.981 76.3942 199.636 76.8621 200.165 77.4644C200.702 78.0666 201.109 78.7786 201.386 79.6006C201.662 80.4144 201.801 81.3055 201.801 82.2739V82.5303C201.801 83.4906 201.662 84.3817 201.386 85.2036C201.109 86.0174 200.702 86.7295 200.165 87.3398C199.636 87.9421 198.985 88.41 198.212 88.7437C197.439 89.0773 196.552 89.2441 195.551 89.2441C194.55 89.2441 193.659 89.0773 192.877 88.7437C192.104 88.41 191.449 87.9421 190.912 87.3398C190.383 86.7295 189.98 86.0174 189.704 85.2036C189.427 84.3817 189.289 83.4906 189.289 82.5303ZM192.804 82.2739V82.5303C192.804 83.0837 192.853 83.6004 192.951 84.0806C193.048 84.5607 193.203 84.9839 193.415 85.3501C193.634 85.7082 193.919 85.9889 194.269 86.1924C194.619 86.3958 195.046 86.4976 195.551 86.4976C196.039 86.4976 196.458 86.3958 196.808 86.1924C197.158 85.9889 197.439 85.7082 197.65 85.3501C197.862 84.9839 198.017 84.5607 198.114 84.0806C198.22 83.6004 198.273 83.0837 198.273 82.5303V82.2739C198.273 81.7368 198.22 81.2323 198.114 80.7603C198.017 80.2801 197.858 79.8569 197.638 79.4907C197.427 79.1164 197.146 78.8234 196.796 78.6118C196.446 78.4002 196.023 78.2944 195.526 78.2944C195.03 78.2944 194.607 78.4002 194.257 78.6118C193.915 78.8234 193.634 79.1164 193.415 79.4907C193.203 79.8569 193.048 80.2801 192.951 80.7603C192.853 81.2323 192.804 81.7368 192.804 82.2739ZM207.672 70.25V89H204.145V70.25H207.672Z" fill="#EEEEEE"/>
<rect width="99.2754" height="100" rx="20" fill="url(#paint0_linear_2949_4034)"/>
<rect width="99.2754" height="100" rx="20" fill="white" fill-opacity="0.4"/>
<path d="M32.5127 50.5L49.5136 22L66.3904 50.5L49.5136 60.875L32.5127 50.5Z" fill="url(#paint1_linear_2949_4034)"/>
<path d="M32.5127 50.5L49.5136 22L66.3904 50.5L49.5136 60.875L32.5127 50.5Z" fill="#333333"/>
<path d="M49.5136 64L32.5127 53.625L49.5136 77.75L66.3904 53.625L49.5136 64Z" fill="url(#paint2_linear_2949_4034)"/>
<path d="M49.5136 64L32.5127 53.625L49.5136 77.75L66.3904 53.625L49.5136 64Z" fill="#333333"/>
<path d="M71.2301 66.75H66.3904V74H59.6893V78.5H66.3904V86H71.2301V78.5H77.8071V74H71.2301V66.75Z" fill="url(#paint3_linear_2949_4034)"/>
<path d="M71.2301 66.75H66.3904V74H59.6893V78.5H66.3904V86H71.2301V78.5H77.8071V74H71.2301V66.75Z" fill="#333333"/>
<defs>
<linearGradient id="paint0_linear_2949_4034" x1="49.6377" y1="0" x2="49.6377" y2="100" gradientUnits="userSpaceOnUse">
<stop stop-color="#FFF500"/>
<stop offset="1" stop-color="#FF79C9"/>
</linearGradient>
<linearGradient id="paint1_linear_2949_4034" x1="55.1599" y1="22" x2="55.1599" y2="86" gradientUnits="userSpaceOnUse">
<stop stop-color="#FFF500"/>
<stop offset="1" stop-color="#FF79C9"/>
</linearGradient>
<linearGradient id="paint2_linear_2949_4034" x1="55.1599" y1="22" x2="55.1599" y2="86" gradientUnits="userSpaceOnUse">
<stop stop-color="#FFF500"/>
<stop offset="1" stop-color="#FF79C9"/>
</linearGradient>
<linearGradient id="paint3_linear_2949_4034" x1="55.1599" y1="22" x2="55.1599" y2="86" gradientUnits="userSpaceOnUse">
<stop stop-color="#FFF500"/>
<stop offset="1" stop-color="#FF79C9"/>
</linearGradient>
</defs>
</svg>
