<svg width="550" height="550" viewBox="0 0 550 550" fill="none" xmlns="http://www.w3.org/2000/svg">
<circle cx="275" cy="275" r="248.5" fill="url(#paint0_linear_3230_11741)"/>
<circle cx="275" cy="275" r="248.5" fill="white" fill-opacity="0.5"/>
<circle cx="275" cy="275" r="248.5" stroke="#EBEBEB" stroke-width="3"/>
<g filter="url(#filter0_d_3230_11741)">
<circle cx="275" cy="275" r="225" fill="white" fill-opacity="0.5" shape-rendering="crispEdges"/>
<circle cx="275" cy="275" r="223.5" stroke="#EBEBEB" stroke-width="3" shape-rendering="crispEdges"/>
</g>
<path d="M290.222 417.59V421.875H276.04V417.59H290.222ZM277.833 395.215V421.875H272.344V395.215H277.833ZM288.374 406.073V410.248H276.04V406.073H288.374ZM290.204 395.215V399.518H276.04V395.215H290.204ZM298.914 395.215V421.875H293.424V395.215H298.914ZM309.527 406.604V410.889H297.413V406.604H309.527ZM310.808 395.215V399.518H297.413V395.215H310.808ZM324.368 412.372H317.579V408.087H324.368C325.417 408.087 326.271 407.916 326.929 407.574C327.588 407.22 328.07 406.732 328.375 406.11C328.68 405.487 328.833 404.785 328.833 404.004C328.833 403.21 328.68 402.472 328.375 401.788C328.07 401.105 327.588 400.555 326.929 400.14C326.271 399.725 325.417 399.518 324.368 399.518H319.482V421.875H313.992V395.215H324.368C326.454 395.215 328.241 395.593 329.729 396.35C331.23 397.095 332.376 398.126 333.169 399.445C333.962 400.763 334.359 402.27 334.359 403.967C334.359 405.688 333.962 407.178 333.169 408.435C332.376 409.692 331.23 410.663 329.729 411.346C328.241 412.03 326.454 412.372 324.368 412.372Z" fill="#333333"/>
<path d="M255.599 384H224.369C219.195 384 215 388.197 215 393.375V424.625C215 429.803 219.195 434 224.369 434H255.599C260.774 434 264.968 429.803 264.968 424.625V393.375C264.968 388.197 260.774 384 255.599 384Z" fill="#FFF500"/>
<path d="M255.599 384H224.369C219.195 384 215 388.197 215 393.375V424.625C215 429.803 219.195 434 224.369 434H255.599C260.774 434 264.968 429.803 264.968 424.625V393.375C264.968 388.197 260.774 384 255.599 384Z" fill="white" fill-opacity="0.5"/>
<path d="M231.365 409.25L239.922 395L248.417 409.25L239.922 414.438L231.365 409.25Z" fill="url(#paint1_linear_3230_11741)"/>
<path d="M231.365 409.25L239.922 395L248.417 409.25L239.922 414.438L231.365 409.25Z" fill="#333333"/>
<path d="M239.922 416L231.365 410.812L239.922 422.875L248.417 410.812L239.922 416Z" fill="url(#paint2_linear_3230_11741)"/>
<path d="M239.922 416L231.365 410.812L239.922 422.875L248.417 410.812L239.922 416Z" fill="#333333"/>
<path d="M250.852 417.375H248.416V421H245.043V423.25H248.416V427H250.852V423.25H254.162V421H250.852V417.375Z" fill="url(#paint3_linear_3230_11741)"/>
<path d="M250.852 417.375H248.416V421H245.043V423.25H248.416V427H250.852V423.25H254.162V421H250.852V417.375Z" fill="#333333"/>
<path d="M206.071 131.56L193 97.6465L215.765 88.8052L218.043 94.7168L202.421 100.784L205.536 108.865L219.986 103.253L222.265 109.164L207.814 114.777L210.935 122.874L226.623 116.781L228.902 122.693L206.071 131.56Z" fill="#333333"/>
<path d="M250.336 118.735C248.619 118.974 247.048 118.888 245.622 118.478C244.194 118.055 243.007 117.307 242.061 116.232C241.125 115.143 240.533 113.708 240.287 111.926C240.079 110.425 240.179 109.126 240.587 108.03C240.995 106.933 241.629 106.008 242.489 105.255C243.349 104.502 244.358 103.883 245.518 103.399C246.689 102.913 247.931 102.513 249.244 102.198C250.787 101.816 252.027 101.487 252.965 101.213C253.902 100.927 254.566 100.607 254.958 100.254C255.349 99.9007 255.505 99.4367 255.426 98.8623L255.411 98.7568C255.257 97.6429 254.787 96.83 254.002 96.3181C253.229 95.8044 252.206 95.6365 250.933 95.814C249.589 96.0012 248.562 96.4492 247.851 97.1579C247.137 97.8549 246.714 98.6667 246.58 99.5936L239.6 99.9934C239.723 98.3031 240.216 96.7884 241.078 95.4491C241.939 94.0983 243.136 92.9871 244.671 92.116C246.215 91.2314 248.062 90.6393 250.211 90.3397C251.706 90.1312 253.161 90.1076 254.576 90.2688C256.003 90.4283 257.299 90.8034 258.464 91.3938C259.641 91.9826 260.619 92.8143 261.398 93.8886C262.176 94.9513 262.677 96.2857 262.899 97.892L265.42 116.112L258.342 117.098L257.824 113.353L257.613 113.382C257.298 114.286 256.823 115.111 256.188 115.857C255.552 116.591 254.75 117.211 253.784 117.716C252.817 118.209 251.668 118.549 250.336 118.735ZM251.758 113.266C252.856 113.113 253.795 112.761 254.576 112.21C255.355 111.647 255.933 110.957 256.308 110.14C256.683 109.323 256.805 108.44 256.673 107.49L256.277 104.623C256.064 104.808 255.762 104.994 255.371 105.18C254.99 105.352 254.556 105.526 254.069 105.702C253.579 105.866 253.089 106.024 252.598 106.176C252.106 106.316 251.659 106.444 251.259 106.56C250.4 106.811 249.664 107.123 249.049 107.495C248.434 107.868 247.978 108.32 247.683 108.851C247.386 109.37 247.286 109.982 247.383 110.685C247.524 111.705 248 112.434 248.81 112.87C249.631 113.294 250.613 113.426 251.758 113.266Z" fill="#333333"/>
<path d="M278.713 116.075L280.639 88.8712L287.926 89.3913L287.59 94.1378L287.872 94.1579C288.486 92.5048 289.405 91.2888 290.631 90.51C291.857 89.7194 293.229 89.3782 294.746 89.4865C295.123 89.5134 295.527 89.5659 295.959 89.6442C296.39 89.7225 296.768 89.8148 297.092 89.9209L296.617 96.6155C296.272 96.4841 295.791 96.3548 295.173 96.2276C294.556 96.1005 293.988 96.0184 293.47 95.9815C292.365 95.9026 291.36 96.0741 290.455 96.4961C289.563 96.9071 288.834 97.5196 288.268 98.3337C287.714 99.1484 287.397 100.111 287.319 101.221L286.228 116.611L278.713 116.075Z" fill="#333333"/>
<path d="M317.916 84.4849L310.805 120.14L303.416 118.655L310.528 83L317.916 84.4849Z" fill="#333333"/>
<path d="M323.264 134.105C322.373 133.76 321.565 133.364 320.839 132.918C320.119 132.487 319.547 132.069 319.122 131.663L322.73 127.009C323.458 127.583 324.147 128.008 324.799 128.286C325.462 128.568 326.098 128.637 326.71 128.493C327.332 128.353 327.95 127.946 328.564 127.27L329.39 126.353L330.355 96.6581L337.748 99.5208L335.816 120.239L336.08 120.341L348.557 103.706L356 106.588L335.314 130.968C334.314 132.154 333.213 133.098 332.008 133.799C330.81 134.515 329.489 134.91 328.045 134.985C326.596 135.071 325.002 134.778 323.264 134.105Z" fill="#333333"/>
<path d="M205 465.267L206.039 462.129L215.722 457.734C216.554 457.334 217.264 456.962 217.853 456.617C218.448 456.274 218.934 455.907 219.311 455.517C219.691 455.12 219.971 454.65 220.151 454.106C220.351 453.503 220.383 452.938 220.249 452.413C220.117 451.88 219.848 451.419 219.443 451.029C219.04 450.632 218.533 450.335 217.921 450.138C217.282 449.932 216.682 449.88 216.122 449.982C215.561 450.083 215.073 450.33 214.657 450.723C214.241 451.116 213.924 451.641 213.707 452.298L209.515 450.948C209.961 449.601 210.658 448.53 211.606 447.737C212.553 446.944 213.674 446.455 214.969 446.271C216.264 446.087 217.639 446.229 219.094 446.698C220.59 447.179 221.805 447.86 222.74 448.74C223.684 449.616 224.314 450.612 224.628 451.73C224.943 452.848 224.904 454.001 224.511 455.188C224.253 455.966 223.842 456.683 223.279 457.34C222.722 457.999 221.896 458.665 220.801 459.336C219.708 460.001 218.231 460.746 216.37 461.571L212.345 463.536L212.298 463.677L221.069 466.502L219.89 470.063L205 465.267Z" fill="#333333"/>
<path d="M253.874 476.809C252.039 476.616 250.506 476.01 249.274 474.991C248.05 473.974 247.17 472.59 246.633 470.841C246.104 469.092 245.966 467.04 246.219 464.682C246.464 462.332 247.025 460.364 247.902 458.779C248.786 457.196 249.931 456.039 251.338 455.309C252.752 454.573 254.373 454.298 256.202 454.484C258.03 454.669 259.557 455.264 260.783 456.267C262.016 457.272 262.901 458.638 263.44 460.366C263.98 462.087 264.123 464.123 263.871 466.473C263.624 468.838 263.058 470.823 262.171 472.428C261.292 474.033 260.148 475.212 258.74 475.962C257.331 476.713 255.709 476.995 253.874 476.809ZM254.268 473.03C255.52 473.157 256.584 472.638 257.461 471.471C258.337 470.305 258.902 468.479 259.154 465.995C259.324 464.36 259.295 462.981 259.067 461.859C258.846 460.737 258.455 459.871 257.893 459.261C257.338 458.652 256.645 458.305 255.812 458.22C254.567 458.094 253.507 458.607 252.632 459.759C251.756 460.911 251.188 462.712 250.925 465.16C250.752 466.816 250.776 468.215 250.994 469.358C251.221 470.494 251.615 471.371 252.176 471.988C252.738 472.598 253.435 472.946 254.268 473.03Z" fill="#333333"/>
<path d="M288.751 477L288.38 473.719L295.351 465.766C295.941 465.062 296.431 464.433 296.822 463.879C297.219 463.324 297.508 462.792 297.688 462.283C297.867 461.766 297.925 461.224 297.861 460.656C297.789 460.025 297.582 459.498 297.239 459.074C296.895 458.643 296.457 458.333 295.925 458.143C295.392 457.946 294.805 457.883 294.165 457.953C293.497 458.027 292.929 458.224 292.462 458.545C291.994 458.866 291.654 459.291 291.44 459.818C291.226 460.346 291.158 460.953 291.235 461.64L286.853 462.122C286.694 460.713 286.879 459.454 287.408 458.345C287.938 457.236 288.754 456.334 289.855 455.638C290.957 454.942 292.268 454.51 293.789 454.343C295.353 454.171 296.745 454.295 297.966 454.714C299.193 455.126 300.184 455.776 300.939 456.665C301.695 457.555 302.143 458.62 302.283 459.861C302.375 460.674 302.302 461.495 302.065 462.323C301.835 463.15 301.362 464.093 300.647 465.151C299.931 466.202 298.899 467.484 297.551 468.995L294.711 472.426L294.728 472.574L303.898 471.565L304.319 475.288L288.751 477Z" fill="#333333"/>
<path d="M327.176 466.589L326.031 463.162L330.223 446.794L333.219 445.821L334.803 450.565L333.03 451.141L330.4 461.498L330.454 461.659L342.835 457.637L344 461.124L327.176 466.589ZM338.401 466.953L336.844 462.29L336.418 460.746L331.609 446.344L335.746 445L342.62 465.583L338.401 466.953Z" fill="#333333"/>
<g clip-path="url(#clip0_3230_11741)">
<path d="M274 308.137C292.302 308.137 307.138 293.301 307.138 275C307.138 256.699 292.302 241.863 274 241.863C255.699 241.863 240.863 256.699 240.863 275C240.863 293.301 255.699 308.137 274 308.137Z" fill="#333333"/>
<path d="M274.001 313.556C252.741 313.556 235.445 296.26 235.445 275.001C235.445 253.741 252.741 236.445 274.001 236.445C295.26 236.445 312.556 253.741 312.556 275.001C312.556 296.26 295.26 313.556 274.001 313.556ZM274.001 247.281C258.717 247.281 246.282 259.716 246.282 275C246.282 290.284 258.717 302.719 274.001 302.719C289.285 302.719 301.72 290.284 301.72 275C301.72 259.716 289.285 247.281 274.001 247.281Z" fill="#333333"/>
<path d="M274 228.454C271.008 228.454 268.582 226.028 268.582 223.035V205.418C268.582 202.426 271.008 200 274 200C276.993 200 279.419 202.426 279.419 205.418V223.035C279.419 226.028 276.993 228.454 274 228.454Z" fill="#333333"/>
<path d="M274 350C271.008 350 268.582 347.574 268.582 344.582V326.965C268.582 323.972 271.008 321.546 274 321.546C276.993 321.546 279.419 323.972 279.419 326.965V344.582C279.419 347.575 276.993 350 274 350Z" fill="#333333"/>
<path d="M343.582 280.418H325.965C322.973 280.418 320.547 277.992 320.547 275C320.547 272.008 322.973 269.582 325.965 269.582H343.582C346.574 269.582 349 272.008 349 275C349 277.992 346.575 280.418 343.582 280.418Z" fill="#333333"/>
<path d="M222.035 280.418H204.418C201.426 280.418 199 277.992 199 275C199 272.008 201.426 269.582 204.418 269.582H222.035C225.028 269.582 227.454 272.008 227.454 275C227.454 277.992 225.028 280.418 222.035 280.418Z" fill="#333333"/>
<path d="M310.744 243.673C309.358 243.673 307.971 243.144 306.913 242.086C304.797 239.97 304.797 236.539 306.913 234.424L319.37 221.967C321.486 219.851 324.917 219.85 327.033 221.967C329.149 224.083 329.149 227.514 327.033 229.629L314.575 242.086C313.518 243.144 312.131 243.673 310.744 243.673Z" fill="#333333"/>
<path d="M224.797 329.62C223.411 329.62 222.024 329.091 220.966 328.033C218.85 325.917 218.85 322.486 220.966 320.371L233.423 307.914C235.539 305.798 238.97 305.798 241.085 307.914C243.201 310.03 243.201 313.461 241.085 315.576L228.628 328.033C227.571 329.091 226.184 329.62 224.797 329.62Z" fill="#333333"/>
<path d="M323.201 329.62C321.815 329.62 320.428 329.091 319.37 328.033L306.913 315.576C304.797 313.46 304.797 310.029 306.913 307.914C309.029 305.798 312.46 305.798 314.575 307.914L327.033 320.371C329.149 322.487 329.149 325.918 327.033 328.033C325.975 329.091 324.589 329.62 323.201 329.62Z" fill="#333333"/>
<path d="M237.254 243.673C235.868 243.673 234.481 243.144 233.423 242.086L220.966 229.629C218.85 227.513 218.85 224.083 220.966 221.967C223.082 219.851 226.513 219.85 228.628 221.967L241.085 234.424C243.201 236.54 243.201 239.97 241.085 242.086C240.028 243.144 238.641 243.673 237.254 243.673Z" fill="#333333"/>
</g>
<defs>
<filter id="filter0_d_3230_11741" x="0" y="0" width="550" height="550" filterUnits="userSpaceOnUse" color-interpolation-filters="sRGB">
<feFlood flood-opacity="0" result="BackgroundImageFix"/>
<feColorMatrix in="SourceAlpha" type="matrix" values="0 0 0 0 0 0 0 0 0 0 0 0 0 0 0 0 0 0 127 0" result="hardAlpha"/>
<feOffset/>
<feGaussianBlur stdDeviation="25"/>
<feComposite in2="hardAlpha" operator="out"/>
<feColorMatrix type="matrix" values="0 0 0 0 0 0 0 0 0 0 0 0 0 0 0 0 0 0 0.05 0"/>
<feBlend mode="normal" in2="BackgroundImageFix" result="effect1_dropShadow_3230_11741"/>
<feBlend mode="normal" in="SourceGraphic" in2="effect1_dropShadow_3230_11741" result="shape"/>
</filter>
<linearGradient id="paint0_linear_3230_11741" x1="25" y1="275" x2="275" y2="525" gradientUnits="userSpaceOnUse">
<stop stop-color="#FFF500"/>
<stop offset="1" stop-color="white"/>
</linearGradient>
<linearGradient id="paint1_linear_3230_11741" x1="242.764" y1="395" x2="242.764" y2="427" gradientUnits="userSpaceOnUse">
<stop stop-color="#FFF500"/>
<stop offset="1" stop-color="#FF79C9"/>
</linearGradient>
<linearGradient id="paint2_linear_3230_11741" x1="242.764" y1="395" x2="242.764" y2="427" gradientUnits="userSpaceOnUse">
<stop stop-color="#FFF500"/>
<stop offset="1" stop-color="#FF79C9"/>
</linearGradient>
<linearGradient id="paint3_linear_3230_11741" x1="242.763" y1="395" x2="242.763" y2="427" gradientUnits="userSpaceOnUse">
<stop stop-color="#FFF500"/>
<stop offset="1" stop-color="#FF79C9"/>
</linearGradient>
<clipPath id="clip0_3230_11741">
<rect width="150" height="150" fill="white" transform="translate(199 200)"/>
</clipPath>
</defs>
</svg>
