<svg width="531" height="263" viewBox="0 0 531 263" fill="none" xmlns="http://www.w3.org/2000/svg">
<rect x="148" y="1.19336" width="151" height="91" rx="45.5" fill="white" stroke="#CDCDCD" stroke-width="2"/>
<path d="M193.752 26.6934H200.783V58.1387L200.075 64.1934H193.752V26.6934ZM217.507 50.7168V51.2295C217.507 53.1989 217.295 55.0055 216.872 56.6494C216.465 58.2933 215.83 59.7174 214.968 60.9219C214.105 62.11 213.031 63.0378 211.745 63.7051C210.476 64.3561 208.978 64.6816 207.253 64.6816C205.642 64.6816 204.242 64.3561 203.054 63.7051C201.882 63.054 200.897 62.1344 200.1 60.9463C199.302 59.7581 198.659 58.3665 198.171 56.7715C197.683 55.1764 197.316 53.4349 197.072 51.5469V50.4238C197.316 48.5358 197.683 46.7943 198.171 45.1992C198.659 43.6042 199.302 42.2126 200.1 41.0244C200.897 39.8363 201.882 38.9167 203.054 38.2656C204.226 37.6146 205.609 37.2891 207.204 37.2891C208.946 37.2891 210.459 37.6227 211.745 38.29C213.047 38.9411 214.121 39.8688 214.968 41.0732C215.83 42.2614 216.465 43.6774 216.872 45.3213C217.295 46.9489 217.507 48.7474 217.507 50.7168ZM210.476 51.2295V50.7168C210.476 49.6426 210.394 48.6335 210.231 47.6895C210.085 46.7292 209.825 45.891 209.45 45.1748C209.076 44.4424 208.563 43.8646 207.912 43.4414C207.277 43.0182 206.455 42.8066 205.446 42.8066C204.486 42.8066 203.672 42.9694 203.005 43.2949C202.338 43.6204 201.784 44.0762 201.345 44.6621C200.922 45.248 200.604 45.9479 200.393 46.7617C200.181 47.5592 200.051 48.4382 200.002 49.3984V52.5967C200.051 53.8825 200.262 55.0218 200.637 56.0146C201.027 56.9912 201.613 57.7643 202.395 58.334C203.192 58.8874 204.226 59.1641 205.495 59.1641C206.488 59.1641 207.31 58.9688 207.961 58.5781C208.612 58.1875 209.117 57.6341 209.475 56.918C209.849 56.2018 210.109 55.3636 210.256 54.4033C210.402 53.4268 210.476 52.3688 210.476 51.2295ZM230.837 64.1934H223.757V35.4336C223.757 33.4316 224.147 31.7471 224.929 30.3799C225.726 28.9964 226.841 27.9548 228.273 27.2549C229.722 26.5387 231.439 26.1807 233.425 26.1807C234.076 26.1807 234.702 26.2295 235.305 26.3271C235.907 26.4085 236.493 26.5143 237.062 26.6445L236.989 31.9424C236.68 31.861 236.354 31.804 236.013 31.7715C235.671 31.7389 235.272 31.7227 234.816 31.7227C233.97 31.7227 233.246 31.8691 232.644 32.1621C232.058 32.4388 231.61 32.8538 231.301 33.4072C230.992 33.9606 230.837 34.6361 230.837 35.4336V64.1934ZM236.11 37.7773V42.7578H219.826V37.7773H236.11ZM248.757 64.1934H241.677V35.4336C241.677 33.4316 242.067 31.7471 242.849 30.3799C243.646 28.9964 244.761 27.9548 246.193 27.2549C247.642 26.5387 249.359 26.1807 251.345 26.1807C251.996 26.1807 252.622 26.2295 253.225 26.3271C253.827 26.4085 254.413 26.5143 254.982 26.6445L254.909 31.9424C254.6 31.861 254.274 31.804 253.933 31.7715C253.591 31.7389 253.192 31.7227 252.736 31.7227C251.89 31.7227 251.166 31.8691 250.563 32.1621C249.978 32.4388 249.53 32.8538 249.221 33.4072C248.911 33.9606 248.757 34.6361 248.757 35.4336V64.1934ZM254.03 37.7773V42.7578H237.746V37.7773H254.03Z" fill="#333333"/>
<rect x="148" y="170.193" width="191" height="91" rx="45.5" fill="white" stroke="#CDCDCD" stroke-width="2"/>
<path d="M185.053 195.693H192.084V227.139L191.376 233.193H185.053V195.693ZM208.808 219.717V220.229C208.808 222.199 208.596 224.006 208.173 225.649C207.766 227.293 207.131 228.717 206.269 229.922C205.406 231.11 204.332 232.038 203.046 232.705C201.776 233.356 200.279 233.682 198.554 233.682C196.942 233.682 195.543 233.356 194.354 232.705C193.183 232.054 192.198 231.134 191.4 229.946C190.603 228.758 189.96 227.367 189.472 225.771C188.983 224.176 188.617 222.435 188.373 220.547V219.424C188.617 217.536 188.983 215.794 189.472 214.199C189.96 212.604 190.603 211.213 191.4 210.024C192.198 208.836 193.183 207.917 194.354 207.266C195.526 206.615 196.91 206.289 198.505 206.289C200.246 206.289 201.76 206.623 203.046 207.29C204.348 207.941 205.422 208.869 206.269 210.073C207.131 211.261 207.766 212.677 208.173 214.321C208.596 215.949 208.808 217.747 208.808 219.717ZM201.776 220.229V219.717C201.776 218.643 201.695 217.633 201.532 216.689C201.386 215.729 201.125 214.891 200.751 214.175C200.377 213.442 199.864 212.865 199.213 212.441C198.578 212.018 197.756 211.807 196.747 211.807C195.787 211.807 194.973 211.969 194.306 212.295C193.638 212.62 193.085 213.076 192.646 213.662C192.222 214.248 191.905 214.948 191.693 215.762C191.482 216.559 191.352 217.438 191.303 218.398V221.597C191.352 222.882 191.563 224.022 191.938 225.015C192.328 225.991 192.914 226.764 193.695 227.334C194.493 227.887 195.526 228.164 196.796 228.164C197.789 228.164 198.611 227.969 199.262 227.578C199.913 227.188 200.417 226.634 200.775 225.918C201.15 225.202 201.41 224.364 201.557 223.403C201.703 222.427 201.776 221.369 201.776 220.229ZM220.6 195.693V233.193H213.544V195.693H220.6ZM225.287 220.254V219.741C225.287 217.804 225.564 216.022 226.117 214.395C226.671 212.751 227.476 211.326 228.534 210.122C229.592 208.918 230.894 207.982 232.44 207.314C233.987 206.631 235.761 206.289 237.763 206.289C239.765 206.289 241.547 206.631 243.109 207.314C244.672 207.982 245.982 208.918 247.04 210.122C248.114 211.326 248.928 212.751 249.481 214.395C250.035 216.022 250.312 217.804 250.312 219.741V220.254C250.312 222.174 250.035 223.957 249.481 225.601C248.928 227.228 248.114 228.652 247.04 229.873C245.982 231.077 244.68 232.013 243.134 232.681C241.588 233.348 239.813 233.682 237.812 233.682C235.81 233.682 234.027 233.348 232.465 232.681C230.919 232.013 229.608 231.077 228.534 229.873C227.476 228.652 226.671 227.228 226.117 225.601C225.564 223.957 225.287 222.174 225.287 220.254ZM232.318 219.741V220.254C232.318 221.361 232.416 222.394 232.611 223.354C232.807 224.315 233.116 225.161 233.539 225.894C233.979 226.61 234.548 227.171 235.248 227.578C235.948 227.985 236.802 228.188 237.812 228.188C238.788 228.188 239.626 227.985 240.326 227.578C241.026 227.171 241.588 226.61 242.011 225.894C242.434 225.161 242.743 224.315 242.938 223.354C243.15 222.394 243.256 221.361 243.256 220.254V219.741C243.256 218.667 243.15 217.658 242.938 216.714C242.743 215.754 242.426 214.907 241.986 214.175C241.563 213.426 241.002 212.84 240.302 212.417C239.602 211.994 238.756 211.782 237.763 211.782C236.77 211.782 235.924 211.994 235.224 212.417C234.54 212.84 233.979 213.426 233.539 214.175C233.116 214.907 232.807 215.754 232.611 216.714C232.416 217.658 232.318 218.667 232.318 219.741ZM265.546 228.188C266.409 228.188 267.174 228.026 267.841 227.7C268.508 227.358 269.029 226.886 269.403 226.284C269.794 225.666 269.997 224.941 270.014 224.111H276.63C276.614 225.967 276.117 227.619 275.141 229.067C274.164 230.5 272.854 231.631 271.21 232.461C269.566 233.275 267.727 233.682 265.692 233.682C263.642 233.682 261.851 233.34 260.321 232.656C258.808 231.973 257.546 231.029 256.537 229.824C255.528 228.604 254.771 227.188 254.267 225.576C253.762 223.949 253.51 222.207 253.51 220.352V219.644C253.51 217.772 253.762 216.03 254.267 214.419C254.771 212.791 255.528 211.375 256.537 210.171C257.546 208.95 258.808 207.998 260.321 207.314C261.835 206.631 263.609 206.289 265.644 206.289C267.808 206.289 269.704 206.704 271.332 207.534C272.976 208.364 274.262 209.552 275.189 211.099C276.133 212.629 276.614 214.443 276.63 216.543H270.014C269.997 215.664 269.81 214.867 269.452 214.15C269.11 213.434 268.606 212.865 267.938 212.441C267.287 212.002 266.482 211.782 265.521 211.782C264.496 211.782 263.658 212.002 263.007 212.441C262.356 212.865 261.851 213.451 261.493 214.199C261.135 214.932 260.883 215.77 260.736 216.714C260.606 217.642 260.541 218.618 260.541 219.644V220.352C260.541 221.377 260.606 222.362 260.736 223.306C260.867 224.25 261.111 225.088 261.469 225.82C261.843 226.553 262.356 227.131 263.007 227.554C263.658 227.977 264.504 228.188 265.546 228.188ZM287.738 195.669V233.193H280.707V195.669H287.738ZM304.389 206.777L292.914 219.863L286.762 226.089L284.198 221.011L289.081 214.81L295.941 206.777H304.389ZM297.089 233.193L289.276 220.986L294.135 216.738L305.194 233.193H297.089Z" fill="#FF0000"/>
<rect x="320" y="1.19336" width="210" height="91" rx="45.5" fill="white" stroke="#CDCDCD" stroke-width="2"/>
<path d="M369.81 59.1885C370.672 59.1885 371.437 59.0257 372.104 58.7002C372.772 58.3584 373.293 57.8864 373.667 57.2842C374.058 56.6657 374.261 55.9414 374.277 55.1113H380.894C380.877 56.9668 380.381 58.6188 379.404 60.0674C378.428 61.4997 377.118 62.6309 375.474 63.4609C373.83 64.2747 371.991 64.6816 369.956 64.6816C367.905 64.6816 366.115 64.3398 364.585 63.6562C363.071 62.9727 361.81 62.0286 360.801 60.8242C359.792 59.6035 359.035 58.1875 358.53 56.5762C358.026 54.9486 357.773 53.207 357.773 51.3516V50.6436C357.773 48.7718 358.026 47.0303 358.53 45.4189C359.035 43.7913 359.792 42.3753 360.801 41.1709C361.81 39.9502 363.071 38.998 364.585 38.3145C366.099 37.6309 367.873 37.2891 369.907 37.2891C372.072 37.2891 373.968 37.7041 375.596 38.5342C377.24 39.3643 378.525 40.5524 379.453 42.0986C380.397 43.6286 380.877 45.4434 380.894 47.543H374.277C374.261 46.6641 374.074 45.8665 373.716 45.1504C373.374 44.4342 372.869 43.8646 372.202 43.4414C371.551 43.002 370.745 42.7822 369.785 42.7822C368.76 42.7822 367.922 43.002 367.271 43.4414C366.619 43.8646 366.115 44.4505 365.757 45.1992C365.399 45.9316 365.146 46.7699 365 47.7139C364.87 48.6416 364.805 49.6182 364.805 50.6436V51.3516C364.805 52.377 364.87 53.3617 365 54.3057C365.13 55.2497 365.374 56.0879 365.732 56.8203C366.107 57.5527 366.619 58.1305 367.271 58.5537C367.922 58.9769 368.768 59.1885 369.81 59.1885ZM392.002 43.5391V64.1934H384.971V37.7773H391.587L392.002 43.5391ZM399.961 37.6064L399.839 44.125C399.497 44.0762 399.082 44.0355 398.594 44.0029C398.122 43.9541 397.69 43.9297 397.3 43.9297C396.307 43.9297 395.444 44.0599 394.712 44.3203C393.996 44.5645 393.394 44.9307 392.905 45.4189C392.433 45.9072 392.075 46.5013 391.831 47.2012C391.603 47.901 391.473 48.6986 391.44 49.5938L390.024 49.1543C390.024 47.4453 390.195 45.8747 390.537 44.4424C390.879 42.9938 391.375 41.7324 392.026 40.6582C392.694 39.584 393.507 38.7539 394.468 38.168C395.428 37.582 396.527 37.2891 397.764 37.2891C398.154 37.2891 398.553 37.3216 398.96 37.3867C399.367 37.4355 399.701 37.5088 399.961 37.6064ZM411.558 61.2148L418.564 37.7773H426.108L415.488 68.1729C415.26 68.8402 414.951 69.5563 414.561 70.3213C414.186 71.0863 413.674 71.8105 413.022 72.4941C412.388 73.194 411.582 73.7637 410.605 74.2031C409.645 74.6426 408.465 74.8623 407.065 74.8623C406.398 74.8623 405.853 74.8216 405.43 74.7402C405.007 74.6589 404.502 74.5449 403.916 74.3984V69.2471C404.095 69.2471 404.282 69.2471 404.478 69.2471C404.673 69.2633 404.86 69.2715 405.039 69.2715C405.967 69.2715 406.724 69.1657 407.31 68.9541C407.896 68.7425 408.368 68.417 408.726 67.9775C409.084 67.5544 409.368 67.001 409.58 66.3174L411.558 61.2148ZM408.628 37.7773L414.365 56.918L415.366 64.3643L410.581 64.877L401.084 37.7773H408.628ZM435.947 42.8555V74.3496H428.916V37.7773H435.435L435.947 42.8555ZM452.671 50.6924V51.2051C452.671 53.1257 452.443 54.9079 451.987 56.5518C451.548 58.1956 450.897 59.6279 450.034 60.8486C449.172 62.0531 448.097 62.9971 446.812 63.6807C445.542 64.348 444.077 64.6816 442.417 64.6816C440.806 64.6816 439.406 64.3561 438.218 63.7051C437.03 63.054 436.029 62.1426 435.215 60.9707C434.417 59.7826 433.774 58.4072 433.286 56.8447C432.798 55.2822 432.424 53.6058 432.163 51.8154V50.4727C432.424 48.5521 432.798 46.7943 433.286 45.1992C433.774 43.5879 434.417 42.1963 435.215 41.0244C436.029 39.8363 437.021 38.9167 438.193 38.2656C439.382 37.6146 440.773 37.2891 442.368 37.2891C444.045 37.2891 445.518 37.6064 446.787 38.2412C448.073 38.876 449.147 39.7874 450.01 40.9756C450.889 42.1637 451.548 43.5798 451.987 45.2236C452.443 46.8675 452.671 48.6904 452.671 50.6924ZM445.615 51.2051V50.6924C445.615 49.5693 445.518 48.5358 445.322 47.5918C445.143 46.6315 444.85 45.7933 444.443 45.0771C444.053 44.361 443.532 43.8076 442.881 43.417C442.246 43.0101 441.473 42.8066 440.562 42.8066C439.601 42.8066 438.779 42.9613 438.096 43.2705C437.428 43.5798 436.883 44.0273 436.46 44.6133C436.037 45.1992 435.719 45.8991 435.508 46.7129C435.296 47.5267 435.166 48.4463 435.117 49.4717V52.8652C435.199 54.0697 435.426 55.152 435.801 56.1123C436.175 57.0563 436.753 57.805 437.534 58.3584C438.315 58.9118 439.341 59.1885 440.61 59.1885C441.538 59.1885 442.319 58.985 442.954 58.5781C443.589 58.1549 444.102 57.5771 444.492 56.8447C444.899 56.1123 445.184 55.266 445.347 54.3057C445.526 53.3454 445.615 52.3118 445.615 51.2051ZM469.98 37.7773V42.7578H454.6V37.7773H469.98ZM458.408 31.2588H465.439V56.2344C465.439 56.9993 465.537 57.5853 465.732 57.9922C465.944 58.3991 466.253 58.6839 466.66 58.8467C467.067 58.9932 467.58 59.0664 468.198 59.0664C468.638 59.0664 469.028 59.0501 469.37 59.0176C469.728 58.9688 470.029 58.9199 470.273 58.8711L470.298 64.0469C469.696 64.2422 469.045 64.3968 468.345 64.5107C467.645 64.6247 466.872 64.6816 466.025 64.6816C464.479 64.6816 463.128 64.4294 461.973 63.9248C460.833 63.404 459.954 62.5739 459.336 61.4346C458.717 60.2952 458.408 58.7979 458.408 56.9424V31.2588ZM472.227 51.2539V50.7412C472.227 48.8044 472.503 47.0221 473.057 45.3945C473.61 43.7507 474.416 42.3265 475.474 41.1221C476.532 39.9176 477.834 38.9818 479.38 38.3145C480.926 37.6309 482.7 37.2891 484.702 37.2891C486.704 37.2891 488.486 37.6309 490.049 38.3145C491.611 38.9818 492.922 39.9176 493.979 41.1221C495.054 42.3265 495.868 43.7507 496.421 45.3945C496.974 47.0221 497.251 48.8044 497.251 50.7412V51.2539C497.251 53.1745 496.974 54.9567 496.421 56.6006C495.868 58.2282 495.054 59.6523 493.979 60.873C492.922 62.0775 491.619 63.0133 490.073 63.6807C488.527 64.348 486.753 64.6816 484.751 64.6816C482.749 64.6816 480.967 64.348 479.404 63.6807C477.858 63.0133 476.548 62.0775 475.474 60.873C474.416 59.6523 473.61 58.2282 473.057 56.6006C472.503 54.9567 472.227 53.1745 472.227 51.2539ZM479.258 50.7412V51.2539C479.258 52.3607 479.355 53.3942 479.551 54.3545C479.746 55.3148 480.055 56.1611 480.479 56.8936C480.918 57.6097 481.488 58.1712 482.188 58.5781C482.887 58.985 483.742 59.1885 484.751 59.1885C485.728 59.1885 486.566 58.985 487.266 58.5781C487.965 58.1712 488.527 57.6097 488.95 56.8936C489.373 56.1611 489.683 55.3148 489.878 54.3545C490.09 53.3942 490.195 52.3607 490.195 51.2539V50.7412C490.195 49.667 490.09 48.6579 489.878 47.7139C489.683 46.7536 489.365 45.9072 488.926 45.1748C488.503 44.4261 487.941 43.8402 487.241 43.417C486.541 42.9938 485.695 42.7822 484.702 42.7822C483.709 42.7822 482.863 42.9938 482.163 43.417C481.479 43.8402 480.918 44.4261 480.479 45.1748C480.055 45.9072 479.746 46.7536 479.551 47.7139C479.355 48.6579 479.258 49.667 479.258 50.7412Z" fill="#333333"/>
<path d="M0 253.443H75V178.443H0V253.443Z" fill="#333333"/>
<path d="M0 84.4434H75V9.44336H0V84.4434Z" fill="#333333"/>
</svg>
