<svg width="3868" height="2448" viewBox="0 0 3868 2448" fill="none" xmlns="http://www.w3.org/2000/svg">
<path d="M49.8392 1308.54C70.4984 1251.66 139.532 1141.77 250.393 1157.25C388.968 1176.6 541.928 1343.54 694.294 1259.95C846.66 1176.35 850.814 931.381 1011.9 887.117C1172.99 842.853 1388.75 1073.5 1586.41 1031.84C1784.07 990.175 1796.76 834.055 1951.92 741.592C2107.09 649.128 2433.08 782.89 2512.85 666.633" stroke="url(#paint0_linear_2222_4449)" stroke-opacity="0.4" stroke-width="20"/>
<path d="M522.639 2277.12C511.609 2118.97 601.874 1795.42 1051.17 1766.44C1612.8 1730.21 1669.06 1869.8 1917.3 1667.95C2165.54 1466.09 2146.26 1229.11 2490.36 1313.31C2834.45 1397.52 3081.52 1423.02 3291.43 1285.11C3501.35 1147.2 3438.45 986.307 3822.73 1044.7" stroke="url(#paint1_linear_2222_4449)" stroke-opacity="0.4" stroke-width="20"/>
<path d="M71.2417 1356.21C90.9065 1298.09 157.672 1187.3 268.184 1196.82C405.133 1209.71 559.951 1364.4 714.645 1284.92C885.169 1208.27 887.333 982.027 1054 931.509C1220.67 880.992 1430.59 1086.99 1633.3 1052.85C1836.01 1018.71 1857.44 873.87 2015.42 780.042C2173.39 686.214 2484.29 801.706 2576.03 697.14" stroke="url(#paint2_linear_2222_4449)" stroke-opacity="0.4" stroke-width="20"/>
<path d="M92.7581 1403.7C111.402 1344.35 175.887 1232.71 285.923 1236.29C421.112 1242.77 577.514 1385.17 734.657 1309.75C923.525 1239.58 924.151 1032.08 1096.27 975.17C1268.4 918.26 1471.9 1099.79 1679.88 1073.03C1887.85 1046.28 1918.29 912.497 2079.07 817.223C2239.85 721.95 2535.26 819.555 2639.26 726.375" stroke="url(#paint3_linear_2222_4449)" stroke-opacity="0.4" stroke-width="20"/>
<path d="M114.386 1451.02C131.982 1390.46 194.176 1278 303.61 1275.65C436.903 1275.76 594.617 1405.87 754.329 1334.43C961.719 1270.3 961.258 1081.54 1138.7 1018.09C1316.15 954.653 1512.69 1111.89 1726.13 1092.4C1939.57 1072.91 1979.29 949.931 2142.86 853.131C2306.43 756.331 2585.98 836.442 2702.52 754.336" stroke="url(#paint4_linear_2222_4449)" stroke-opacity="0.4" stroke-width="20"/>
<path d="M136.125 1498.17C152.646 1436.41 212.539 1323.17 321.243 1314.91C452.508 1308.7 611.26 1426.51 773.659 1358.97C999.74 1300.42 998.644 1130.39 1181.28 1060.28C1363.91 990.174 1552.94 1123.32 1772.05 1110.95C1991.16 1098.58 2040.42 986.172 2206.77 887.765C2373.12 789.357 2636.42 852.371 2765.79 781.021" stroke="url(#paint5_linear_2222_4449)" stroke-opacity="0.4" stroke-width="20"/>
<path d="M157.974 1545.14C173.394 1482.21 230.977 1368.23 338.825 1354.07C467.929 1341.59 627.446 1447.09 792.648 1383.38C1037.58 1329.95 1036.3 1178.64 1223.99 1101.73C1411.68 1024.82 1592.64 1134.09 1817.62 1128.7C2042.6 1123.31 2101.67 1021.22 2270.77 921.12C2439.88 821.024 2686.57 867.346 2829.04 806.429" stroke="url(#paint6_linear_2222_4449)" stroke-opacity="0.4" stroke-width="20"/>
<path d="M179.944 1591.94C194.238 1527.85 249.502 1413.17 356.368 1393.14C483.179 1374.43 643.188 1467.63 811.309 1407.68C1075.25 1358.9 1074.23 1226.28 1266.84 1142.44C1459.44 1058.6 1631.79 1144.2 1862.84 1145.65C2093.89 1147.1 2163.02 1055.06 2334.87 953.198C2506.72 851.332 2736.43 881.374 2892.27 830.563" stroke="url(#paint7_linear_2222_4449)" stroke-opacity="0.4" stroke-width="20"/>
<path d="M202.039 1638.57C215.181 1573.33 268.116 1457.99 373.875 1432.1C498.263 1407.24 658.49 1488.13 829.644 1431.85C1112.74 1387.26 1112.43 1273.31 1309.81 1182.4C1507.19 1091.5 1670.38 1153.66 1907.7 1161.8C2145.02 1169.94 2224.45 1087.71 2399.03 983.994C2573.6 880.278 2785.99 894.457 2955.46 853.419" stroke="url(#paint8_linear_2222_4449)" stroke-opacity="0.4" stroke-width="20"/>
<path d="M224.252 1685.01C236.216 1618.65 286.816 1502.69 391.342 1470.97C513.176 1440 673.35 1508.6 847.648 1455.91C1150.03 1415.03 1150.89 1319.71 1352.9 1221.62C1554.91 1123.53 1708.41 1162.49 1952.19 1177.17C2195.97 1191.84 2285.95 1119.15 2463.23 1013.5C2640.51 907.858 2835.22 906.597 3018.58 874.996" stroke="url(#paint9_linear_2222_4449)" stroke-opacity="0.4" stroke-width="20"/>
<path d="M246.584 1731.28C257.345 1663.81 305.602 1547.27 408.771 1509.75C527.923 1472.73 687.77 1529.05 865.323 1479.86C1187.12 1442.24 1189.59 1365.49 1396.09 1260.09C1602.59 1154.69 1745.85 1170.69 1996.29 1191.75C2246.73 1212.8 2347.49 1149.39 2527.45 1041.73C2707.41 934.073 2884.12 917.8 3081.61 895.294" stroke="url(#paint10_linear_2222_4449)" stroke-opacity="0.4" stroke-width="20"/>
<path d="M269.033 1777.36C278.567 1708.81 324.474 1591.72 426.161 1548.43C542.503 1505.42 701.752 1549.49 882.669 1503.71C1224 1468.86 1228.53 1410.64 1439.37 1297.81C1650.21 1184.98 1782.71 1178.27 2039.99 1205.55C2297.27 1232.82 2409.05 1178.41 2591.67 1068.66C2774.3 958.917 2932.66 928.069 3144.53 914.311" stroke="url(#paint11_linear_2222_4449)" stroke-opacity="0.4" stroke-width="20"/>
<path d="M291.597 1823.26C299.879 1753.64 343.431 1636.05 443.512 1587.02C556.918 1538.08 715.297 1569.92 899.685 1527.47C1260.66 1494.91 1267.69 1455.15 1482.72 1334.77C1697.75 1214.39 1818.98 1185.24 2083.28 1218.58C2347.58 1251.91 2470.62 1206.23 2655.88 1094.31C2841.13 982.392 2980.83 937.409 3207.32 932.049" stroke="url(#paint12_linear_2222_4449)" stroke-opacity="0.4" stroke-width="20"/>
<path d="M314.275 1868.97C321.281 1798.31 362.473 1680.26 460.824 1625.52C571.169 1570.72 728.405 1590.35 916.371 1551.14C1297.09 1520.4 1307.08 1499.03 1526.14 1370.98C1745.21 1242.93 1854.64 1191.62 2126.15 1230.84C2397.66 1270.07 2532.17 1232.83 2720.03 1118.66C2907.9 1004.5 3028.62 945.826 3269.95 948.507" stroke="url(#paint13_linear_2222_4449)" stroke-opacity="0.4" stroke-width="20"/>
<path d="M337.065 1914.5C342.771 1842.82 381.598 1724.34 478.097 1663.93C585.256 1603.33 741.08 1610.79 932.728 1574.72C1333.29 1545.32 1346.66 1542.25 1569.61 1406.42C1792.56 1270.59 1889.68 1197.4 2168.57 1242.35C2447.47 1287.3 2593.68 1258.22 2784.12 1141.72C2974.57 1025.23 3076 953.321 3332.4 963.684" stroke="url(#paint14_linear_2222_4449)" stroke-opacity="0.4" stroke-width="20"/>
<path d="M359.966 1959.83C364.349 1887.15 400.805 1768.29 495.331 1702.24C599.18 1635.91 753.323 1631.24 948.754 1598.23C1369.24 1569.68 1386.45 1584.83 1613.12 1441.11C1839.8 1297.38 1924.09 1202.6 2210.55 1253.1C2497.01 1303.6 2655.13 1282.39 2848.13 1163.49C3041.12 1044.58 3122.97 959.899 3394.66 977.581" stroke="url(#paint15_linear_2222_4449)" stroke-opacity="0.4" stroke-width="20"/>
<path d="M382.976 2004.97C386.012 1931.31 420.095 1812.1 512.525 1740.46C612.943 1668.48 765.135 1651.71 964.45 1621.65C1404.93 1593.47 1426.42 1626.75 1656.66 1475.03C1886.91 1323.3 1957.87 1207.23 2252.06 1263.1C2546.26 1318.97 2716.5 1305.34 2912.01 1183.95C3107.53 1062.57 3169.51 965.567 3456.7 990.198" stroke="url(#paint16_linear_2222_4449)" stroke-opacity="0.4" stroke-width="20"/>
<path d="M406.093 2049.92C407.759 1975.29 439.467 1855.79 529.68 1778.58C626.547 1701.03 776.518 1672.22 979.816 1645.01C1440.37 1616.71 1466.56 1668.02 1700.21 1508.18C1933.87 1348.35 1991 1211.3 2293.11 1272.36C2595.21 1333.42 2777.77 1327.08 2975.77 1203.13C3173.77 1079.18 3215.59 970.33 3518.49 1001.54" stroke="url(#paint17_linear_2222_4449)" stroke-opacity="0.4" stroke-width="20"/>
<path d="M429.302 2094.82C429.576 2019.26 458.906 1899.49 546.782 1816.77C639.977 1733.71 787.461 1692.91 994.84 1668.46C1475.51 1639.55 1506.86 1708.77 1743.75 1540.73C1980.65 1372.68 2023.47 1214.97 2333.65 1281.04C2643.82 1347.11 2838.9 1347.75 3039.36 1221.16C3239.81 1094.57 3261.21 974.346 3580 1011.76" stroke="url(#paint18_linear_2222_4449)" stroke-opacity="0.4" stroke-width="20"/>
<path d="M452.558 2140.15C451.418 2063.67 478.368 1943.68 563.789 1855.5C653.195 1767.01 797.925 1714.28 1009.48 1692.48C1510.33 1662.48 1547.25 1749.49 1787.23 1573.13C2027.21 1396.77 2055.22 1218.73 2373.63 1289.62C2692.04 1360.51 2899.84 1367.83 3102.71 1238.52C3305.58 1109.22 3306.28 978.095 3641.17 1021.33" stroke="url(#paint19_linear_2222_4449)" stroke-opacity="0.4" stroke-width="20"/>
<path d="M475.902 2185.77C473.325 2108.4 497.895 1988.22 580.741 1894.63C666.241 1800.79 807.952 1736.19 1023.77 1716.93C1544.83 1685.34 1587.77 1790.02 1830.67 1605.25C2073.56 1420.49 2086.29 1222.45 2413.09 1297.97C2739.9 1373.49 2960.6 1387.19 3165.85 1255.09C3371.1 1122.98 3350.85 981.447 3702.01 1030.12" stroke="url(#paint20_linear_2222_4449)" stroke-opacity="0.4" stroke-width="20"/>
<path d="M500.324 2233.46C496.29 2155.22 518.478 2034.9 598.631 1935.93C680.11 1836.83 818.537 1760.43 1038.72 1743.61C1580.02 1709.94 1629.41 1832.15 1875.05 1638.88C2120.69 1445.61 2117.65 1227.92 2453.01 1307.88C2788.36 1387.84 3022.15 1407.6 3229.74 1272.63C3437.34 1137.66 3395.89 986.19 3763.5 1039.92" stroke="url(#paint21_linear_2222_4449)" stroke-opacity="0.4" stroke-width="20"/>
<defs>
<linearGradient id="paint0_linear_2222_4449" x1="1484.99" y1="342.268" x2="1077.7" y2="1632.91" gradientUnits="userSpaceOnUse">
<stop stop-color="#FFF500" stop-opacity="0.6"/>
<stop offset="1" stop-color="#FF79C9"/>
</linearGradient>
<linearGradient id="paint1_linear_2222_4449" x1="2208.77" y1="953.453" x2="2134.13" y2="2362.48" gradientUnits="userSpaceOnUse">
<stop stop-color="#FFF500" stop-opacity="0.6"/>
<stop offset="1" stop-color="#FF79C9"/>
</linearGradient>
<linearGradient id="paint2_linear_2222_4449" x1="1519.86" y1="377.766" x2="1127.41" y2="1675.58" gradientUnits="userSpaceOnUse">
<stop stop-color="#FFF500" stop-opacity="0.6"/>
<stop offset="1" stop-color="#FF79C9"/>
</linearGradient>
<linearGradient id="paint3_linear_2222_4449" x1="1554.75" y1="412.628" x2="1177.27" y2="1717.45" gradientUnits="userSpaceOnUse">
<stop stop-color="#FFF500" stop-opacity="0.6"/>
<stop offset="1" stop-color="#FF79C9"/>
</linearGradient>
<linearGradient id="paint4_linear_2222_4449" x1="1589.66" y1="446.851" x2="1227.25" y2="1758.51" gradientUnits="userSpaceOnUse">
<stop stop-color="#FFF500" stop-opacity="0.6"/>
<stop offset="1" stop-color="#FF79C9"/>
</linearGradient>
<linearGradient id="paint5_linear_2222_4449" x1="1624.57" y1="480.438" x2="1277.34" y2="1798.75" gradientUnits="userSpaceOnUse">
<stop stop-color="#FFF500" stop-opacity="0.6"/>
<stop offset="1" stop-color="#FF79C9"/>
</linearGradient>
<linearGradient id="paint6_linear_2222_4449" x1="1659.47" y1="513.387" x2="1327.54" y2="1838.18" gradientUnits="userSpaceOnUse">
<stop stop-color="#FFF500" stop-opacity="0.6"/>
<stop offset="1" stop-color="#FF79C9"/>
</linearGradient>
<linearGradient id="paint7_linear_2222_4449" x1="1694.37" y1="545.699" x2="1377.83" y2="1876.8" gradientUnits="userSpaceOnUse">
<stop stop-color="#FFF500" stop-opacity="0.6"/>
<stop offset="1" stop-color="#FF79C9"/>
</linearGradient>
<linearGradient id="paint8_linear_2222_4449" x1="1729.24" y1="577.372" x2="1428.2" y2="1914.6" gradientUnits="userSpaceOnUse">
<stop stop-color="#FFF500" stop-opacity="0.6"/>
<stop offset="1" stop-color="#FF79C9"/>
</linearGradient>
<linearGradient id="paint9_linear_2222_4449" x1="1764.08" y1="608.404" x2="1478.64" y2="1951.58" gradientUnits="userSpaceOnUse">
<stop stop-color="#FFF500" stop-opacity="0.6"/>
<stop offset="1" stop-color="#FF79C9"/>
</linearGradient>
<linearGradient id="paint10_linear_2222_4449" x1="1798.87" y1="638.798" x2="1529.14" y2="1987.74" gradientUnits="userSpaceOnUse">
<stop stop-color="#FFF500" stop-opacity="0.6"/>
<stop offset="1" stop-color="#FF79C9"/>
</linearGradient>
<linearGradient id="paint11_linear_2222_4449" x1="1833.61" y1="668.551" x2="1579.67" y2="2023.07" gradientUnits="userSpaceOnUse">
<stop stop-color="#FFF500" stop-opacity="0.6"/>
<stop offset="1" stop-color="#FF79C9"/>
</linearGradient>
<linearGradient id="paint12_linear_2222_4449" x1="1868.28" y1="697.664" x2="1630.24" y2="2057.57" gradientUnits="userSpaceOnUse">
<stop stop-color="#FFF500" stop-opacity="0.6"/>
<stop offset="1" stop-color="#FF79C9"/>
</linearGradient>
<linearGradient id="paint13_linear_2222_4449" x1="1902.87" y1="726.138" x2="1680.82" y2="2091.26" gradientUnits="userSpaceOnUse">
<stop stop-color="#FFF500" stop-opacity="0.6"/>
<stop offset="1" stop-color="#FF79C9"/>
</linearGradient>
<linearGradient id="paint14_linear_2222_4449" x1="1937.38" y1="753.971" x2="1731.4" y2="2124.11" gradientUnits="userSpaceOnUse">
<stop stop-color="#FFF500" stop-opacity="0.6"/>
<stop offset="1" stop-color="#FF79C9"/>
</linearGradient>
<linearGradient id="paint15_linear_2222_4449" x1="1971.78" y1="781.164" x2="1781.98" y2="2156.13" gradientUnits="userSpaceOnUse">
<stop stop-color="#FFF500" stop-opacity="0.6"/>
<stop offset="1" stop-color="#FF79C9"/>
</linearGradient>
<linearGradient id="paint16_linear_2222_4449" x1="2006.08" y1="807.716" x2="1832.53" y2="2187.32" gradientUnits="userSpaceOnUse">
<stop stop-color="#FFF500" stop-opacity="0.6"/>
<stop offset="1" stop-color="#FF79C9"/>
</linearGradient>
<linearGradient id="paint17_linear_2222_4449" x1="2040.25" y1="833.631" x2="1883.04" y2="2217.68" gradientUnits="userSpaceOnUse">
<stop stop-color="#FFF500" stop-opacity="0.6"/>
<stop offset="1" stop-color="#FF79C9"/>
</linearGradient>
<linearGradient id="paint18_linear_2222_4449" x1="2074.29" y1="858.91" x2="1933.49" y2="2247.37" gradientUnits="userSpaceOnUse">
<stop stop-color="#FFF500" stop-opacity="0.6"/>
<stop offset="1" stop-color="#FF79C9"/>
</linearGradient>
<linearGradient id="paint19_linear_2222_4449" x1="2108.19" y1="883.55" x2="1983.81" y2="2276.84" gradientUnits="userSpaceOnUse">
<stop stop-color="#FFF500" stop-opacity="0.6"/>
<stop offset="1" stop-color="#FF79C9"/>
</linearGradient>
<linearGradient id="paint20_linear_2222_4449" x1="2141.93" y1="907.556" x2="2034.05" y2="2305.98" gradientUnits="userSpaceOnUse">
<stop stop-color="#FFF500" stop-opacity="0.6"/>
<stop offset="1" stop-color="#FF79C9"/>
</linearGradient>
<linearGradient id="paint21_linear_2222_4449" x1="2176.48" y1="932.839" x2="2085.17" y2="2336.55" gradientUnits="userSpaceOnUse">
<stop stop-color="#FFF500" stop-opacity="0.6"/>
<stop offset="1" stop-color="#FF79C9"/>
</linearGradient>
</defs>
</svg>
