<svg width="3714" height="2480" viewBox="0 0 3714 2480" fill="none" xmlns="http://www.w3.org/2000/svg">
<path d="M98.4958 1214.13C120.875 1162.33 191.216 1063.87 293.545 1084.41C421.457 1110.1 554.584 1273.95 701.032 1204.58C847.48 1135.21 864.913 907.429 1017.3 875.149C1169.69 842.87 1357.74 1069.5 1544.03 1041.67C1730.31 1013.84 1750.77 869.225 1900.31 791.755C2049.86 714.285 2345.88 856.841 2426.56 753.048" stroke="url(#paint0_linear_2289_4508)" stroke-opacity="0.3" stroke-width="20"/>
<path d="M484.93 2141.84C483.422 1994.03 585.356 1697.87 1005.16 1695.78C1529.92 1693.16 1574.55 1826.21 1816.79 1652.07C2059.02 1477.94 2054.2 1256.29 2369.82 1353.72C2685.43 1451.15 2913.98 1488.57 3117 1371.83C3320.02 1255.1 3270.39 1101.85 3624.84 1177.48" stroke="url(#paint1_linear_2289_4508)" stroke-opacity="0.3" stroke-width="20"/>
<path d="M115.778 1259.68C137.3 1206.67 205.579 1107.25 307.914 1122.23C434.67 1141.81 570.204 1294.36 718.592 1228.96C881.557 1167.05 896.1 956.591 1054.03 918.8C1211.96 881.01 1395.94 1084.38 1586.5 1063.82C1777.07 1043.27 1805.04 909.644 1957.28 831.059C2109.52 752.475 2392.5 877.189 2483.68 784.942" stroke="url(#paint2_linear_2289_4508)" stroke-opacity="0.3" stroke-width="20"/>
<path d="M133.173 1305.08C153.813 1250.86 220.017 1150.52 322.238 1159.95C447.71 1173.46 585.4 1314.67 735.843 1253.17C915.522 1198.32 927.596 1005.22 1090.96 961.78C1254.32 918.34 1433.68 1098.57 1628.74 1085.19C1823.8 1071.81 1859.54 948.967 2014.47 869.192C2169.4 789.418 2438.96 896.626 2540.92 815.656" stroke="url(#paint3_linear_2289_4508)" stroke-opacity="0.3" stroke-width="20"/>
<path d="M150.685 1350.32C170.416 1294.92 234.533 1193.69 336.522 1197.56C460.582 1205.05 600.173 1334.89 752.787 1277.23C949.372 1229.03 959.397 1053.31 1128.07 1004.08C1296.75 954.858 1470.98 1112.1 1670.72 1105.78C1870.46 1099.45 1914.25 987.188 2071.86 906.147C2229.47 825.106 2485.23 915.152 2598.25 845.183" stroke="url(#paint4_linear_2289_4508)" stroke-opacity="0.3" stroke-width="20"/>
<path d="M168.308 1395.41C187.105 1338.84 249.124 1236.75 350.761 1235.09C473.283 1236.57 614.522 1355.02 769.42 1301.15C983.094 1259.17 991.49 1100.85 1165.36 1045.71C1339.24 990.568 1507.81 1124.97 1712.43 1125.59C1917.06 1126.21 1969.14 1024.31 2129.42 941.924C2289.71 859.54 2531.29 932.774 2655.66 873.527" stroke="url(#paint5_linear_2289_4508)" stroke-opacity="0.3" stroke-width="20"/>
<path d="M186.042 1440.34C203.88 1382.61 263.789 1279.71 364.956 1272.51C485.814 1268.04 628.446 1375.07 785.741 1324.92C1016.68 1288.75 1023.87 1147.84 1202.82 1086.65C1381.78 1025.46 1544.16 1137.19 1753.87 1144.63C1963.57 1152.07 2024.2 1060.32 2187.15 976.514C2350.09 892.711 2577.14 949.489 2713.13 900.679" stroke="url(#paint6_linear_2289_4508)" stroke-opacity="0.3" stroke-width="20"/>
<path d="M203.901 1485.11C220.755 1426.24 278.544 1322.56 379.122 1309.84C498.19 1299.45 641.962 1395.06 801.766 1348.56C1050.14 1317.78 1056.54 1194.29 1240.45 1126.92C1424.37 1059.54 1580.04 1148.76 1795.02 1162.91C2010 1177.05 2079.43 1095.22 2245.03 1009.92C2410.62 924.622 2622.78 965.306 2770.64 926.642" stroke="url(#paint7_linear_2289_4508)" stroke-opacity="0.3" stroke-width="20"/>
<path d="M221.883 1529.73C237.728 1469.74 293.386 1365.31 393.258 1347.08C510.412 1330.82 655.069 1414.99 817.492 1372.08C1083.46 1346.25 1089.49 1240.17 1278.24 1166.49C1466.99 1092.82 1615.44 1159.71 1835.88 1180.43C2056.32 1201.15 2134.81 1129.01 2303.04 1042.14C2471.27 955.269 2668.18 980.228 2828.19 951.416" stroke="url(#paint8_linear_2289_4508)" stroke-opacity="0.3" stroke-width="20"/>
<path d="M239.987 1574.19C254.798 1513.09 308.317 1407.95 407.364 1384.23C522.48 1362.14 667.767 1434.87 832.918 1395.47C1116.63 1374.17 1122.71 1285.49 1316.17 1205.38C1509.63 1125.27 1650.34 1170.03 1876.44 1197.19C2102.53 1224.35 2190.31 1161.68 2361.16 1073.16C2532.02 984.645 2713.33 994.254 2885.74 974.995" stroke="url(#paint9_linear_2289_4508)" stroke-opacity="0.3" stroke-width="20"/>
<path d="M258.211 1618.49C271.964 1556.29 323.335 1450.49 421.439 1421.28C534.394 1393.42 680.057 1454.7 848.044 1418.75C1149.65 1401.54 1156.2 1330.25 1354.24 1243.58C1552.28 1156.91 1684.74 1179.74 1916.68 1213.21C2148.62 1246.67 2245.91 1193.23 2419.38 1102.99C2592.85 1012.75 2758.22 1007.39 2943.29 997.378" stroke="url(#paint10_linear_2289_4508)" stroke-opacity="0.3" stroke-width="20"/>
<path d="M276.553 1662.63C289.223 1599.35 338.437 1492.91 435.482 1458.25C546.153 1424.66 691.938 1474.5 862.867 1441.91C1182.5 1428.37 1189.94 1374.43 1392.43 1281.08C1594.93 1187.74 1718.63 1188.84 1956.59 1228.47C2194.55 1268.11 2301.61 1223.65 2477.67 1131.62C2653.72 1039.58 2802.83 1019.64 3000.8 1018.57" stroke="url(#paint11_linear_2289_4508)" stroke-opacity="0.3" stroke-width="20"/>
<path d="M295.014 1706.6C306.578 1642.26 353.627 1535.23 449.496 1495.13C557.762 1455.86 703.414 1494.26 877.39 1464.96C1215.18 1454.65 1223.93 1418.03 1430.74 1317.89C1637.55 1217.75 1752 1197.33 1996.16 1243C2240.32 1288.66 2357.37 1252.95 2536 1159.04C2714.63 1065.13 2847.15 1031 3058.26 1038.55" stroke="url(#paint12_linear_2289_4508)" stroke-opacity="0.3" stroke-width="20"/>
<path d="M313.591 1750.41C324.025 1685.03 368.903 1577.42 463.478 1531.92C569.219 1487.02 714.485 1514 891.611 1487.92C1247.68 1480.39 1258.16 1461.05 1469.15 1353.99C1680.14 1246.94 1784.84 1205.24 2035.38 1256.79C2285.93 1308.34 2413.19 1281.12 2594.37 1185.26C2775.55 1089.4 2891.17 1041.48 3115.64 1057.34" stroke="url(#paint13_linear_2289_4508)" stroke-opacity="0.3" stroke-width="20"/>
<path d="M332.283 1794.04C341.564 1727.64 384.264 1619.51 477.429 1568.62C580.526 1518.15 725.151 1533.73 905.53 1510.77C1279.99 1505.59 1292.61 1503.47 1507.65 1389.39C1722.69 1275.31 1817.13 1212.56 2074.23 1269.84C2331.34 1327.13 2469.04 1308.16 2652.75 1210.27C2836.46 1112.39 2934.86 1051.08 3172.94 1074.92" stroke="url(#paint14_linear_2289_4508)" stroke-opacity="0.3" stroke-width="20"/>
<path d="M351.089 1837.51C359.194 1770.1 399.709 1661.48 491.349 1605.24C591.683 1549.26 735.414 1553.44 919.145 1533.54C1312.1 1530.25 1327.28 1545.31 1546.23 1424.09C1765.17 1302.86 1848.88 1219.31 2112.71 1282.18C2376.55 1345.04 2524.9 1334.06 2711.12 1234.08C2897.33 1134.09 2978.21 1059.8 3230.12 1091.31" stroke="url(#paint15_linear_2289_4508)" stroke-opacity="0.3" stroke-width="20"/>
<path d="M370.005 1880.8C376.91 1812.4 415.236 1703.33 505.235 1641.77C602.688 1580.33 745.273 1573.15 932.456 1556.21C1344.01 1554.37 1362.16 1586.54 1584.87 1458.07C1807.58 1329.6 1880.06 1225.49 2150.8 1293.78C2421.54 1362.08 2580.75 1358.82 2769.45 1256.67C2958.15 1154.51 3021.21 1067.65 3287.16 1106.49" stroke="url(#paint16_linear_2289_4508)" stroke-opacity="0.3" stroke-width="20"/>
<path d="M389.033 1923.91C394.717 1854.54 430.848 1745.06 519.092 1678.2C613.548 1611.38 754.734 1592.87 945.466 1578.81C1375.7 1577.97 1397.24 1627.17 1623.57 1491.34C1849.9 1355.51 1910.68 1231.11 2188.48 1304.68C2466.29 1378.24 2636.57 1382.45 2827.73 1278.04C3018.89 1173.64 3063.84 1074.64 3344.04 1120.46" stroke="url(#paint17_linear_2289_4508)" stroke-opacity="0.3" stroke-width="20"/>
<path d="M408.148 1966.99C412.587 1896.67 446.52 1786.82 532.894 1714.7C624.238 1642.54 763.772 1612.74 958.15 1601.46C1407.15 1601.18 1432.49 1667.34 1662.3 1524.04C1892.1 1380.75 1940.69 1236.33 2225.74 1315C2510.78 1393.67 2692.33 1405.07 2885.91 1298.35C3079.5 1191.62 3106.07 1080.9 3400.73 1133.38" stroke="url(#paint18_linear_2289_4508)" stroke-opacity="0.3" stroke-width="20"/>
<path d="M427.285 2010.47C430.458 1939.23 462.188 1829.03 546.579 1751.69C634.697 1674.27 772.329 1633.21 970.446 1624.63C1438.28 1624.44 1467.84 1707.47 1700.97 1556.61C1934.1 1405.75 1970.04 1241.58 2262.48 1325.2C2554.92 1408.82 2747.93 1427.14 2943.92 1318.02C3139.91 1208.9 3147.82 1086.89 3457.13 1145.68" stroke="url(#paint19_linear_2289_4508)" stroke-opacity="0.3" stroke-width="20"/>
<path d="M446.485 2054.23C448.371 1982.07 477.896 1871.57 560.19 1789.04C644.968 1706.43 780.447 1654.15 982.396 1648.18C1469.14 1647.64 1503.31 1747.44 1739.62 1588.92C1975.93 1430.39 1998.74 1246.77 2298.75 1335.16C2598.75 1423.55 2803.41 1448.52 3001.77 1336.93C3200.13 1225.34 3189.12 1092.48 3513.28 1157.23" stroke="url(#paint20_linear_2289_4508)" stroke-opacity="0.3" stroke-width="20"/>
<path d="M465.777 2098.14C466.354 2025.09 493.67 1914.32 573.756 1826.65C655.083 1738.92 788.158 1675.47 994.03 1672C1499.73 1670.65 1538.93 1787.13 1778.27 1620.84C2017.61 1454.56 2026.83 1251.76 2334.55 1344.76C2642.27 1437.76 2858.77 1469.1 3059.47 1354.96C3260.17 1240.83 3229.98 1097.56 3569.17 1167.92" stroke="url(#paint21_linear_2289_4508)" stroke-opacity="0.3" stroke-width="20"/>
<defs>
<linearGradient id="paint0_linear_2289_4508" x1="1487.81" y1="394.215" x2="1037.24" y2="1572.96" gradientUnits="userSpaceOnUse">
<stop stop-color="#FFF500" stop-opacity="0.6"/>
<stop offset="1" stop-color="#FF79C9"/>
</linearGradient>
<linearGradient id="paint1_linear_2289_4508" x1="2127.64" y1="1003.17" x2="1980.14" y2="2310.53" gradientUnits="userSpaceOnUse">
<stop stop-color="#FFF500" stop-opacity="0.6"/>
<stop offset="1" stop-color="#FF79C9"/>
</linearGradient>
<linearGradient id="paint2_linear_2289_4508" x1="1518.3" y1="429.186" x2="1081.15" y2="1615.43" gradientUnits="userSpaceOnUse">
<stop stop-color="#FFF500" stop-opacity="0.6"/>
<stop offset="1" stop-color="#FF79C9"/>
</linearGradient>
<linearGradient id="paint3_linear_2289_4508" x1="1548.85" y1="463.567" x2="1125.24" y2="1657.16" gradientUnits="userSpaceOnUse">
<stop stop-color="#FFF500" stop-opacity="0.6"/>
<stop offset="1" stop-color="#FF79C9"/>
</linearGradient>
<linearGradient id="paint4_linear_2289_4508" x1="1579.45" y1="497.354" x2="1169.49" y2="1698.15" gradientUnits="userSpaceOnUse">
<stop stop-color="#FFF500" stop-opacity="0.6"/>
<stop offset="1" stop-color="#FF79C9"/>
</linearGradient>
<linearGradient id="paint5_linear_2289_4508" x1="1610.08" y1="530.551" x2="1213.88" y2="1738.38" gradientUnits="userSpaceOnUse">
<stop stop-color="#FFF500" stop-opacity="0.6"/>
<stop offset="1" stop-color="#FF79C9"/>
</linearGradient>
<linearGradient id="paint6_linear_2289_4508" x1="1640.74" y1="563.152" x2="1258.42" y2="1777.86" gradientUnits="userSpaceOnUse">
<stop stop-color="#FFF500" stop-opacity="0.6"/>
<stop offset="1" stop-color="#FF79C9"/>
</linearGradient>
<linearGradient id="paint7_linear_2289_4508" x1="1671.43" y1="595.158" x2="1303.09" y2="1816.59" gradientUnits="userSpaceOnUse">
<stop stop-color="#FFF500" stop-opacity="0.6"/>
<stop offset="1" stop-color="#FF79C9"/>
</linearGradient>
<linearGradient id="paint8_linear_2289_4508" x1="1702.14" y1="626.57" x2="1347.88" y2="1854.56" gradientUnits="userSpaceOnUse">
<stop stop-color="#FFF500" stop-opacity="0.6"/>
<stop offset="1" stop-color="#FF79C9"/>
</linearGradient>
<linearGradient id="paint9_linear_2289_4508" x1="1732.84" y1="657.384" x2="1392.78" y2="1891.77" gradientUnits="userSpaceOnUse">
<stop stop-color="#FFF500" stop-opacity="0.6"/>
<stop offset="1" stop-color="#FF79C9"/>
</linearGradient>
<linearGradient id="paint10_linear_2289_4508" x1="1763.54" y1="687.6" x2="1437.78" y2="1928.22" gradientUnits="userSpaceOnUse">
<stop stop-color="#FFF500" stop-opacity="0.6"/>
<stop offset="1" stop-color="#FF79C9"/>
</linearGradient>
<linearGradient id="paint11_linear_2289_4508" x1="1794.23" y1="717.219" x2="1482.86" y2="1963.91" gradientUnits="userSpaceOnUse">
<stop stop-color="#FFF500" stop-opacity="0.6"/>
<stop offset="1" stop-color="#FF79C9"/>
</linearGradient>
<linearGradient id="paint12_linear_2289_4508" x1="1824.89" y1="746.237" x2="1528.02" y2="1998.83" gradientUnits="userSpaceOnUse">
<stop stop-color="#FFF500" stop-opacity="0.6"/>
<stop offset="1" stop-color="#FF79C9"/>
</linearGradient>
<linearGradient id="paint13_linear_2289_4508" x1="1855.51" y1="774.654" x2="1573.23" y2="2032.98" gradientUnits="userSpaceOnUse">
<stop stop-color="#FFF500" stop-opacity="0.6"/>
<stop offset="1" stop-color="#FF79C9"/>
</linearGradient>
<linearGradient id="paint14_linear_2289_4508" x1="1886.09" y1="802.471" x2="1618.5" y2="2066.36" gradientUnits="userSpaceOnUse">
<stop stop-color="#FFF500" stop-opacity="0.6"/>
<stop offset="1" stop-color="#FF79C9"/>
</linearGradient>
<linearGradient id="paint15_linear_2289_4508" x1="1916.61" y1="829.688" x2="1663.8" y2="2098.97" gradientUnits="userSpaceOnUse">
<stop stop-color="#FFF500" stop-opacity="0.6"/>
<stop offset="1" stop-color="#FF79C9"/>
</linearGradient>
<linearGradient id="paint16_linear_2289_4508" x1="1947.05" y1="856.301" x2="1709.12" y2="2130.8" gradientUnits="userSpaceOnUse">
<stop stop-color="#FFF500" stop-opacity="0.6"/>
<stop offset="1" stop-color="#FF79C9"/>
</linearGradient>
<linearGradient id="paint17_linear_2289_4508" x1="1977.43" y1="882.315" x2="1754.45" y2="2161.86" gradientUnits="userSpaceOnUse">
<stop stop-color="#FFF500" stop-opacity="0.6"/>
<stop offset="1" stop-color="#FF79C9"/>
</linearGradient>
<linearGradient id="paint18_linear_2289_4508" x1="2007.71" y1="907.728" x2="1799.76" y2="2192.28" gradientUnits="userSpaceOnUse">
<stop stop-color="#FFF500" stop-opacity="0.6"/>
<stop offset="1" stop-color="#FF79C9"/>
</linearGradient>
<linearGradient id="paint19_linear_2289_4508" x1="2037.9" y1="932.542" x2="1844.97" y2="2222.5" gradientUnits="userSpaceOnUse">
<stop stop-color="#FFF500" stop-opacity="0.6"/>
<stop offset="1" stop-color="#FF79C9"/>
</linearGradient>
<linearGradient id="paint20_linear_2289_4508" x1="2067.97" y1="956.754" x2="1890.12" y2="2252.4" gradientUnits="userSpaceOnUse">
<stop stop-color="#FFF500" stop-opacity="0.6"/>
<stop offset="1" stop-color="#FF79C9"/>
</linearGradient>
<linearGradient id="paint21_linear_2289_4508" x1="2097.93" y1="980.367" x2="1935.21" y2="2281.86" gradientUnits="userSpaceOnUse">
<stop stop-color="#FFF500" stop-opacity="0.6"/>
<stop offset="1" stop-color="#FF79C9"/>
</linearGradient>
</defs>
</svg>
