<svg width="17" height="16" viewBox="0 0 17 16" fill="none" xmlns="http://www.w3.org/2000/svg">
<path d="M1.7002 6.75977C1.14791 6.75977 0.700195 7.20748 0.700195 7.75977C0.700195 8.31205 1.14791 8.75977 1.7002 8.75977V6.75977ZM16.4073 8.46687C16.7978 8.07635 16.7978 7.44318 16.4073 7.05266L10.0433 0.688698C9.65282 0.298174 9.01965 0.298174 8.62913 0.688698C8.2386 1.07922 8.2386 1.71239 8.62913 2.10291L14.286 7.75977L8.62913 13.4166C8.2386 13.8071 8.2386 14.4403 8.62913 14.8308C9.01965 15.2214 9.65282 15.2214 10.0433 14.8308L16.4073 8.46687ZM1.7002 8.75977H15.7002V6.75977H1.7002V8.75977Z" fill="currentColor"/>
</svg>
