<svg width="17" height="16" viewBox="0 0 17 16" fill="none" xmlns="http://www.w3.org/2000/svg">
<path d="M15.7002 8.75977C16.2525 8.75977 16.7002 8.31205 16.7002 7.75977C16.7002 7.20748 16.2525 6.75977 15.7002 6.75977V8.75977ZM0.993089 7.05266C0.602564 7.44318 0.602564 8.07635 0.993089 8.46687L7.35705 14.8308C7.74757 15.2214 8.38074 15.2214 8.77126 14.8308C9.16179 14.4403 9.16179 13.8071 8.77126 13.4166L3.11441 7.75977L8.77126 2.10291C9.16179 1.71239 9.16179 1.07922 8.77126 0.688698C8.38074 0.298174 7.74757 0.298174 7.35705 0.688698L0.993089 7.05266ZM15.7002 6.75977L1.7002 6.75977V8.75977L15.7002 8.75977V6.75977Z" fill="currentColor"/>
</svg>
