<svg width="30" height="33" viewBox="0 0 30 33" fill="none" xmlns="http://www.w3.org/2000/svg">
<path d="M29.9348 9.11239L26.4456 22.1636C26.1848 23.093 25.5 23.7127 24.6848 23.7127L11.2174 23.7127C10.4348 23.7127 9.68478 23.1318 9.42391 22.2797L4.27174 5.89801L1.30435 5.89801C0.586957 5.89801 4.19823e-07 5.20091 2.70853e-07 4.34891C1.21884e-07 3.4969 0.586956 2.7998 1.30435 2.7998L5.18478 2.7998C5.73913 2.7998 6.22826 3.22581 6.42391 3.84545L11.7391 20.6145L24.1304 20.6145L26.9022 10.158L11.5435 10.158C10.8261 10.158 10.2391 9.46094 10.2391 8.60893C10.2391 7.75693 10.8261 7.05983 11.5435 7.05983L28.6956 7.05983C29.1196 7.05983 29.5109 7.33092 29.7391 7.7182C30 8.10547 30.0652 8.64766 29.9348 9.11239ZM11.8696 25.7652C11.3152 25.7652 10.7609 26.0363 10.3696 26.501C9.97826 26.9658 9.75 27.6242 9.75 28.2825C9.75 28.9409 9.97826 29.5993 10.3696 30.064C10.7609 30.5287 11.3152 30.7998 11.8696 30.7998C12.4239 30.7998 12.9783 30.5287 13.3696 30.064C13.7609 29.5993 13.9891 28.9409 13.9891 28.2825C13.9891 27.6242 13.7609 26.9658 13.3696 26.501C12.9783 26.0363 12.4239 25.7652 11.8696 25.7652ZM23.5761 25.7652C23.0217 25.7652 22.4674 26.0363 22.0761 26.501C21.6848 26.9658 21.4565 27.6241 21.4565 28.2825C21.4565 28.9409 21.6848 29.5993 22.0761 30.064C22.4674 30.5287 23.0217 30.7998 23.5761 30.7998C24.1304 30.7998 24.6848 30.5287 25.0761 30.064C25.4674 29.5993 25.6957 28.9409 25.6957 28.2825C25.6957 27.6241 25.4674 26.9658 25.0761 26.501C24.6848 26.0363 24.1304 25.7652 23.5761 25.7652Z" fill="currentColor"/>
</svg>
