<svg width="32" height="28" viewBox="0 0 32 28" fill="none" xmlns="http://www.w3.org/2000/svg">
<path d="M6.058 26C6.058 26.2626 6.10973 26.5227 6.21024 26.7654C6.31075 27.008 6.45807 27.2285 6.64379 27.4142C6.8295 27.5999 7.04998 27.7472 7.29263 27.8478C7.53528 27.9483 7.79536 28 8.058 28C8.58843 28 9.09714 27.7893 9.47221 27.4142C9.65793 27.2285 9.80525 27.008 9.90576 26.7654C10.0063 26.5227 10.058 26.2626 10.058 26C10.058 25.4696 9.84729 24.9609 9.47221 24.5858C9.09714 24.2107 8.58843 24 8.058 24C7.52757 24 7.01886 24.2107 6.64379 24.5858C6.26871 24.9609 6.058 25.4696 6.058 26ZM24.058 26C24.058 26.2626 24.1097 26.5227 24.2102 26.7654C24.3108 27.008 24.4581 27.2285 24.6438 27.4142C24.8295 27.5999 25.05 27.7472 25.2926 27.8478C25.5353 27.9483 25.7954 28 26.058 28C26.5884 28 27.0971 27.7893 27.4722 27.4142C27.6579 27.2285 27.8053 27.008 27.9058 26.7654C28.0063 26.5227 28.058 26.2626 28.058 26C28.058 25.4696 27.8473 24.9609 27.4722 24.5858C27.0971 24.2107 26.5884 24 26.058 24C25.5276 24 25.0189 24.2107 24.6438 24.5858C24.2687 24.9609 24.058 25.4696 24.058 26ZM0 1C0 1.26522 0.105357 1.51957 0.292893 1.70711C0.48043 1.89464 0.734784 2 1 2H3.078L4.32 7.312L6.058 16C6.058 16.072 6.092 16.134 6.1 16.204L5.082 20.784C5.04909 20.9302 5.04954 21.0819 5.08332 21.2278C5.1171 21.3738 5.18334 21.5102 5.27712 21.6271C5.3709 21.7439 5.4898 21.8381 5.62499 21.9027C5.76018 21.9672 5.90818 22.0005 6.058 22H28.746C29.0112 22 29.2656 21.8946 29.4531 21.7071C29.6406 21.5196 29.746 21.2652 29.746 21C29.746 20.7348 29.6406 20.4804 29.4531 20.2929C29.2656 20.1054 29.0112 20 28.746 20H7.306L7.764 17.94C7.864 17.956 7.954 18 8.058 18H26.288C27.392 18 28.058 17.782 28.59 16.5L31.838 6.536C32.402 4.75 31.164 4 30.058 4H6.058C5.902 4 5.766 4.054 5.62 4.088L4.844 0.772C4.79255 0.552307 4.66832 0.356469 4.4915 0.216313C4.31467 0.076158 4.09564 -7.64004e-05 3.87 5.74555e-08H1C0.734784 5.74555e-08 0.48043 0.105357 0.292893 0.292893C0.105357 0.48043 0 0.734784 0 1ZM6.098 6H29.908L26.716 15.798C26.678 15.884 26.646 15.946 26.622 15.988C26.556 15.994 26.452 16 26.288 16H8.058V15.802L8.02 15.608L6.098 6Z" fill="#333333"/>
</svg>
