<svg
  width="12"
  height="9"
  viewBox="0 0 12 9"
  xmlns="http://www.w3.org/2000/svg"
>
  <path
    d="M6.59265 5.1C6.92402 5.1 7.19265 4.83137 7.19265 4.5C7.19265 4.16863 6.92402 3.9 6.59265 3.9V5.1ZM6.16829 4.07574C5.93397 4.31005 5.93397 4.68995 6.16829 4.92426L9.98666 8.74264C10.221 8.97696 10.6009 8.97696 10.8352 8.74264C11.0695 8.50833 11.0695 8.12843 10.8352 7.89411L7.44108 4.5L10.8352 1.10589C11.0695 0.871573 11.0695 0.491674 10.8352 0.257359C10.6009 0.0230446 10.221 0.0230446 9.98666 0.257359L6.16829 4.07574ZM6.59265 3.9H6.59255V5.1H6.59265V3.9Z"
    fill="currentColor"
    stroke="currentColor"
    stroke-width="1.2"
    stroke-linecap="round"
    stroke-linejoin="round"
  />
  <path
    d="M0.867676 5.1C1.19905 5.1 1.46768 4.83137 1.46768 4.5C1.46768 4.16863 1.19905 3.9 0.867676 3.9L0.867676 5.1ZM0.443312 4.07574C0.208997 4.31005 0.208997 4.68995 0.443312 4.92426L4.26169 8.74264C4.496 8.97696 4.8759 8.97696 5.11022 8.74264C5.34453 8.50833 5.34453 8.12843 5.11022 7.89411L1.7161 4.5L5.11022 1.10589C5.34453 0.871573 5.34453 0.491674 5.11022 0.257359C4.8759 0.0230446 4.496 0.0230446 4.26169 0.257359L0.443312 4.07574ZM0.867676 3.9H0.867576L0.867576 5.1H0.867676L0.867676 3.9Z"
    fill="currentColor"
    stroke="currentColor"
    stroke-width="1.2"
    stroke-linecap="round"
    stroke-linejoin="round"
  />
</svg>