<svg width="20" height="20" viewBox="0 0 20 20" fill="none" xmlns="http://www.w3.org/2000/svg">
<path d="M20 5.24001C20.0007 5.1084 19.9755 4.97794 19.9258 4.8561C19.876 4.73427 19.8027 4.62345 19.71 4.53001L15.47 0.290016C15.3765 0.197335 15.2657 0.12401 15.1439 0.0742454C15.0221 0.0244808 14.8916 -0.000744178 14.76 1.67143e-05C14.6284 -0.000744178 14.4979 0.0244808 14.3761 0.0742454C14.2542 0.12401 14.1434 0.197335 14.05 0.290016L11.22 3.12001L0.290016 14.05C0.197335 14.1434 0.12401 14.2543 0.0742453 14.3761C0.0244808 14.4979 -0.000744178 14.6284 1.67143e-05 14.76V19C1.67143e-05 19.2652 0.105373 19.5196 0.292909 19.7071C0.480445 19.8946 0.734799 20 1.00001 20H5.24001C5.37993 20.0076 5.5199 19.9857 5.65083 19.9358C5.78175 19.8858 5.90072 19.8089 6.00001 19.71L16.87 8.78L19.71 6.00001C19.8013 5.90309 19.8756 5.79154 19.93 5.67001C19.9396 5.5903 19.9396 5.50972 19.93 5.43001C19.9347 5.38346 19.9347 5.33656 19.93 5.29001L20 5.24001ZM4.83001 18H2.00001V15.17L11.93 5.24001L14.76 8.07001L4.83001 18ZM16.17 6.66001L13.34 3.83001L14.76 2.42001L17.58 5.24001L16.17 6.66001Z" fill="currentColor"/>
</svg>
