
<svg width="29" height="33" viewBox="0 0 29 33" fill="none" xmlns="http://www.w3.org/2000/svg">
<path d="M27.2848 10.4266L17.6963 2.02064C16.8173 1.23445 15.6794 0.799805 14.5001 0.799805C13.3208 0.799805 12.1829 1.23445 11.304 2.02064L1.71543 10.4266C1.20782 10.8806 0.802759 11.4375 0.527204 12.0602C0.251648 12.683 0.111926 13.3573 0.117339 14.0383L0.117339 28.0055C0.117339 29.2771 0.622448 30.4965 1.52155 31.3956C2.42065 32.2947 3.64008 32.7998 4.9116 32.7998H24.0887C25.3602 32.7998 26.5796 32.2947 27.4787 31.3956C28.3778 30.4965 28.8829 29.2771 28.8829 28.0055V14.0223C28.8861 13.344 28.7452 12.6728 28.4698 12.0529C28.1943 11.4331 27.7904 10.8788 27.2848 10.4266ZM17.6963 29.6036L11.304 29.6036V21.6132C11.304 21.1894 11.4723 20.7829 11.772 20.4832C12.0717 20.1835 12.4782 20.0151 12.902 20.0151H16.0982C16.5221 20.0151 16.9285 20.1835 17.2282 20.4832C17.5279 20.7829 17.6963 21.1894 17.6963 21.6132V29.6036ZM25.6867 28.0055C25.6867 28.4294 25.5184 28.8359 25.2187 29.1356C24.919 29.4353 24.5125 29.6036 24.0887 29.6036H20.8925V21.6132C20.8925 20.3417 20.3874 19.1222 19.4883 18.2231C18.5892 17.324 17.3697 16.8189 16.0982 16.8189H12.902C11.6305 16.8189 10.4111 17.324 9.51199 18.2231C8.61289 19.1222 8.10778 20.3417 8.10778 21.6132V29.6036H4.9116C4.48776 29.6036 4.08128 29.4353 3.78158 29.1356C3.48188 28.8359 3.31351 28.4294 3.31351 28.0055L3.31351 14.0223C3.3138 13.7954 3.36241 13.5711 3.45609 13.3645C3.54978 13.1578 3.6864 12.9735 3.85686 12.8237L13.4454 4.43375C13.737 4.17754 14.1119 4.03625 14.5001 4.03625C14.8883 4.03625 15.2632 4.17754 15.5549 4.43375L25.1434 12.8237C25.3139 12.9735 25.4505 13.1578 25.5442 13.3645C25.6379 13.5711 25.6865 13.7954 25.6867 14.0223V28.0055Z" fill="currentColor"/>
</svg>
