<svg width="31" height="32" viewBox="0 0 31 32" fill="none" xmlns="http://www.w3.org/2000/svg">
<path d="M5.16523 11.5143H6.33723C6.56158 13.0481 7.14509 14.5023 8.03713 15.7507C8.92917 16.9991 10.1028 18.0039 11.4562 18.6781L10.8602 24.7437C8.73523 25.4601 7.18623 27.5019 7.18623 29.9308V30.7514C7.18623 31.1621 7.34426 31.5559 7.62557 31.8463C7.90687 32.1367 8.2884 32.2998 8.68623 32.2998L22.3142 32.2998C22.7121 32.2998 23.0936 32.1367 23.3749 31.8463C23.6562 31.5559 23.8142 31.1621 23.8142 30.7514V29.9308C23.8142 27.5019 22.2642 25.4611 20.1402 24.7437L19.5442 18.6781C20.8977 18.0039 22.0713 16.9991 22.9633 15.7507C23.8554 14.5023 24.4389 13.0481 24.6632 11.5143H25.8352C27.0499 11.513 28.2149 11.0162 29.0762 10.1321C29.5045 9.6925 29.8442 9.16972 30.0758 8.59391C30.3073 8.01811 30.4261 7.40067 30.4252 6.77723C30.4252 4.16458 28.3662 2.03916 25.8352 2.03916H25.6052L25.6082 2.002C25.6295 1.78672 25.6068 1.56922 25.5414 1.36359C25.4761 1.15796 25.3697 0.968789 25.229 0.808321C25.0884 0.647853 24.9166 0.51967 24.725 0.432071C24.5333 0.344472 24.3259 0.299412 24.1162 0.299807L6.88423 0.299807C6.67447 0.299588 6.46699 0.344785 6.27521 0.432479C6.08342 0.520173 5.91158 0.648415 5.77079 0.808923C5.63 0.969431 5.52339 1.15864 5.45784 1.36432C5.39228 1.57 5.36925 1.78759 5.39023 2.00303L5.39423 2.03916H5.16423C3.95423 2.03916 2.80723 2.52639 1.92423 3.42032C1.49533 3.85969 1.15515 4.38255 0.923418 4.9586C0.691684 5.53465 0.572995 6.15245 0.574228 6.77619C0.574228 9.38884 2.63423 11.5143 5.16523 11.5143ZM25.3052 5.13594H25.8352C26.1491 5.13614 26.4559 5.23216 26.717 5.41193C26.9781 5.59169 27.1819 5.84716 27.3027 6.1462C27.4235 6.44523 27.4559 6.77447 27.3959 7.09247C27.3358 7.41048 27.186 7.70304 26.9652 7.93336C26.6552 8.2451 26.2552 8.41748 25.8352 8.41748H24.9862L25.3052 5.13594ZM20.7052 29.203L10.2952 29.203C10.4452 28.7224 10.7389 28.3031 11.1342 28.0056C11.5295 27.7081 12.006 27.5477 12.4952 27.5473L18.5052 27.5473C19.5332 27.5473 20.4052 28.243 20.7052 29.203ZM13.9042 24.4505L14.3842 19.5555C14.7512 19.5999 15.1222 19.6319 15.5002 19.6319C15.8782 19.6319 16.2482 19.601 16.6152 19.5555L17.0962 24.4505H13.9042ZM22.4592 3.39658L21.7512 10.6967C21.6001 12.2984 20.8758 13.7844 19.7198 14.8641C18.5638 15.9438 17.0592 16.5397 15.5002 16.5352C13.9413 16.5399 12.4367 15.9441 11.2808 14.8643C10.1249 13.7845 9.40086 12.2984 9.25023 10.6967L8.54123 3.39658L22.4592 3.39658ZM4.03623 5.6211C4.34523 5.30832 4.74623 5.13594 5.16523 5.13594H5.69523L6.01423 8.41748H5.16423C4.85053 8.41688 4.54401 8.32056 4.2832 8.14064C4.02238 7.96072 3.81891 7.70522 3.69837 7.40627C3.57782 7.10732 3.54558 6.77825 3.60569 6.46044C3.66581 6.14263 3.8156 5.85025 4.03623 5.62007V5.6211Z" fill="#333333"/>
</svg>
