<svg width="24" height="36" viewBox="0 0 24 36" fill="none" xmlns="http://www.w3.org/2000/svg">
<path d="M11.479 10.8178C13.4233 10.3778 15.4628 10.7269 17.15 11.7887C18.8371 12.8505 20.0342 14.5382 20.4786 16.4816L22.3319 24.6278C22.7742 26.5723 22.426 28.6129 21.3639 30.3006C20.3017 31.9884 18.6126 33.1851 16.6681 33.6274C14.7237 34.0698 12.6831 33.7216 10.9953 32.6594C9.3076 31.5973 8.11091 29.9082 7.66855 27.9637L5.8153 19.8174C5.37524 17.8731 5.72441 15.8336 6.78621 14.1465C7.848 12.4593 9.5357 11.2622 11.479 10.8178ZM9.29781 27.593C9.64186 29.1054 10.5726 30.4192 11.8853 31.2453C13.198 32.0714 14.7851 32.3422 16.2975 31.9982C17.8098 31.6541 19.1236 30.7233 19.9497 29.4107C20.7758 28.098 21.0467 26.5109 20.7026 24.9985L18.8493 16.8522C18.5053 15.3398 17.5745 14.0261 16.2618 13.2C14.9491 12.3738 13.362 12.103 11.8497 12.4471C10.3373 12.7911 9.02355 13.7219 8.19743 15.0346C7.37131 16.3473 7.10049 17.9344 7.44455 19.4468L9.29781 27.593Z" fill="currentColor"/>
<path d="M12.5919 15.7083C12.8079 15.6591 13.0346 15.6978 13.2222 15.8158C13.4097 15.9338 13.5427 16.1215 13.5918 16.3376L14.3331 19.5961C14.3823 19.8121 14.3436 20.0389 14.2256 20.2264C14.1076 20.4139 13.9199 20.5469 13.7038 20.596C13.4878 20.6452 13.261 20.6065 13.0735 20.4885C12.886 20.3705 12.753 20.1828 12.7039 19.9667L11.9626 16.7082C11.9134 16.4922 11.9521 16.2654 12.0701 16.0779C12.1881 15.8904 12.3758 15.7574 12.5919 15.7083Z" fill="currentColor"/>
<path d="M1.67061 7.83309L1.67039 11.5516M1.67039 11.5516L5.05013 11.9885M1.67039 11.5516C5.05013 8.22902 7.30582 5.22143 17.0808 6.57055" stroke="currentColor" stroke-width="1.4" stroke-linecap="round" stroke-linejoin="round"/>
</svg>
