<svg width="25" height="36" viewBox="0 0 25 36" fill="none" xmlns="http://www.w3.org/2000/svg">
<path d="M12.9199 10.8178C10.9756 10.3778 8.93614 10.7269 7.24896 11.7887C5.56179 12.8505 4.3647 14.5382 3.92033 16.4816L2.06707 24.6278C1.62471 26.5723 1.97291 28.6129 3.03506 30.3006C4.09721 31.9884 5.78632 33.1851 7.7308 33.6274C9.67527 34.0698 11.7158 33.7216 13.4036 32.6594C15.0913 31.5973 16.288 29.9082 16.7304 27.9637L18.5836 19.8174C19.0237 17.8731 18.6745 15.8336 17.6127 14.1465C16.5509 12.4593 14.8632 11.2622 12.9199 10.8178ZM15.1011 27.593C14.7571 29.1054 13.8263 30.4192 12.5136 31.2453C11.2009 32.0714 9.61382 32.3422 8.10145 31.9982C6.58908 31.6541 5.27533 30.7233 4.44921 29.4107C3.62309 28.098 3.35227 26.5109 3.69633 24.9985L5.54958 16.8522C5.89364 15.3398 6.8244 14.0261 8.13709 13.2C9.44978 12.3738 11.0369 12.103 12.5493 12.4471C14.0616 12.7911 15.3754 13.7219 16.2015 15.0346C17.0276 16.3473 17.2984 17.9344 16.9544 19.4468L15.1011 27.593Z" fill="currentColor"/>
<path d="M11.8071 15.7083C11.591 15.6591 11.3643 15.6978 11.1768 15.8158C10.9892 15.9338 10.8563 16.1215 10.8071 16.3376L10.0658 19.5961C10.0167 19.8121 10.0553 20.0389 10.1734 20.2264C10.2914 20.4139 10.4791 20.5469 10.6951 20.596C10.9112 20.6452 11.1379 20.6065 11.3254 20.4885C11.5129 20.3705 11.6459 20.1828 11.6951 19.9667L12.4364 16.7082C12.4855 16.4922 12.4468 16.2654 12.3288 16.0779C12.2108 15.8904 12.0231 15.7574 11.8071 15.7083Z" fill="currentColor"/>
<path d="M22.7283 7.83309L22.7285 11.5516M22.7285 11.5516L19.3488 11.9885M22.7285 11.5516C19.3488 8.22902 17.0931 5.22143 7.31817 6.57055" stroke="currentColor" stroke-width="1.4" stroke-linecap="round" stroke-linejoin="round"/>
</svg>
