<svg width="14" height="18" viewBox="0 0 14 18" fill="none" xmlns="http://www.w3.org/2000/svg">
<path d="M7 8C7.79113 8 8.56448 7.76541 9.22228 7.32588C9.88008 6.88635 10.3928 6.26164 10.6955 5.53074C10.9983 4.79983 11.0775 3.99556 10.9231 3.21964C10.7688 2.44372 10.3878 1.73098 9.82843 1.17157C9.26902 0.612164 8.55629 0.231202 7.78036 0.0768607C7.00444 -0.0774802 6.20017 0.00173312 5.46927 0.304484C4.73836 0.607234 4.11365 1.11992 3.67412 1.77772C3.2346 2.43552 3 3.20888 3 4C3 5.06087 3.42143 6.07828 4.17157 6.82843C4.92172 7.57857 5.93913 8 7 8ZM7 2C7.39556 2 7.78224 2.1173 8.11114 2.33706C8.44004 2.55683 8.69638 2.86918 8.84776 3.23463C8.99913 3.60009 9.03874 4.00222 8.96157 4.39018C8.8844 4.77814 8.69392 5.13451 8.41421 5.41422C8.13451 5.69392 7.77814 5.8844 7.39018 5.96157C7.00222 6.03874 6.60009 5.99914 6.23463 5.84776C5.86918 5.69639 5.55682 5.44004 5.33706 5.11114C5.1173 4.78224 5 4.39556 5 4C5 3.46957 5.21071 2.96086 5.58579 2.58579C5.96086 2.21072 6.46957 2 7 2ZM7 10C5.14348 10 3.36301 10.7375 2.05025 12.0503C0.737498 13.363 0 15.1435 0 17C0 17.2652 0.105357 17.5196 0.292893 17.7071C0.48043 17.8946 0.734784 18 1 18C1.26522 18 1.51957 17.8946 1.70711 17.7071C1.89464 17.5196 2 17.2652 2 17C2 15.6739 2.52678 14.4021 3.46447 13.4645C4.40215 12.5268 5.67392 12 7 12C8.32608 12 9.59785 12.5268 10.5355 13.4645C11.4732 14.4021 12 15.6739 12 17C12 17.2652 12.1054 17.5196 12.2929 17.7071C12.4804 17.8946 12.7348 18 13 18C13.2652 18 13.5196 17.8946 13.7071 17.7071C13.8946 17.5196 14 17.2652 14 17C14 15.1435 13.2625 13.363 11.9497 12.0503C10.637 10.7375 8.85652 10 7 10Z" fill="currentColor"/>
</svg>
