<svg width="29" height="29" viewBox="0 0 29 29" fill="none" xmlns="http://www.w3.org/2000/svg">
<path d="M28.4265 26.0556L22.9882 20.6334C24.7429 18.398 25.6949 15.6376 25.6914 12.7959C25.6914 10.2651 24.9409 7.79114 23.5349 5.68687C22.1288 3.5826 20.1304 1.94252 17.7923 0.974034C15.4541 0.00554421 12.8813 -0.247857 10.3991 0.245875C7.91698 0.739606 5.63698 1.9583 3.84744 3.74783C2.05791 5.53737 0.839216 7.81737 0.345484 10.2995C-0.148247 12.7817 0.105154 15.3545 1.07364 17.6926C2.04213 20.0308 3.68221 22.0292 5.78648 23.4353C7.89076 24.8413 10.3647 25.5918 12.8955 25.5918C15.7372 25.5953 18.4976 24.6432 20.733 22.8886L26.1552 28.3269C26.3039 28.4768 26.4808 28.5958 26.6757 28.677C26.8706 28.7582 27.0797 28.8 27.2909 28.8C27.502 28.8 27.7111 28.7582 27.906 28.677C28.1009 28.5958 28.2778 28.4768 28.4265 28.3269C28.5764 28.1782 28.6954 28.0013 28.7766 27.8064C28.8578 27.6115 28.8996 27.4024 28.8996 27.1912C28.8996 26.9801 28.8578 26.771 28.7766 26.5761C28.6954 26.3812 28.5764 26.2043 28.4265 26.0556ZM3.29858 12.7959C3.29858 10.8978 3.86143 9.04233 4.91596 7.46413C5.97048 5.88592 7.46931 4.65586 9.22291 3.92949C10.9765 3.20313 12.9061 3.01308 14.7678 3.38338C16.6294 3.75367 18.3394 4.66769 19.6815 6.00984C21.0237 7.35199 21.9377 9.062 22.308 10.9236C22.6783 12.7852 22.4882 14.7149 21.7619 16.4685C21.0355 18.2221 19.8055 19.7209 18.2272 20.7754C16.649 21.8299 14.7936 22.3928 12.8955 22.3928C10.3502 22.3928 7.90922 21.3817 6.10945 19.5819C4.30968 17.7821 3.29858 15.3411 3.29858 12.7959Z" fill="currentColor"/>
</svg>
