<svg width="6" height="9" viewBox="0 0 6 9" fill="none" xmlns="http://www.w3.org/2000/svg">
<path d="M0.867676 5.1C1.19905 5.1 1.46768 4.83137 1.46768 4.5C1.46768 4.16863 1.19905 3.9 0.867676 3.9L0.867676 5.1ZM0.443312 4.07574C0.208997 4.31005 0.208997 4.68995 0.443312 4.92426L4.26169 8.74264C4.496 8.97696 4.8759 8.97696 5.11022 8.74264C5.34453 8.50833 5.34453 8.12843 5.11022 7.89411L1.7161 4.5L5.11022 1.10589C5.34453 0.871573 5.34453 0.491674 5.11022 0.257359C4.8759 0.0230446 4.496 0.0230446 4.26169 0.257359L0.443312 4.07574ZM0.867676 3.9H0.867576L0.867576 5.1H0.867676L0.867676 3.9Z" fill="currentColor"/>
</svg>
