<svg width="6" height="9" viewBox="0 0 6 9" fill="none" xmlns="http://www.w3.org/2000/svg">
<path d="M4.70026 3.9C4.36889 3.9 4.10026 4.16863 4.10026 4.5C4.10026 4.83137 4.36889 5.1 4.70026 5.1V3.9ZM5.12462 4.92426C5.35893 4.68995 5.35893 4.31005 5.12462 4.07574L1.30624 0.257359C1.07193 0.0230446 0.69203 0.0230446 0.457716 0.257359C0.223401 0.491674 0.223401 0.871573 0.457716 1.10589L3.85183 4.5L0.457716 7.89411C0.223401 8.12843 0.223401 8.50833 0.457716 8.74264C0.69203 8.97696 1.07193 8.97696 1.30624 8.74264L5.12462 4.92426ZM4.70026 5.1H4.70036V3.9H4.70026V5.1Z" fill="currentColor"/>
</svg>
