<svg width="33" height="36" viewBox="0 0 33 36" fill="none" xmlns="http://www.w3.org/2000/svg">
<path d="M12.6351 4.94784C10.3596 5.41461 4.96824 7.11837 1.60742 10.1991M24.3818 29.3384L30.7331 23.4914C31.4466 22.8343 31.6486 21.7408 31.0076 21.0126C28.093 17.702 24.1297 20.3704 22.3542 22.3373L26.5222 6.78215C26.9976 5.00795 25.9447 3.18429 24.1705 2.70887C22.3963 2.23349 20.5727 3.28637 20.0972 5.06057L17.5602 14.5289C11.5615 12.6642 7.40532 12.7568 5.12364 14.2773C2.26982 16.1791 2.4853 19.9566 2.97212 23.3877C3.36555 26.1606 4.22578 29.0231 6.40345 30.7841C9.75415 33.4941 13.7983 34.0781 16.9496 33.6926C19.8751 33.3352 22.2135 31.3345 24.3818 29.3384Z" stroke="currentColor" stroke-width="3" stroke-linecap="round" stroke-linejoin="round"/>
<path d="M10.042 1.7998L14.5297 3.89083L12.3341 8.60291" stroke="currentColor" stroke-width="3" stroke-linecap="round" stroke-linejoin="round"/>
</svg>
