<svg width="36" height="36" viewBox="0 0 36 36" fill="none" xmlns="http://www.w3.org/2000/svg">
<path d="M13.8472 5.14804C11.4026 5.6148 5.61059 7.31856 2 10.3993M26.467 29.5386L33.2902 23.6916C34.0567 23.0345 34.2738 21.941 33.5851 21.2127C30.4539 17.9022 26.1961 20.5706 24.2886 22.5375L28.7664 6.98234C29.2772 5.20814 28.146 3.38448 26.2399 2.90907C24.3339 2.43368 22.3747 3.48657 21.8639 5.26076L19.1384 14.7291C12.6938 12.8644 8.22879 12.957 5.77754 14.4775C2.71162 16.3793 2.94311 20.1568 3.46612 23.5879C3.88879 26.3608 4.81295 29.2233 7.15246 30.9843C10.7522 33.6943 15.0969 34.2783 18.4824 33.8928C21.6253 33.5354 24.1375 31.5347 26.467 29.5386Z" stroke="currentColor" stroke-width="3" stroke-linecap="round" stroke-linejoin="round"/>
<path d="M11.0615 2L15.8827 4.09102L13.5239 8.8031" stroke="currentColor" stroke-width="3" stroke-linecap="round" stroke-linejoin="round"/>
</svg>
