<svg width="33" height="35" viewBox="0 0 33 35" fill="none" xmlns="http://www.w3.org/2000/svg">
<path d="M13.4322 5.98187C11.2795 6.41896 6.17935 8.01443 3 10.8994M24.5447 28.8221L30.553 23.3468C31.228 22.7314 31.419 21.7074 30.8127 21.0255C28.0554 17.9254 24.3062 20.4242 22.6265 22.2661L26.5695 7.69958C27.0192 6.03815 26.0232 4.33041 24.3448 3.88521C22.6664 3.44004 20.9412 4.426 20.4914 6.08743L18.0914 14.9539C12.4166 13.2078 8.48483 13.2944 6.32636 14.7183C3.62663 16.4992 3.83047 20.0366 4.29101 23.2496C4.66319 25.8463 5.47698 28.5268 7.53706 30.1759C10.7068 32.7137 14.5326 33.2605 17.5137 32.8996C20.2813 32.5649 22.4934 30.6913 24.5447 28.8221Z" stroke="currentColor" stroke-width="2.5" stroke-linecap="round" stroke-linejoin="round"/>
<path d="M11.2529 3L15.6437 5.04586L13.4955 9.65617" stroke="currentColor" stroke-width="2.5" stroke-linecap="round" stroke-linejoin="round"/>
</svg>
