<svg width="29" height="28" viewBox="0 0 29 28" fill="none" xmlns="http://www.w3.org/2000/svg">
<g clip-path="url(#clip0_669_7951)">
<path fill-rule="evenodd" clip-rule="evenodd" d="M27.7069 13.1698V10.5275C27.7069 8.4111 25.9925 6.69629 23.8764 6.69629C19.0544 6.69629 8.88095 6.69629 4.05899 6.69629C1.94294 6.69629 0.228516 8.4111 0.228516 10.5275C0.228516 14.0431 0.228516 20.2233 0.228516 23.7387C0.228516 25.8552 1.94294 27.5701 4.05899 27.5701C8.88095 27.5701 19.0544 27.5701 23.8764 27.5701C25.9925 27.5701 27.7069 25.8552 27.7069 23.7387C27.7069 22.4176 27.7069 21.0966 27.7069 21.0966C27.7069 20.4399 27.1748 19.9075 26.5184 19.9075C25.862 19.9075 25.3298 20.4399 25.3298 21.0966C25.3298 21.0966 25.3298 22.4176 25.3298 23.7387C25.3298 24.542 24.6785 25.192 23.8764 25.192C19.0544 25.192 8.88095 25.192 4.05899 25.192C3.25699 25.192 2.60558 24.542 2.60558 23.7387C2.60558 20.2233 2.60558 14.0431 2.60558 10.5275C2.60558 9.7243 3.25699 9.07429 4.05899 9.07429C8.88095 9.07429 19.0544 9.07429 23.8764 9.07429C24.6785 9.07429 25.3298 9.7243 25.3298 10.5275V13.1698C25.3298 13.8264 25.862 14.3588 26.5184 14.3588C27.1748 14.3588 27.7069 13.8264 27.7069 13.1698Z" fill="#333333"/>
<path fill-rule="evenodd" clip-rule="evenodd" d="M4.59052 8.94941C4.59052 8.94941 11.9293 5.28066 16.6206 2.93434C17.0711 2.70976 17.6062 2.73354 18.0342 2.99776C18.4636 3.26331 18.7239 3.73097 18.7239 4.23432C18.7239 6.10635 18.7239 7.88591 18.7239 7.88591H21.1019C21.1019 7.88591 21.1019 6.10635 21.1019 4.23432C21.1019 2.9066 20.4149 1.67399 19.2854 0.975118C18.1558 0.277565 16.7448 0.214152 15.5572 0.807337C10.8659 3.15365 3.52832 6.82242 3.52832 6.82242L4.59052 8.94941Z" fill="#333333"/>
<path fill-rule="evenodd" clip-rule="evenodd" d="M29.029 15.8127C29.029 13.6963 27.3142 11.9814 25.1977 11.9814C23.9995 11.9814 22.5581 11.9814 21.2344 11.9814C18.3887 11.9814 16.082 14.2881 16.082 17.1338C16.082 19.9795 18.3887 22.2862 21.2344 22.2862C22.5581 22.2862 23.9995 22.2862 25.1977 22.2862C27.3142 22.2862 29.029 20.5714 29.029 18.455V15.8127ZM26.651 15.8127C26.651 15.0094 26.001 14.3594 25.1977 14.3594C23.9995 14.3594 22.5581 14.3594 21.2344 14.3594C19.7018 14.3594 18.46 15.6013 18.46 17.1338C18.46 18.6663 19.7018 19.9082 21.2344 19.9082C22.5581 19.9082 23.9995 19.9082 25.1977 19.9082C26.001 19.9082 26.651 19.2581 26.651 18.455V15.8127Z" fill="#333333"/>
<path d="M21.2453 18.455C21.975 18.455 22.5666 17.8632 22.5666 17.133C22.5666 16.4029 21.975 15.811 21.2453 15.811C20.5155 15.811 19.9238 16.4029 19.9238 17.133C19.9238 17.8632 20.5155 18.455 21.2453 18.455Z" fill="#333333"/>
</g>
<defs>
<clipPath id="clip0_669_7951">
<rect width="28.8" height="27.6" fill="white"/>
</clipPath>
</defs>
</svg>
