<svg width="189" height="265" viewBox="0 0 189 265" fill="none" xmlns="http://www.w3.org/2000/svg">
<path d="M0.929932 118.06L71.4849 0.639893L141.525 118.06L71.4849 160.805L0.929932 118.06Z" fill="url(#paint0_linear_653_19)"/>
<path d="M0.929932 118.06L71.4849 0.639893L141.525 118.06L71.4849 160.805L0.929932 118.06Z" fill="#333333"/>
<path d="M71.4849 173.68L0.929932 130.935L71.4849 230.33L141.525 130.935L71.4849 173.68Z" fill="url(#paint1_linear_653_19)"/>
<path d="M71.4849 173.68L0.929932 130.935L71.4849 230.33L141.525 130.935L71.4849 173.68Z" fill="#333333"/>
<path d="M161.61 185.01H141.525V214.88H113.715V233.42H141.525V264.32H161.61V233.42H188.905V214.88H161.61V185.01Z" fill="url(#paint2_linear_653_19)"/>
<path d="M161.61 185.01H141.525V214.88H113.715V233.42H141.525V264.32H161.61V233.42H188.905V214.88H161.61V185.01Z" fill="#333333"/>
</svg>
