<?xml version="1.0" encoding="UTF-8"?>
<svg id="Layer_2" data-name="Layer 2" xmlns="http://www.w3.org/2000/svg" viewBox="0 0 388.0726 500.059">
  <defs>
    <style>
      .cls-1 {
        fill: #e6e5e6;
      }

      .cls-2 {
        fill: #fe5700;
      }

      .cls-3 {
        fill: #fed200;
      }
    </style>
  </defs>
  <g id="katman_1" data-name="katman 1">
    <g id="npqJrh.tif">
      <g>
        <path class="cls-3" d="m0,393.297C0,388.806,0,384.315,0,379.8239c.1052.1144.2135.2263.3132.3453.0228.0273.0087.0829.026.1186.0079.0162.0505.0157.2999.0815v-7.0774c.0529-.0411.057-.0866.0121-.1364.0201-.2585.0401-.5169.0602-.7753.022-.1808.044-.3615.0661-.5423,0,0,.0628-.0769.0628-.0769,0,0-.0534-.0822-.0534-.0822.0374-.2913.0748-.5827.1121-.874.049-.0583.0514-.1185.0073-.1806.3617-4.9222.7235-9.8444,1.0852-14.7666.0639-.9041.1278-1.8082.1917-2.7124.2645-2.5237.5291-5.0475.7936-7.5712.028-.2931.056-.5862.0839-.8793.0365-.2702.073-.5403.1095-.8104.0515-.0703.0568-.1439.0159-.2208l.0714-1.0031c.079-.0604.0869-.1272.0239-.2004.2367-1.772.4733-3.5441.71-5.3161.026-.2286.0521-.4571.0781-.6857.0269-.1858.0538-.3716.0807-.5574.0554-.0702.062-.1447.0196-.2235,1.0583-7.1192,1.9883-14.2606,3.2148-21.3507,1.0063-5.8176,1.9639-11.671,4.11-17.2271.4784-.065.8578-.1191,1.3522.2606,1.8696,1.4359,3.5215,3.076,5.189,4.7384,7.4978,7.4745,16.1892,13.3429,25.4639,18.3499,11.265,6.0815,23.1487,10.716,35.3322,14.5672,13.6859,4.3261,27.6556,7.5605,41.7291,10.3226,5.1101,1.0029,10.2673,1.7727,15.447,2.4255,15.0457,1.8964,30.153,2.8215,45.2991,3.0792,20.4334.3478,40.8292-.383,61.1795-2.4046,11.6892-1.1612,23.3414-2.5775,34.8477-4.9192,24.148-4.9144,47.2462-12.8203,68.7091-25.0944,8.7399-4.9981,17.015-10.6662,23.5127-18.5545,1.4909-1.8099,2.5857-3.9509,4.497-5.4106.238.5184.5882,1.0142.6975,1.5585,2.3065,11.4872,5.6145,22.7495,7.501,34.3371,1.3376,8.216,2.6742,16.4252,3.5357,24.7054.5745,5.5222,1.1022,11.0493,1.6508,16.5743-.016.0288-.0504.0622-.0445.0853.0154.0604.0484.1162.0744.1738.1773,2.6091.56,5.2231.4969,7.8263-.2948,12.1629,1.1545,24.4062-1.7423,36.4554-1.304,5.4238-2.4575,10.8795-4.68,16.0306-2.8074,6.5065-6.7713,12.2257-11.4886,17.5002-4.1715,4.6641-8.7929,8.8305-13.8355,12.45-7.1753,5.1504-14.9156,9.3566-22.9413,13.1092-12.4956,5.8427-25.5218,10.0594-38.8158,13.5365-11.9146,3.1163-24.0303,5.2551-36.1832,7.1893-.0856.012-.1713.024-.2569.036-.2438.0216-.4876.0431-.7315.0646l-.0635-.0464-.0585.0558c-1.9523.2836-3.9047.5672-5.857.8508-.1054.0189-.2109.0378-.3163.0566-.213.0178-.4259.0356-.6389.0533-.0705.0056-.1409.0111-.2113.0168-5.2597.614-10.5194,1.228-15.779,1.842-.1139.0259-.2279.0518-.3418.0777-.2153.0224-.4306.0448-.6459.0672l-.0904-.0479-.0834.0623c-2.0174.1092-4.0347.2185-6.0521.3277-.0758-.0407-.1487-.0359-.2184.0145-.2738.0404-.5477.0807-.8215.1211l-.2239.0168c-.4945.0274-.989.0548-1.4836.0821-.9108.0586-1.8216.1172-2.7323.1758-.1757.006-.3515.0119-.5272.0179l-.0824-.0535s-.0795.0593-.0795.0593c-.8587.0265-1.7174.053-2.5761.0796-.0633-.0455-.1235-.0417-.1805.0116-.1998.0277-.3996.0555-.5994.0831-.1424.0141-.2848.0281-.4272.0422-14.4774-.0151-28.9548-.0302-43.4322-.0453-.0571-.0662-.1216-.0744-.1934-.0245-.1794-.016-.3588-.032-.5382-.048-.1526-.0078-.3052-.0156-.4578-.0234-.7668-.0273-1.5336-.0546-2.3004-.0819-.0734-.006-.1468-.012-.2201-.018-.1492-.0056-.2983-.0112-.4475-.0168-.0805-.0057-.1611-.0113-.2416-.017-.2803-.0168-.5606-.0337-.8408-.0505-.2293-.0189-.4586-.0377-.688-.0566-.1755-.0051-.3509-.0103-.5263-.0155-.0746-.0506-.153-.0575-.2353-.0206-.2702-.0124-.5404-.0247-.8106-.0371l-1.3713-.0765c-.1967-.0162-.3934-.0324-.5902-.0487-.1527-.0193-.3054-.0386-.4581-.0579-14.2472-1.2724-28.4441-2.9568-42.5118-5.5696-8.7528-1.6257-17.4378-3.5927-26.0364-5.916-11.0386-2.9826-21.9123-6.4649-32.4736-10.8733-13.0554-5.4496-25.53-11.9165-36.4824-21.0201-7.0486-5.8588-12.9698-12.662-17.4062-20.7289-4.8533-8.8253-6.6075-18.49-7.8059-28.3157-.0505-.6379-.1011-1.2758-.1516-1.9137-.0093-.6065-.0186-1.2131-.0279-1.8197-.1645-3.3217-.3274-6.6434-.5069-9.9642-.0029-.0534.2086-.4584-.1936-.2435-.0985.0526-.1682.1593-.2512.2412Z"/>
        <path class="cls-1" d="m326.89,170.5749c-3.3892-9.5837-7.6301-18.7961-12.0061-27.9604-5.2953-11.0898-10.8912-22.0253-16.6296-32.886-4.8386-9.1577-9.8517-18.2277-15.3657-27.0028-4.421-7.0354-8.759-14.1341-13.4692-20.9734-5.1821-7.5245-10.6295-14.8633-16.5129-21.8835-9.8049-11.6993-18.3096-19.2635-21.692-22.2359-10.5623-9.2819-16.0063-13.9678-23.9925-16.1728-9.5383-2.6335-17.6136-1.0286-20.7015-.3787-13.8461,2.9142-22.9276,11.4631-28.2648,16.7591-32.0262,31.7781-54.4563,70.6761-58.3152,77.4542-6.9449,12.1985-13.757,25.1848-20.7004,38.66-4.2239,8.1975-9.9069,19.3269-16.5687,32.6802,1.8517,1.0182,4.0599,2.1827,6.5811,3.415,0,0,2.3019,1.1251,4.6369,2.1718,15.9816,7.1637,42.0703,12.4026,42.0704,12.4026,10.5532,2.2521,21.2254,3.814,31.9382,5.1013,7.5367.9056,15.0431,2.2692,22.6049,2.7119,11.8143.6919,23.6647.343,35.4995.1072,5.0178-.0999,10.0345-.2527,15.0516-.3817.0002,0,.0004,0,.0005,0,.0056-.0001.011-.0003.0166-.0004l-.0002-.0008c.2355-.0181.471-.0363.7064-.0544l.0179.0065c3.8341-.152,7.6683-.3039,11.5024-.4559v-.0006c.2446-.0164.4893-.0328.7339-.0492l.0914-.0627.0951.0588c7.2053-.3887,14.4213-.6424,21.6115-1.2189,4.056-.3251,8.082-1.1097,12.0994-1.813,11.0346-1.9316,20.3639-3.5486,31.3243-6.8854,7.181-2.1862,16.7379-5.6169,27.6365-11.1119Z"/>
        <path class="cls-1" d="m.9517,403.2635c-.3172-.0787-.6345-.1573-.9517-.236,0-2.2455,0-4.491,0-6.7365v-.998c.3039-.1663.2344-.3327,0-.499v-.499c.3203-.1663.2248-.3327,0-.499,0-.1663,0-.3327,0-.499.0829-.0819.1526-.1886.2512-.2412.4023-.2149.1907.1901.1936.2435.1795,3.3208.3424,6.6426.5069,9.9642Z"/>
        <path class="cls-1" d="m0,372.8379c.2127.1507.4255.3014.6386.4531.0004,2.3405.0004,4.68.0004,7.0784-.2494-.0658-.292-.0653-.2999-.0815-.0172-.0357-.0031-.0913-.026-.1186-.0997-.1191-.208-.2309-.3132-.3453,0-.1663,0-.3327,0-.499.3589-.1663.2445-.3327,0-.499v-.499c.357-.1663.2721-.3327,0-.499v-.499c.3377-.1663.1928-.3327,0-.499C0,375.4992,0,374.1686,0,372.8379Z"/>
        <path class="cls-3" d="m0,376.8299c.1928.1663.3377.3327,0,.499v-.499Z"/>
        <path class="cls-3" d="m0,378.8259c.2445.1663.3589.3327,0,.499v-.499Z"/>
        <path class="cls-3" d="m0,394.794c.2344.1663.3039.3327,0,.499v-.499Z"/>
        <path class="cls-3" d="m0,393.796c.2248.1663.3203.3327,0,.499v-.499Z"/>
        <path class="cls-3" d="m0,377.8279c.2721.1663.357.3327,0,.499v-.499Z"/>
        <path class="cls-1" d="m0,371.8399c.0318.0607.0685.1198.0904.1838.0036.0104-.0586.0432-.0904.0657,0-.0832,0-.1663,0-.2495Z"/>
        <path class="cls-2" d="m29.4179,243.1911c1.6588-4.2991,3.3175-8.5983,4.9763-12.8973,0,0,.0598-.0397.0598-.0397l-.0298-.0619c2.499-6.2159,4.9542-12.4498,7.5111-18.6418,1.9857-4.8088,4.0572-9.5834,6.1635-14.3409,5.4637-12.3408,6.9389-16.8505,10.7855-24.0999,1.4896-2.8073,2.7846-5.0543,3.6178-6.4691,23.0001,10.6984,41.2974,15.5587,53.4578,17.9837,10.8524,2.1642,26.8862,4.4942,31.9382,5.1013,7.5367.9057,15.0431,2.2691,22.6049,2.7119,11.8144.6919,23.6647.3429,35.4995.1071,5.0235-.1001,10.0459-.2532,15.0687-.3822-.0001,0-.017.0005-.017.0005.2411-.0186.4823-.0371.7228-.0555-.0006.0002.0184.0062.0184.0062,3.8341-.1519,7.6683-.3039,11.5023-.4559-.0002,0-.0131.0003-.0131.0003.2491-.0167.4981-.0334.7455-.0498-.0017.0003.094.0414.094.0414l.0942-.0457c7.2052-.3887,14.4213-.6424,21.6115-1.2188,4.0559-.3252,8.0819-1.1098,12.0995-1.813,4.3743-.7657,7.5299-1.4005,10.2012-1.9958,0,0,6.4277-1.3892,12.4849-3.0163,14.8544-3.9903,34.9414-12.4225,36.2746-12.9852,5.5408,11.575,10.7182,23.3138,15.5572,35.196,3.9945,9.8087,7.9012,19.6576,11.6071,29.5783,3.6144,9.6756,7.0383,19.4266,10.3361,29.2153,3.0794,9.1404,5.8806,18.3746,8.8127,27.5648.2512.7873.5652,1.5544.85,2.3307-1.9114,1.4594-3.0063,3.6005-4.4971,5.4104-6.4977,7.8882-14.7728,13.5564-23.5127,18.5545-21.4629,12.2741-44.5611,20.18-68.7091,25.0944-11.5062,2.3417-23.1585,3.758-34.8477,4.9192-20.3502,2.0216-40.746,2.7523-61.1794,2.4046-15.146-.2578-30.2534-1.1828-45.2991-3.0793-5.1796-.6528-10.3369-1.4226-15.447-2.4255-14.0735-2.7621-28.0432-5.9965-41.7291-10.3226-12.1835-3.8513-24.0672-8.4857-35.3322-14.5672-9.2746-5.007-17.9661-10.8754-25.4639-18.3499-1.6676-1.6624-3.3194-3.3024-5.189-4.7383-.4944-.3797-.8738-.3256-1.3522-.2607,2.9485-10.7756,6.3588-21.4071,10.0264-31.9565,2.1992-6.3257,4.4498-12.6335,6.6927-18.9438.3548-.9983.791-1.9675,1.1896-2.9501l.0146-.0579Z"/>
        <path class="cls-1" d="m224.4039,499.643c-.9109.0586-1.8218.1172-2.7325.1758.911-.0586,1.8217-.1172,2.7325-.1758Z"/>
        <path class="cls-1" d="m1.9914,355.8577c.0639-.9042.1278-1.8084.1917-2.7125-.0639.9043-.1278,1.8084-.1917,2.7125Z"/>
        <path class="cls-1" d="m1.1312,406.9969c-.0505-.6381-.101-1.2761-.1516-1.914.0505.6381.101,1.276.1516,1.914Z"/>
        <path class="cls-1" d="m166.267,499.6037c-.4572-.0256-.9144-.0511-1.3714-.0766.4572.0256.9143.0511,1.3714.0766Z"/>
        <path class="cls-1" d="m.6511,373.1556c.0201-.2587.0402-.5175.0602-.7758-.0201.2589-.0402.5173-.0602.7758Z"/>
        <path class="cls-1" d="m2.9767,345.5741c.028-.2931.0561-.5863.084-.8794-.0281.2931-.056.5863-.084.8794Z"/>
        <path class="cls-1" d="m168.5272,499.7335c-.2294-.0189-.4587-.0377-.6881-.0566.2294.0189.4587.0377.6881.0566Z"/>
        <path class="cls-1" d="m3.9913,337.1439c.0261-.2286.0522-.4572.0782-.6858-.0261.2287-.0522.4572-.0782.6858Z"/>
        <path class="cls-1" d="m217.6264,500.0167c-.1427.0141-.2854.0282-.4276.0422.1429-.0141.2852-.0281.4276-.0422Z"/>
        <path class="cls-1" d="m173.0354,499.9412c-.1527-.0078-.3054-.0156-.4579-.0234.1527.0078.3053.0156.4579.0234Z"/>
        <path class="cls-1" d="m164.3055,499.4785c-.1528-.0193-.3056-.0386-.4582-.0579.1528.0193.3055.0386.4582.0579Z"/>
        <path class="cls-1" d="m3.1701,343.8843c-.0173-.053-.0413-.1051-.0479-.1593-.0021-.0178.0412-.0411.0638-.0617.041.0771.0357.1507-.0159.221Z"/>
        <path class="cls-1" d="m218.4063,499.922l-.0868.0762s-.0944-.0646-.0941-.0646c.0573-.0532.1175-.0571.1809-.0116Z"/>
        <path class="cls-1" d="m4.1501,335.9009c-.0161-.0538-.039-.1069-.0443-.1617-.0018-.0185.0414-.0413.064-.0619.0423.0789.0358.1534-.0196.2236Z"/>
        <path class="cls-1" d="m3.2574,342.6604c-.0197-.0701-.0117-.137.024-.2005.063.0733.055.1401-.024.2005Z"/>
        <polygon class="cls-1" points="257.2895 496.0924 257.2288 496.1071 257.167 496.1019 257.226 496.0461 257.2895 496.0924"/>
        <path class="cls-1" d="m258.2779,495.9919c-.0858.0122-.1716.0243-.2572.0362.0859-.0122.1716-.0242.2572-.0362Z"/>
        <path class="cls-1" d="m250.3553,497.0627l-.1052.0217s-.1073-.0049-.1067-.005c.071-.0057.1414-.0112.2119-.0168Z"/>
        <path class="cls-1" d="m251.3105,496.9528c-.1054.019-.2108.0381-.3163.0569.1054-.0192.2108-.038.3163-.0569Z"/>
        <polygon class="cls-1" points="233.3772 499.0663 233.2908 499.0858 233.2029 499.0808 233.2868 499.0184 233.3772 499.0663"/>
        <path class="cls-1" d="m234.365,498.9214c-.1139.0261-.2277.0522-.3417.078.1138-.0262.2278-.0521.3417-.078Z"/>
        <path class="cls-1" d="m226.1114,499.5441l-.1104.0317s-.1137-.0148-.1136-.0149c.0747-.0056.1494-.0112.224-.0168Z"/>
        <path class="cls-1" d="m227.1514,499.4085c-.0729.0048-.1458.0097-.2186.0145.0699-.0504.1427-.0552.2186-.0145Z"/>
        <path class="cls-1" d="m167.3129,499.6614c-.0785-.0069-.157-.0138-.2354-.0206.0823-.0369.1608-.03.2354.0206Z"/>
        <path class="cls-1" d="m387.438,371.6351c.01.0864.02.1729.0299.2592-.0261-.0577-.0591-.1135-.0745-.1739-.0059-.0231.0285-.0566.0445-.0853Z"/>
        <path class="cls-1" d="m169.6097,499.8009c-.0806-.0057-.1612-.0114-.2417-.017.0807.0057.1612.0114.2417.017Z"/>
        <path class="cls-1" d="m170.2773,499.8358l-.1114.0039s-.1093-.0219-.109-.0219c.0736.006.147.012.2204.018Z"/>
        <polygon class="cls-1" points="221.1444 499.8367 221.0635 499.8505 220.9821 499.8425 221.0619 499.7832 221.1444 499.8367"/>
        <path class="cls-1" d="m.7774,371.838c-.0255-.0548-.0223-.1081.0095-.1595,0,.0004.0533.0826.0533.0826l-.0628.0769Z"/>
        <path class="cls-1" d="m173.7671,500.0136l-.1027.0339s-.0908-.0586-.0908-.0585c.0719-.0498.1363-.0417.1935.0246Z"/>
        <path class="cls-1" d="m.8989,370.8049l-.0678-.0929s.0751-.0883.0751-.088c.0441.0624.0417.1226-.0073.1809Z"/>
        <polygon class="cls-3" points="234.2183 191.6041 234.1241 191.6498 234.03 191.6084 234.1232 191.5454 234.2183 191.6041"/>
        <path class="cls-3" d="m221.7954,192.1137s-.019-.006-.0184-.0062c.0006-.0002.0184.0062.0184.0062Z"/>
        <polygon class="cls-3" points="221.0541 192.163 221.0712 192.1625 221.0643 192.131 221.0541 192.163"/>
        <polygon class="cls-3" points="233.2846 191.6582 233.2976 191.6579 233.2933 191.6225 233.2846 191.6582"/>
        <polygon class="cls-1" points="29.4179 243.1911 29.4559 243.2206 29.4033 243.2491 29.4179 243.1911"/>
        <polygon class="cls-1" points="34.4241 230.1922 34.454 230.2541 34.3942 230.2938 34.4241 230.1922"/>
      </g>
    </g>
  </g>
</svg>