<svg width="25" height="25" viewBox="0 0 25 25" fill="none" xmlns="http://www.w3.org/2000/svg">
<path d="M24.5893 22.6177L19.8686 17.9109C21.3917 15.9705 22.2181 13.5743 22.2151 11.1075C22.2151 8.91067 21.5636 6.76315 20.3431 4.93652C19.1226 3.1099 17.3878 1.68622 15.3582 0.845515C13.3286 0.00481268 11.0952 -0.215153 8.94056 0.213433C6.78591 0.64202 4.80674 1.69991 3.25333 3.25333C1.69991 4.80674 0.64202 6.78591 0.213433 8.94056C-0.215153 11.0952 0.00481268 13.3286 0.845515 15.3582C1.68622 17.3878 3.1099 19.1226 4.93652 20.3431C6.76315 21.5636 8.91067 22.2151 11.1075 22.2151C13.5743 22.2181 15.9705 21.3917 17.9109 19.8686L22.6177 24.5893C22.7468 24.7194 22.9004 24.8227 23.0695 24.8932C23.2387 24.9637 23.4202 25 23.6035 25C23.7868 25 23.9683 24.9637 24.1375 24.8932C24.3067 24.8227 24.4602 24.7194 24.5893 24.5893C24.7194 24.4602 24.8227 24.3067 24.8932 24.1375C24.9637 23.9683 25 23.7868 25 23.6035C25 23.4202 24.9637 23.2387 24.8932 23.0695C24.8227 22.9004 24.7194 22.7468 24.5893 22.6177ZM2.77689 11.1075C2.77689 9.45989 3.26547 7.84924 4.18085 6.47928C5.09624 5.10931 6.39731 4.04155 7.91953 3.41102C9.44176 2.78049 11.1168 2.61552 12.7328 2.93696C14.3488 3.2584 15.8331 4.05182 16.9982 5.21688C18.1633 6.38194 18.9567 7.86632 19.2781 9.48231C19.5996 11.0983 19.4346 12.7733 18.8041 14.2955C18.1735 15.8178 17.1058 17.1188 15.7358 18.0342C14.3658 18.9496 12.7552 19.4382 11.1075 19.4382C8.89811 19.4382 6.77918 18.5605 5.21688 16.9982C3.65458 15.4359 2.77689 13.317 2.77689 11.1075Z" fill="#ffffff"/>
</svg>
