<svg width="16" height="16" viewBox="0 0 16 16" fill="none" xmlns="http://www.w3.org/2000/svg">
<path d="M14.1126 8.784C14.1455 8.528 14.1701 8.272 14.1701 8C14.1701 7.728 14.1455 7.472 14.1126 7.216L15.8479 5.896C16.0042 5.776 16.0453 5.56 15.9466 5.384L14.3017 2.616C14.203 2.44 13.981 2.376 13.8 2.44L11.7522 3.24C11.3245 2.92 10.8639 2.656 10.3622 2.456L10.0497 0.336C10.025 0.144 9.85231 0 9.6467 0H6.35693C6.15132 0 5.97861 0.144 5.95393 0.336L5.64141 2.456C5.13972 2.656 4.67915 2.928 4.25148 3.24L2.2036 2.44C2.01443 2.368 1.8006 2.44 1.70191 2.616L0.0570212 5.384C-0.0498963 5.56 -0.00054964 5.776 0.155714 5.896L1.89107 7.216C1.85817 7.472 1.8335 7.736 1.8335 8C1.8335 8.264 1.85817 8.528 1.89107 8.784L0.155714 10.104C-0.00054964 10.224 -0.0416719 10.44 0.0570212 10.616L1.70191 13.384C1.8006 13.56 2.02266 13.624 2.2036 13.56L4.25148 12.76C4.67915 13.08 5.13972 13.344 5.64141 13.544L5.95393 15.664C5.97861 15.856 6.15132 16 6.35693 16H9.6467C9.85231 16 10.025 15.856 10.0497 15.664L10.3622 13.544C10.8639 13.344 11.3245 13.072 11.7522 12.76L13.8 13.56C13.9892 13.632 14.203 13.56 14.3017 13.384L15.9466 10.616C16.0453 10.44 16.0042 10.224 15.8479 10.104L14.1126 8.784ZM8.00182 10.8C6.4145 10.8 5.12327 9.544 5.12327 8C5.12327 6.456 6.4145 5.2 8.00182 5.2C9.58913 5.2 10.8804 6.456 10.8804 8C10.8804 9.544 9.58913 10.8 8.00182 10.8Z" fill="#333333"/>
</svg>
