<svg width="24" height="23" viewBox="0 0 24 23" fill="none" xmlns="http://www.w3.org/2000/svg">
<path fill-rule="evenodd" clip-rule="evenodd" d="M23.0891 10.9747V8.77279C23.0891 7.00909 21.6604 5.58008 19.897 5.58008C15.8787 5.58008 7.40079 5.58008 3.38249 5.58008C1.61912 5.58008 0.19043 7.00909 0.19043 8.77279C0.19043 11.7024 0.19043 16.8526 0.19043 19.7821C0.19043 21.5458 1.61912 22.9749 3.38249 22.9749C7.40079 22.9749 15.8787 22.9749 19.897 22.9749C21.6604 22.9749 23.0891 21.5458 23.0891 19.7821C23.0891 18.6812 23.0891 17.5803 23.0891 17.5803C23.0891 17.0331 22.6457 16.5894 22.0987 16.5894C21.5517 16.5894 21.1082 17.0331 21.1082 17.5803C21.1082 17.5803 21.1082 18.6812 21.1082 19.7821C21.1082 20.4515 20.5654 20.9932 19.897 20.9932C15.8787 20.9932 7.40079 20.9932 3.38249 20.9932C2.71416 20.9932 2.17132 20.4515 2.17132 19.7821C2.17132 16.8526 2.17132 11.7024 2.17132 8.77279C2.17132 8.10342 2.71416 7.56175 3.38249 7.56175C7.40079 7.56175 15.8787 7.56175 19.897 7.56175C20.5654 7.56175 21.1082 8.10342 21.1082 8.77279V10.9747C21.1082 11.5218 21.5517 11.9655 22.0987 11.9655C22.6457 11.9655 23.0891 11.5218 23.0891 10.9747Z" fill="#333333"/>
<path fill-rule="evenodd" clip-rule="evenodd" d="M3.8256 7.45768C3.8256 7.45768 9.94128 4.40039 13.8507 2.44512C14.2261 2.25797 14.672 2.27779 15.0287 2.49797C15.3865 2.71926 15.6034 3.10898 15.6034 3.52844C15.6034 5.08846 15.6034 6.57143 15.6034 6.57143H17.5851C17.5851 6.57143 17.5851 5.08846 17.5851 3.52844C17.5851 2.422 17.0126 1.39483 16.0713 0.812435C15.13 0.231141 13.9542 0.178297 12.9645 0.672618C9.05504 2.62788 2.94043 5.68519 2.94043 5.68519L3.8256 7.45768Z" fill="#333333"/>
<path fill-rule="evenodd" clip-rule="evenodd" d="M24.1905 13.1771C24.1905 11.4134 22.7615 9.98438 20.9978 9.98438C19.9993 9.98438 18.7981 9.98438 17.695 9.98438C15.3236 9.98438 13.4014 11.9066 13.4014 14.278C13.4014 16.6494 15.3236 18.5717 17.695 18.5717C18.7981 18.5717 19.9993 18.5717 20.9978 18.5717C22.7615 18.5717 24.1905 17.1427 24.1905 15.379V13.1771ZM22.2089 13.1771C22.2089 12.5077 21.6672 11.966 20.9978 11.966C19.9993 11.966 18.7981 11.966 17.695 11.966C16.4179 11.966 15.383 13.0009 15.383 14.278C15.383 15.5551 16.4179 16.59 17.695 16.59C18.7981 16.59 19.9993 16.59 20.9978 16.59C21.6672 16.59 22.2089 16.0483 22.2089 15.379V13.1771Z" fill="#333333"/>
<path d="M17.7047 15.3791C18.3128 15.3791 18.8058 14.8859 18.8058 14.2774C18.8058 13.669 18.3128 13.1758 17.7047 13.1758C17.0966 13.1758 16.6035 13.669 16.6035 14.2774C16.6035 14.8859 17.0966 15.3791 17.7047 15.3791Z" fill="#333333"/>
</svg>
