<svg width="1489" height="538" viewBox="0 0 1489 538" fill="none" xmlns="http://www.w3.org/2000/svg">
<rect width="1489" height="538" rx="140" fill="white"/>
<g clip-path="url(#clip0_3076_6565)">
<path d="M197.513 186.408C200.429 180.989 204.637 176.369 209.767 172.956L295.857 113L207.648 258.471C207.648 258.471 199.94 245.481 196.935 238.908C193.189 230.644 191.3 221.664 191.4 212.595C191.5 203.526 193.586 194.588 197.513 186.408ZM161.982 286.758C162.954 300.67 166.895 314.213 173.541 326.482C180.187 338.752 189.385 349.463 200.518 357.899L295.741 424.12C295.741 424.12 236.164 338.49 185.913 253.283C180.826 244.281 177.406 234.438 175.817 224.227C175.113 219.603 175.113 214.899 175.817 210.276C174.507 212.697 171.963 217.655 171.963 217.655C166.868 228.019 163.398 239.101 161.674 250.516C160.682 262.581 160.785 274.711 161.982 286.758ZM404.76 298.288C401.676 291.716 394.046 278.725 394.046 278.725L305.992 424.12L392.081 364.202C397.211 360.789 401.419 356.17 404.336 350.751C408.262 342.57 410.348 333.633 410.449 324.565C410.549 315.496 408.66 306.514 404.914 298.25L404.76 298.288ZM439.711 250.4C438.739 236.489 434.798 222.945 428.153 210.676C421.506 198.407 412.309 187.696 401.175 179.26L306.107 113C306.107 113 365.645 198.63 415.935 283.837C421.009 292.842 424.415 302.685 425.993 312.893C426.696 317.517 426.696 322.221 425.993 326.845C427.303 324.423 429.846 319.465 429.846 319.465C434.942 309.102 438.412 298.019 440.135 286.604C441.14 274.54 441.05 262.41 439.866 250.362L439.711 250.4Z" fill="url(#paint0_linear_3076_6565)"/>
<path d="M597.612 333.683V308.704H538.873V277.192H592.045V253.558H538.873V222.43H597.612V197.451H512.383V333.683H597.612Z" fill="url(#paint1_linear_3076_6565)"/>
<path d="M739.68 333.683V197.451H713.19V287.568L656.564 197.451H623.547V333.683H650.036V237.033L711.846 333.683H739.68Z" fill="url(#paint2_linear_3076_6565)"/>
<path d="M863.395 229.924C860.323 214.553 847.654 194.569 814.637 194.569C788.915 194.569 767.224 213.015 767.224 237.226C767.224 257.785 781.237 271.812 802.928 276.232L821.932 280.074C832.489 282.188 838.44 288.337 838.44 296.215C838.44 305.822 830.57 312.931 816.365 312.931C797.169 312.931 787.763 300.826 786.612 287.376L762.041 293.909C764.153 313.316 780.085 336.565 816.173 336.565C847.846 336.565 865.314 315.429 865.314 294.485C865.314 275.271 852.069 259.131 827.307 254.327L808.303 250.676C798.321 248.755 793.522 242.798 793.522 235.304C793.522 226.273 801.968 218.011 814.829 218.011C832.106 218.011 838.248 229.732 839.592 237.226L863.395 229.924Z" fill="url(#paint3_linear_3076_6565)"/>
<path d="M1001.42 333.368H949.736V197.207H999.767C1013.13 197.207 1024.84 200.101 1034.9 205.89C1044.95 211.679 1052.86 219.746 1058.63 230.093C1064.39 240.315 1067.27 252.14 1067.27 265.565C1067.27 278.867 1064.45 290.629 1058.81 300.853C1053.29 311.076 1045.57 319.081 1035.63 324.87C1025.82 330.536 1014.42 333.368 1001.42 333.368ZM977.327 209.955V320.99L964.267 307.688H998.664C1007 307.688 1014.11 306.026 1020 302.7C1025.89 299.375 1030.36 294.571 1033.43 288.289C1036.62 281.885 1038.21 274.31 1038.21 265.565C1038.21 256.697 1036.55 249.061 1033.24 242.655C1029.93 236.251 1025.21 231.386 1019.08 228.061C1012.95 224.612 1005.65 222.887 997.192 222.887H964.267L977.327 209.955Z" fill="url(#paint4_linear_3076_6565)"/>
<path d="M1097.59 333.368H1068.89L1117.45 197.207H1144.68L1193.24 333.368H1163.99L1153.88 303.624H1107.71L1097.59 333.368ZM1127.38 246.166L1115.8 280.346H1145.96L1134.38 246.166C1133.64 244.073 1132.9 241.917 1132.17 239.7C1131.55 237.36 1131.13 235.451 1130.88 233.973C1130.63 235.451 1130.21 237.298 1129.6 239.515C1128.98 241.732 1128.25 243.949 1127.38 246.166Z" fill="url(#paint5_linear_3076_6565)"/>
<path d="M1327 265.195C1327 278.99 1324.18 291.183 1318.54 301.776C1313.02 312.368 1305.24 320.681 1295.17 326.717C1285.24 332.629 1273.72 335.585 1260.59 335.585C1247.6 335.585 1236.13 332.629 1226.2 326.717C1216.27 320.681 1208.55 312.43 1203.03 301.961C1197.5 291.368 1194.75 279.174 1194.75 265.379C1194.75 251.462 1197.5 239.207 1203.03 228.614C1208.67 218.022 1216.45 209.769 1226.38 203.858C1236.32 197.822 1247.78 194.805 1260.78 194.805C1273.91 194.805 1285.43 197.822 1295.36 203.858C1305.29 209.769 1313.02 218.022 1318.54 228.614C1324.18 239.083 1327 251.277 1327 265.195ZM1297.94 265.195C1297.94 256.08 1296.4 248.321 1293.34 241.917C1290.39 235.388 1286.17 230.4 1280.64 226.951C1275.26 223.379 1268.69 221.594 1260.96 221.594C1253.24 221.594 1246.61 223.379 1241.1 226.951C1235.58 230.4 1231.29 235.388 1228.23 241.917C1225.28 248.321 1223.81 256.08 1223.81 265.195C1223.81 274.186 1225.28 282.008 1228.23 288.659C1231.29 295.186 1235.58 300.236 1241.1 303.808C1246.61 307.257 1253.24 308.981 1260.96 308.981C1268.69 308.981 1275.26 307.195 1280.64 303.623C1286.17 300.051 1290.39 295.001 1293.34 288.473C1296.4 281.822 1297.94 274.063 1297.94 265.195Z" fill="url(#paint6_linear_3076_6565)"/>
</g>
<defs>
<linearGradient id="paint0_linear_3076_6565" x1="1241.88" y1="525.545" x2="1113.11" y2="-122.066" gradientUnits="userSpaceOnUse">
<stop stop-color="#DE82FF"/>
<stop offset="1" stop-color="#7F6AFF"/>
</linearGradient>
<linearGradient id="paint1_linear_3076_6565" x1="1241.88" y1="525.545" x2="1113.11" y2="-122.066" gradientUnits="userSpaceOnUse">
<stop stop-color="#DE82FF"/>
<stop offset="1" stop-color="#7F6AFF"/>
</linearGradient>
<linearGradient id="paint2_linear_3076_6565" x1="1241.88" y1="525.545" x2="1113.11" y2="-122.066" gradientUnits="userSpaceOnUse">
<stop stop-color="#DE82FF"/>
<stop offset="1" stop-color="#7F6AFF"/>
</linearGradient>
<linearGradient id="paint3_linear_3076_6565" x1="1241.88" y1="525.545" x2="1113.11" y2="-122.065" gradientUnits="userSpaceOnUse">
<stop stop-color="#DE82FF"/>
<stop offset="1" stop-color="#7F6AFF"/>
</linearGradient>
<linearGradient id="paint4_linear_3076_6565" x1="1241.88" y1="525.545" x2="1113.11" y2="-122.065" gradientUnits="userSpaceOnUse">
<stop stop-color="#DE82FF"/>
<stop offset="1" stop-color="#7F6AFF"/>
</linearGradient>
<linearGradient id="paint5_linear_3076_6565" x1="1241.88" y1="525.545" x2="1113.11" y2="-122.065" gradientUnits="userSpaceOnUse">
<stop stop-color="#DE82FF"/>
<stop offset="1" stop-color="#7F6AFF"/>
</linearGradient>
<linearGradient id="paint6_linear_3076_6565" x1="1241.88" y1="525.545" x2="1113.11" y2="-122.066" gradientUnits="userSpaceOnUse">
<stop stop-color="#DE82FF"/>
<stop offset="1" stop-color="#7F6AFF"/>
</linearGradient>
<clipPath id="clip0_3076_6565">
<rect width="1166" height="312" fill="white" transform="translate(161 113)"/>
</clipPath>
</defs>
</svg>
