<svg width="1489" height="538" viewBox="0 0 1489 538" fill="none" xmlns="http://www.w3.org/2000/svg">
<rect width="1489" height="538" rx="140" fill="white"/>
<g clip-path="url(#clip0_3339_6933)">
<mask id="mask0_3339_6933" style="mask-type:luminance" maskUnits="userSpaceOnUse" x="202" y="113" width="1084" height="312">
<path d="M202 113H1285.33V425H202V113Z" fill="white"/>
</mask>
<g mask="url(#mask0_3339_6933)">
<path d="M358 425C444.157 425 514 355.157 514 269C514 182.843 444.157 113 358 113C271.844 113 202 182.843 202 269C202 355.157 271.844 425 358 425Z" fill="#1C68F3"/>
<path d="M1046.15 229.752C1074.74 229.752 1107.22 240.739 1109.16 275.898H1069.19C1068.36 265.735 1058.92 261.065 1046.42 261.065C1034.76 261.065 1029.49 265.46 1029.49 270.679C1029.49 275.074 1032.82 279.194 1043.37 281.117L1068.63 285.237C1093.9 289.907 1110.55 301.993 1110.55 325.616C1110.55 356.38 1082.51 370.663 1047.53 370.663C1012.28 370.663 983.682 356.105 980.909 320.671L1020.88 320.946C1022.82 332.483 1032.54 337.702 1046.7 337.702C1058.64 337.702 1065.85 334.131 1065.85 328.363C1065.85 323.968 1061.69 320.397 1052.81 319.023L1025.6 314.354C1002.28 310.508 986.182 297.598 986.182 274.25C986.182 246.232 1010.33 229.752 1046.15 229.752ZM877.637 230.27C892.322 230.27 904.516 234.111 914.492 240.422V233.288H959.389V366.366H914.492V358.957C904.516 365.268 892.322 369.109 877.637 369.109C841.332 369.109 810.851 339.201 810.851 299.689C810.851 259.904 841.332 230.27 877.637 230.27ZM614.677 179.5L681.995 279.335L749.032 179.5H784.08V366.519H737.072V272.735L695.069 336.816V337.091H668.922V336.816L626.638 272.184L626.916 366.519H579.906V179.5H614.677ZM1180.25 171.729V283.39L1227.23 233.458H1280.88L1229.73 287.78L1285.33 366.519H1231.4L1199.16 320.428L1180.25 340.456V366.519H1135.22V171.729H1180.25ZM886.503 266.489C868.216 266.489 854.913 281.306 854.913 299.689C854.913 318.074 868.216 332.616 886.503 332.616C896.482 332.616 906.18 329.872 914.492 320.268V279.11C906.18 269.507 896.482 266.489 886.503 266.489Z" fill="#1C68F3"/>
<path fill-rule="evenodd" clip-rule="evenodd" d="M452.157 230.653V282.459H294.248L287.454 282.46C294.645 313.893 323.182 337.373 357.292 337.373C385.492 337.373 409.883 321.325 421.552 298.002L452.157 298.001V341.517C452.157 351.818 443.674 360.168 433.208 360.168H281.615C271.15 360.168 262.666 351.818 262.666 341.517V230.653H452.157ZM403.378 298.002C393.328 312.462 376.436 321.952 357.292 321.952C338.148 321.952 321.256 312.462 311.207 298.002H403.378ZM316.882 243.087C302.032 243.087 289.747 253.894 287.704 267.953L303.856 267.954C305.632 262.542 310.792 258.628 316.882 258.628C322.971 258.628 328.131 262.542 329.907 267.954L346.06 267.953C344.017 253.894 331.732 243.087 316.882 243.087ZM397.942 243.087C383.092 243.087 370.807 253.894 368.764 267.953L384.916 267.954C386.693 262.542 391.853 258.628 397.942 258.628C404.031 258.628 409.192 262.542 410.967 267.954L427.12 267.953C425.077 253.894 412.792 243.087 397.942 243.087ZM433.208 173.667C443.674 173.667 452.157 182.017 452.157 192.317V215.111H262.666V192.317C262.666 182.017 271.15 173.667 281.615 173.667H433.208Z" fill="white"/>
</g>
</g>
<defs>
<clipPath id="clip0_3339_6933">
<rect width="1083.33" height="312" fill="white" transform="translate(202 113)"/>
</clipPath>
</defs>
</svg>
